<?xml version="1.0" encoding="UTF-8"?>
<svg enable-background="new 0 0 511.999 511.999" version="1.1" viewBox="0 0 512 512" xml:space="preserve"
     xmlns="http://www.w3.org/2000/svg">
  <path
    d="m413.01 433.97c-3.123-2.717-7.859-2.39-10.576 0.733l-17.312 19.892-5.188-6.445c-2.598-3.226-7.317-3.735-10.541-1.14-3.226 2.597-3.734 7.316-1.139 10.541l10.804 13.422c2.926 3.633 8.43 3.741 11.495 0.221l23.192-26.648c2.717-3.123 2.388-7.859-0.735-10.576z"/>
  <path
    d="m319.94 148.85h-140.19c-4.141 0-7.497 3.357-7.497 7.497s3.356 7.497 7.497 7.497h140.19c4.141 0 7.497-3.357 7.497-7.497s-3.356-7.497-7.497-7.497z"/>
  <path
    d="m319.94 184.83h-140.19c-4.141 0-7.497 3.357-7.497 7.497s3.356 7.497 7.497 7.497h140.19c4.141 0 7.497-3.357 7.497-7.497s-3.356-7.497-7.497-7.497z"/>
  <path
    d="m319.94 256.79h-140.19c-4.141 0-7.497 3.357-7.497 7.497 0 4.141 3.356 7.497 7.497 7.497h140.19c4.141 0 7.497-3.356 7.497-7.497s-3.356-7.497-7.497-7.497z"/>
  <path
    d="m319.94 220.81h-140.19c-4.141 0-7.497 3.357-7.497 7.497s3.356 7.497 7.497 7.497h140.19c4.141 0 7.497-3.357 7.497-7.497 0-4.141-3.356-7.497-7.497-7.497z"/>
  <path
    d="m319.94 292.78h-140.19c-4.141 0-7.497 3.356-7.497 7.497s3.356 7.497 7.497 7.497h140.19c4.141 0 7.497-3.356 7.497-7.497s-3.356-7.497-7.497-7.497z"/>
  <path
    d="m319.94 364.74h-140.19c-4.141 0-7.497 3.357-7.497 7.497 0 4.141 3.356 7.497 7.497 7.497h140.19c4.141 0 7.497-3.356 7.497-7.497s-3.356-7.497-7.497-7.497z"/>
  <path
    d="m319.94 328.76h-140.19c-4.141 0-7.497 3.356-7.497 7.497s3.356 7.497 7.497 7.497h140.19c4.141 0 7.497-3.356 7.497-7.497s-3.356-7.497-7.497-7.497z"/>
  <path
    d="m150.23 148.99c-2.629-0.52-5.2 0.447-6.757 2.049-1.65 1.651-2.55 4.087-2.059 6.767 0.43 2.072 1.62 3.718 3.2 4.768 2.904 1.963 6.924 1.6 9.456-0.93 1.435-1.437 2.198-3.394 2.198-5.308 0-3.471-2.395-6.587-6.038-7.346z"/>
  <path
    d="m152.92 186.09c-0.807-0.545-1.787-0.939-2.699-1.109-2.428-0.507-5.061 0.304-6.757 2.049-1.624 1.613-2.557 4.052-2.059 6.767 0.101 0.471 0.617 1.943 1.12 2.689 3.432 5.041 10.975 4.168 13.153-1.289 0.403-0.952 0.58-1.955 0.58-2.869 1e-3 -2.363-1.118-4.722-3.338-6.238z"/>
  <path
    d="m156.12 262.82c-0.154-0.825-0.552-1.853-1.109-2.699-2.778-4.064-8.327-4.347-11.535-1.141-0.737 0.739-1.24 1.521-1.629 2.439-0.367 0.872-0.57 1.843-0.57 2.869 0 1.969 0.801 3.897 2.199 5.298 0.651 0.653 1.432 1.198 2.429 1.62 0.859 0.362 1.866 0.58 2.868 0.58 0.98 0 1.974-0.211 2.869-0.58 0.974-0.412 1.775-0.968 2.43-1.619 1.701-1.703 2.562-4.239 2.048-6.767z"/>
  <path
    d="m155.69 225.44c-1.743-4.364-7.229-5.968-11.075-3.369-1.631 1.086-2.769 2.742-3.199 4.768-0.494 2.697 0.423 5.142 2.059 6.767 1.267 1.305 3.253 2.199 5.298 2.199 5.359 0 8.977-5.496 6.917-10.365z"/>
  <path
    d="m154.07 294.97c-4.18-4.178-11.427-2.086-12.655 3.838-0.496 2.648 0.404 5.111 2.059 6.767 2.903 2.903 7.655 2.933 10.596 0 2.889-2.89 2.961-7.637 0-10.605z"/>
  <path
    d="m155 368.08c-2.748-4.022-8.366-4.4-11.535-1.141-2.949 2.951-2.907 7.708 0 10.596 2.835 2.916 7.742 2.928 10.596 0 2.527-2.511 2.923-6.527 0.939-9.455z"/>
  <path
    d="m155 332.09c-4.291-6.28-13.734-3.031-13.734 4.158 0 1.978 0.801 3.907 2.199 5.308 1.321 1.321 3.204 2.189 5.298 2.189 5.958 0 9.55-6.632 6.237-11.655z"/>
  <path
    d="m451.02 439.15-4.673-4.556c-5.029-4.902 3.876-12.918-3.184-22.636-2.289-3.151-5.63-5.24-9.447-5.922-4.227-1.04-9.143-0.034-11.153-4.107-2.29-3.738-3.261-9.864-10.278-12.929v-215.29c0-4.14-3.356-7.497-7.497-7.497s-7.497 3.357-7.497 7.497v216.77c-3.384 1.923-5.876 3.595-8.946 1.981l-3.86-2.029v-323.52c0-10.748-8.744-19.491-19.491-19.491h-57.037c0.869-3.657 0.419-5.46 0.545-12.21h63.344c14.031 0 25.446 11.415 25.446 25.446v78.336c0 4.14 3.356 7.497 7.497 7.497s7.497-3.357 7.497-7.497v-78.337c0-22.298-18.141-40.439-40.439-40.439h-63.344v-0.715c-1e-3 -10.747-8.745-19.491-19.492-19.491h-54.483c-4.141 0-7.497 3.357-7.497 7.497s3.356 7.497 7.497 7.497h54.483c2.438 0 4.498 2.06 4.498 4.498v23.421c0 2.438-2.06 4.498-4.498 4.498h-109.45c-2.438 0-4.498-2.06-4.498-4.498v-23.421c0-2.438 2.06-4.498 4.498-4.498h19.984c4.141 0 7.497-3.357 7.497-7.497s-3.356-7.497-7.497-7.497h-19.984c-10.747 0-19.491 8.744-19.491 19.491v0.715h-63.178c-22.298 0-40.439 18.141-40.439 40.439v398.07c0 22.298 18.141 40.439 40.439 40.439h34.38c4.141 0 7.497-3.356 7.497-7.497s-3.355-7.497-7.497-7.497h-34.38c-14.031 0-25.446-11.415-25.446-25.446v-398.07c0-14.031 11.415-25.446 25.446-25.446h63.178c0.125 6.674-0.329 8.532 0.545 12.21h-57.037c-10.715 0-19.491 8.735-19.491 19.491 0.036 403.53-0.092 385.41 0.102 387.29 1.012 9.887 9.39 17.508 19.389 17.508h233.43c-0.763 4.228-1.875 7.799-0.13 12.458h-170.62c-4.141 0-7.497 3.356-7.497 7.497s3.356 7.497 7.497 7.497h193.83c1.13 1.464 3.842 12.804 15.616 12.804 4.739 0 7.367-1.974 12.644-4.719 6.193-3.26 11.148 7.691 22.545 3.984 8.258-2.682 9.572-10.175 11.673-13.459 3.141-6.365 13.511-0.271 20.601-10.032 5.103-7.024 1.772-13.861 1.554-17.62-0.781-4.55 3.746-6.47 6.654-9.926 5.666-5.89 5.555-15.278-0.353-21.037zm-172.9-376.74v10.237c0 3.093-2.516 5.607-5.607 5.607h-76.444c-3.093 0-5.607-2.516-5.607-5.607v-10.237h87.658zm59.956 350.67c-5.709 9.521 2.462 16.732-2.454 21.525l-4.67 4.553c-5.157 5.024-5.574 12.331-2.855 17.562-240.35-0.033-225.26 0.419-227.01-0.767-1.226-0.831-2.007-2.197-2.007-3.731 0.07-398.6-1.226-387.3 2.38-389.27 2.188-1.19 0.302-0.21 74.004-0.539v10.236c0 11.36 9.242 20.601 20.601 20.601h76.444c11.359 0 20.601-9.242 20.601-20.601v-10.238h71.886c2.438 0 4.498 2.059 4.498 4.498v322.19c-9.79 4.435-7.693 14.965-14.356 15.934-4.632 1.026-12.273 0.073-17.065 8.043zm101.83 37.463c-2.274 2.444-12.213 8.976-9.962 22.114l1.129 6.251c-0.322 0.047-0.641 0.114-0.953 0.202-3.362 0.647-15.122 0.125-20.998 12.029l-2.82 5.837c-0.289-0.153-0.589-0.286-0.896-0.399-0.26-0.121-0.899-0.491-1.371-0.765-15.333-8.875-22.261-1.493-28.318 1.135-2.469-2.78-3.168-15.321-20.928-17.493-2.631-0.319-0.814-0.045-3.843-0.485 0.054-0.317 0.088-0.639 0.102-0.96 0.415-3.287 4.53-14.386-4.961-23.637l-4.671-4.478 4.672-4.554c7.856-7.659 6.424-15.282 4.813-24.537l6.394-0.93c11.632-1.689 14.941-10.13 18.392-17.129l5.685 2.988c11.702 6.155 21.025-1.205 24.056-2.607 0.284-0.105 0.557-0.225 0.826-0.365l2.869 5.811c5.215 10.568 14.378 11.076 21.905 12.169-0.055 0.319-0.089 0.642-0.103 0.965-0.035 0.278-0.185 0.977-0.295 1.49-0.978 4.572-3.013 14.087 5.256 22.143l4.633 4.518c-0.217 0.216-0.422 0.446-0.613 0.687z"/>
</svg>
