<?xml version="1.0" encoding="UTF-8"?>
<svg style="isolation:isolate" viewBox="0 0 512 512" xmlns="http://www.w3.org/2000/svg">
  <g>
    <path d="m128 392v16c0 8.824 7.176 16 16 16h224c8.824 0 16-7.176 16-16v-16c0-8.824-7.176-16-16-16h-224c-8.824 0-16 7.176-16 16zm16 0h32v16h-32v-16zm128 16h-32v-16h32v16zm16-16h32v16h-32v-16zm-64 16h-32v-16h32v16zm144.01 0h-32.008v-16h32l8e-3 16z"/>
    <path d="m293.66 93.656-11.312-11.312-42.344 42.344-10.344-10.344-11.312 11.312 21.656 21.656 53.656-53.656z"/>
    <path d="m152 176v160c0 13.232 10.768 24 24 24h160c13.232 0 24-10.768 24-24v-160c0-13.232-10.768-24-24-24h-20.176c7.68-11.448 12.176-25.208 12.176-40 0-39.696-32.304-72-72-72s-72 32.304-72 72c0 14.792 4.496 28.552 12.176 40h-20.176c-13.232 0-24 10.768-24 24zm16 56h176v48h-176v-48zm168 112h-160c-4.408 0-8-3.592-8-8v-40h176v40c0 4.408-3.592 8-8 8zm8-168v40h-176v-40c0-4.408 3.592-8 8-8h34.848c12.36 9.984 28.064 16 45.152 16s32.792-6.016 45.152-16h34.848c4.408 0 8 3.592 8 8zm-88-120c30.88 0 56 25.12 56 56s-25.12 56-56 56-56-25.12-56-56 25.12-56 56-56z"/>
    <path d="m184 184h16v16h-16v-16z"/>
    <path d="m216 184h16v16h-16v-16z"/>
    <path d="m248 200h16v-16h-8-8v16z"/>
    <path d="m184 312h16v16h-16v-16z"/>
    <path d="m216 312h16v16h-16v-16z"/>
    <path d="m248 312h16v16h-16v-16z"/>
    <path d="m280 248h16v16h-16v-16z"/>
    <path d="m312 248h16v16h-16v-16z"/>
    <path d="m248 248h16v16h-16v-16z"/>
    <path d="m376 440c-13.232 0-24 10.768-24 24 0 1.024 0.176 2 0.304 2.984-30.32 13.888-62.664 21.016-96.304 21.016-82.632 0-159.82-45.368-201.05-116.85l23.48 4.696 3.144-15.688-47.848-9.568-9.568 47.84 15.688 3.144 3.704-18.504c44.592 74.072 125.66 120.93 212.45 120.93 36.136 0 70.888-7.696 103.45-22.696 4.312 4.128 10.128 6.696 16.552 6.696 13.232 0 24-10.768 24-24s-10.768-24-24-24zm0 32c-4.408 0-8-3.592-8-8s3.592-8 8-8 8 3.592 8 8-3.592 8-8 8z"/>
    <path d="m424 400c-13.232 0-24 10.768-24 24s10.768 24 24 24 24-10.768 24-24-10.768-24-24-24zm0 32c-4.408 0-8-3.592-8-8s3.592-8 8-8 8 3.592 8 8-3.592 8-8 8z"/>
    <path d="m464 352c-13.232 0-24 10.768-24 24s10.768 24 24 24 24-10.768 24-24-10.768-24-24-24zm0 32c-4.408 0-8-3.592-8-8s3.592-8 8-8 8 3.592 8 8-3.592 8-8 8z"/>
    <path d="m136 72c13.232 0 24-10.768 24-24 0-1.024-0.176-2-0.304-2.984 30.32-13.888 62.664-21.016 96.304-21.016 82.632 0 159.83 45.36 201.05 116.85l-23.48-4.696-3.144 15.688 47.848 9.568 9.568-47.84-15.688-3.144-3.704 18.504c-44.584-74.072-125.66-120.93-212.45-120.93-36.136 0-70.888 7.696-103.45 22.696-4.312-4.128-10.128-6.696-16.552-6.696-13.232 0-24 10.768-24 24s10.768 24 24 24zm0-32c4.408 0 8 3.592 8 8s-3.592 8-8 8-8-3.592-8-8 3.592-8 8-8z"/>
    <path d="m88 112c13.232 0 24-10.768 24-24s-10.768-24-24-24-24 10.768-24 24 10.768 24 24 24zm0-32c4.408 0 8 3.592 8 8s-3.592 8-8 8-8-3.592-8-8 3.592-8 8-8z"/>
    <path d="m48 160c13.232 0 24-10.768 24-24s-10.768-24-24-24-24 10.768-24 24 10.768 24 24 24zm0-32c4.408 0 8 3.592 8 8s-3.592 8-8 8-8-3.592-8-8 3.592-8 8-8z" fill-rule="evenodd"/>
  </g>
</svg>
