<svg version="1.1" viewBox="0.0 0.0 936.6614173228346 408.7244094488189" fill="none" stroke="none" stroke-linecap="square" stroke-miterlimit="10" xmlns:xlink="http://www.w3.org/1999/xlink" xmlns="http://www.w3.org/2000/svg"><clipPath id="p.0"><path d="m0 0l936.66144 0l0 408.7244l-936.66144 0l0 -408.7244z" clip-rule="nonzero"/></clipPath><g clip-path="url(#p.0)"><path fill="#000000" fill-opacity="0.0" d="m0 0l936.66144 0l0 408.7244l-936.66144 0z" fill-rule="evenodd"/><path fill="#f3f3f3" d="m224.38046 268.23636l-151.6292 0l0 -151.64886l51.08236 -51.08236l100.54684 0z" fill-rule="evenodd"/><path fill="#c2c2c2" d="m123.833626 65.50514l-10.216469 40.865883l-40.86589 10.216476z" fill-rule="evenodd"/><path fill="#000000" fill-opacity="0.0" d="m123.833626 65.50514l-10.216469 40.865883l-40.86589 10.216476l51.08236 -51.08236l100.54684 0l0 202.73122l-151.6292 0l0 -151.64886" fill-rule="evenodd"/><path stroke="#cccccc" stroke-width="1.0" stroke-linejoin="round" stroke-linecap="butt" d="m123.833626 65.50514l-10.216469 40.865883l-40.86589 10.216476l51.08236 -51.08236l100.54684 0l0 202.73122l-151.6292 0l0 -151.64886" fill-rule="evenodd"/><path fill="#666666" d="m156.57564 186.16881l11.8125 5.765625l0 1.828125l-11.8125 5.765625l0 -2.984375l7.71875 -3.703125l-7.71875 -3.6875l0 -2.984375zm-13.980469 15.84375l7.78125 -18.140625l3.1875 0l-7.796875 18.140625l-3.171875 0zm-3.0117188 -12.859375l-7.71875 3.6875l7.71875 3.703125l0 2.984375l-11.812508 -5.765625l0 -1.828125l11.812508 -5.765625l0 2.984375z" fill-rule="nonzero"/><path fill="#000000" fill-opacity="0.0" d="m68.65027 258.15833l159.84576 0l0 85.05826l-159.84576 0z" fill-rule="evenodd"/><path fill="#00253e" d="m125.062645 307.8262q-2.296875 0 -3.640625 -1.40625l0.734375 -1.015625q0.453125 0.53125 1.234375 0.90625q0.796875 0.375 1.734375 0.375q1.046875 0 1.578125 -0.4375q0.546875 -0.4375 0.546875 -1.109375q0 -0.59375 -0.59375 -0.9375q-0.578125 -0.34375 -2.1875 -0.71875q-1.359375 -0.28125 -2.078125 -0.875q-0.71875 -0.609375 -0.71875 -1.640625q0 -1.140625 0.90625 -1.859375q0.921875 -0.734375 2.453125 -0.734375q2.03125 0 3.3437576 1.3125l-0.6562576 0.96875q-0.40625 -0.484375 -1.109375 -0.8125q-0.703125 -0.328125 -1.578125 -0.328125q-0.9375 0 -1.46875 0.40625q-0.53125 0.40625 -0.53125 1.015625q0 0.53125 0.59375 0.859375q0.609375 0.3125 2.203125 0.640625q1.359375 0.328125 2.0625 0.96875q0.7187576 0.640625 0.7187576 1.703125q0 1.25 -0.9687576 1.984375q-0.96875 0.734375 -2.578125 0.734375zm9.753288 0q-1.953125 0 -3.203125 -1.328125q-1.25 -1.328125 -1.25 -3.40625q0 -2.09375 1.25 -3.40625q1.25 -1.3125 3.203125 -1.3125q1.96875 0 3.21875 1.3125q1.25 1.3125 1.25 3.40625q0 2.078125 -1.25 3.40625q-1.25 1.328125 -3.21875 1.328125zm0 -1.25q1.3125 0 2.15625 -0.96875q0.84375 -0.984375 0.84375 -2.515625q0 -1.515625 -0.84375 -2.484375q-0.84375 -0.984375 -2.15625 -0.984375q-1.296875 0 -2.15625 0.96875q-0.84375 0.96875 -0.84375 2.5q0 1.546875 0.84375 2.515625q0.84375 0.96875 2.15625 0.96875zm12.827621 1.03125l0 -1.265625q-0.53125 0.59375 -1.375 1.046875q-0.828125 0.4375 -1.84375 0.4375q-2.859375 0 -2.859375 -2.875l0 -6.359375l1.390625 0l0 5.9375q0 1.0625 0.484375 1.5625q0.484375 0.484375 1.53125 0.484375q0.828125 0 1.546875 -0.40625q0.734375 -0.40625 1.125 -0.953125l0 -6.625l1.390625 0l0 9.015625l-1.390625 0zm4.201477 0l0 -9.015625l1.390625 0l0 1.453125q1.25 -1.640625 3.0 -1.640625l0 1.4375l-0.546875 -0.046875q-0.640625 0 -1.40625 0.453125q-0.765625 0.453125 -1.046875 0.984375l0 6.375l-1.390625 0zm10.12532 0.21875q-1.984375 0 -3.25 -1.34375q-1.25 -1.34375 -1.25 -3.390625q0 -2.03125 1.25 -3.375q1.265625 -1.34375 3.25 -1.34375q2.09375 0 3.296875 1.5625l-0.921875 0.859375q-0.859375 -1.171875 -2.296875 -1.171875q-1.390625 0 -2.265625 0.96875q-0.859375 0.953125 -0.859375 2.5q0 1.5625 0.859375 2.53125q0.859375 0.953125 2.265625 0.953125q1.40625 0 2.296875 -1.171875l0.921875 0.859375q-1.203125 1.5625 -3.296875 1.5625zm9.328598 0q-2.03125 0 -3.3125 -1.3125q-1.28125 -1.328125 -1.28125 -3.421875q0 -2.0 1.265625 -3.359375q1.28125 -1.359375 3.171875 -1.359375q1.9375 0 3.125 1.34375q1.203125 1.34375 1.203125 3.484375l0 0.359375l-7.296875 0q0.078125 1.375 1.0 2.25q0.921875 0.859375 2.25 0.859375q1.640625 0 2.78125 -1.140625l0.671875 0.921875q-1.375 1.375 -3.578125 1.375zm2.796875 -5.296875q0 -1.25 -0.828125 -2.125q-0.8125 -0.875 -2.140625 -0.875q-1.25 0 -2.078125 0.875q-0.828125 0.875 -0.875 2.125l5.921875 0z" fill-rule="nonzero"/><path fill="#f0197b" d="m456.64047 100.880615l47.007874 0l42.53543 42.53543l-42.53543 42.535446l-47.007874 0l42.53543 -42.535446z" fill-rule="evenodd"/><path fill="#6570b2" d="m392.87338 100.880615l47.007874 0l42.53543 42.53543l-42.53543 42.535446l-47.007874 0l42.53543 -42.535446z" fill-rule="evenodd"/><path fill="#40457a" d="m328.50696 100.880615l47.007874 0l42.53543 42.53543l-42.53543 42.535446l-47.007874 0l42.53543 -42.535446z" fill-rule="evenodd"/><path fill="#2e3092" d="m650.32306 261.50516l43.535828 -75.54382l174.14331 0l-43.535828 75.54382z" fill-rule="evenodd"/><path fill="#0066ab" d="m650.32306 221.60675l43.535828 -75.54382l174.14331 0l-43.535828 75.54382z" fill-rule="evenodd"/><path fill="#009fdf" d="m650.32306 181.70836l43.535828 -75.54382l174.14331 0l-43.535828 75.54382z" fill-rule="evenodd"/><path fill="#78c0dd" d="m650.32306 141.80995l43.535828 -75.543816l174.14331 0l-43.535828 75.543816z" fill-rule="evenodd"/><path fill="#000000" fill-opacity="0.0" d="m650.314 258.16104l217.69714 0l0 85.05823l-217.69714 0z" fill-rule="evenodd"/><path fill="#00253e" d="m723.0517 307.8289q-2.734375 0 -4.453125 -1.828125q-1.71875 -1.828125 -1.71875 -4.609375q0 -2.796875 1.71875 -4.609375q1.734375 -1.828125 4.453125 -1.828125q2.75 0 4.453125 1.828125q1.71875 1.828125 1.71875 4.609375q0 2.796875 -1.734375 4.625q-1.71875 1.8125 -4.4375 1.8125zm0 -1.375q2.03125 0 3.296875 -1.421875q1.28125 -1.4375 1.28125 -3.640625q0 -2.234375 -1.28125 -3.640625q-1.265625 -1.40625 -3.296875 -1.40625q-2.015625 0 -3.296875 1.390625q-1.265625 1.375 -1.265625 3.65625q0 2.25 1.25 3.65625q1.265625 1.40625 3.3125 1.40625zm14.490784 1.375q-2.734375 0 -4.5625 -1.796875q-1.828125 -1.8125 -1.828125 -4.640625q0 -2.8125 1.828125 -4.625q1.828125 -1.8125 4.5625 -1.8125q2.96875 0 4.734375 2.46875l-1.3125 0.734375q-0.546875 -0.796875 -1.453125 -1.296875q-0.90625 -0.515625 -1.96875 -0.515625q-2.0625 0 -3.421875 1.4375q-1.359375 1.4375 -1.359375 3.609375q0 2.203125 1.34375 3.640625q1.359375 1.421875 3.4375 1.421875q1.0625 0 1.96875 -0.5q0.90625 -0.515625 1.453125 -1.3125l1.328125 0.734375q-1.8125 2.453125 -4.75 2.453125zm6.7210083 -0.21875l0 -12.4375l1.546875 0l0 12.4375l-1.546875 0zm9.912781 -10.296875q-0.375 0 -0.65625 -0.265625q-0.28125 -0.28125 -0.28125 -0.671875q0 -0.390625 0.28125 -0.671875q0.28125 -0.28125 0.65625 -0.28125q0.390625 0 0.671875 0.28125q0.28125 0.28125 0.28125 0.671875q0 0.390625 -0.28125 0.671875q-0.28125 0.265625 -0.671875 0.265625zm-0.6875 10.296875l0 -9.015625l1.390625 0l0 9.015625l-1.390625 0zm15.072693 0l0 -6.125q0 -1.859375 -1.671875 -1.859375q-0.703125 0 -1.375 0.421875q-0.65625 0.421875 -1.0 0.953125l0 6.609375l-1.40625 0l0 -6.125q0 -1.859375 -1.65625 -1.859375q-0.6875 0 -1.34375 0.4375q-0.65625 0.421875 -1.03125 0.96875l0 6.578125l-1.390625 0l0 -9.015625l1.390625 0l0 1.3125q0.3125 -0.546875 1.1875 -1.03125q0.890625 -0.5 1.71875 -0.5q1.046875 0 1.625 0.484375q0.59375 0.484375 0.8125 1.1875q0.453125 -0.71875 1.3125 -1.1875q0.859375 -0.484375 1.703125 -0.484375q2.515625 0 2.515625 2.71875l0 6.515625l-1.390625 0zm9.824219 0l0 -1.03125q-1.140625 1.25 -2.984375 1.25q-1.359375 0 -2.265625 -0.859375q-0.890625 -0.859375 -0.890625 -2.125q0 -1.296875 0.890625 -2.125q0.890625 -0.84375 2.265625 -0.84375q1.9375 0 2.984375 1.234375l0 -1.625q0 -0.90625 -0.640625 -1.390625q-0.640625 -0.5 -1.640625 -0.5q-1.578125 0 -2.75 1.25l-0.65625 -0.984375q1.4375 -1.484375 3.59375 -1.484375q1.671875 0 2.578125 0.8125q0.921875 0.796875 0.921875 2.234375l0 6.1875l-1.40625 0zm-2.484375 -0.78125q1.671875 0 2.484375 -1.125l0 -1.6875q-0.8125 -1.125 -2.484375 -1.125q-0.984375 0 -1.609375 0.546875q-0.609375 0.546875 -0.609375 1.421875q0 0.859375 0.609375 1.421875q0.625 0.546875 1.609375 0.546875zm10.300598 4.4375q-1.15625 0 -2.0 -0.28125q-0.828125 -0.28125 -1.640625 -1.0625l0.71875 -1.046875q0.5625 0.671875 1.25 0.953125q0.703125 0.28125 1.671875 0.28125q1.390625 0 2.140625 -0.71875q0.75 -0.71875 0.75 -1.984375l0 -1.296875q-0.484375 0.703125 -1.28125 1.15625q-0.78125 0.453125 -1.734375 0.453125q-1.828125 0 -2.921875 -1.28125q-1.09375 -1.296875 -1.09375 -3.375q0 -2.171875 1.109375 -3.421875q1.109375 -1.265625 2.90625 -1.265625q1.859375 0 3.015625 1.578125l0 -1.359375l1.40625 0l0 8.75q0 1.90625 -1.125 2.90625q-1.109375 1.015625 -3.171875 1.015625zm0.203125 -4.78125q0.765625 0 1.515625 -0.40625q0.765625 -0.40625 1.171875 -1.0625l0 -3.9375q-0.40625 -0.65625 -1.171875 -1.046875q-0.765625 -0.40625 -1.515625 -0.40625q-1.3125 0 -2.109375 0.953125q-0.78125 0.953125 -0.78125 2.484375q0 1.546875 0.796875 2.484375q0.8125 0.9375 2.09375 0.9375zm10.95874 1.34375q-2.03125 0 -3.3125 -1.3125q-1.28125 -1.328125 -1.28125 -3.421875q0 -2.0 1.265625 -3.359375q1.28125 -1.359375 3.171875 -1.359375q1.9375 0 3.125 1.34375q1.203125 1.34375 1.203125 3.484375l0 0.359375l-7.296875 0q0.078125 1.375 1.0 2.25q0.921875 0.859375 2.25 0.859375q1.640625 0 2.78125 -1.140625l0.671875 0.921875q-1.375 1.375 -3.578125 1.375zm2.796875 -5.296875q0 -1.25 -0.828125 -2.125q-0.8125 -0.875 -2.140625 -0.875q-1.25 0 -2.078125 0.875q-0.828125 0.875 -0.875 2.125l5.921875 0z" fill-rule="nonzero"/><path fill="#000000" fill-opacity="0.0" d="m230.29765 153.5978l414.11023 0l0 125.6693l-414.11023 0z" fill-rule="evenodd"/><path fill="#00253e" d="m364.50195 223.35243l-1.890625 -6.140625l-1.90625 6.140625l-2.5312195 0l-2.75 -9.015625l2.46875 0l1.6718445 6.0625l1.984375 -6.0625l2.109375 0l1.96875 6.0625l1.6875 -6.0625l2.453125 0l-2.734375 9.015625l-2.53125 0zm7.6123047 -9.984375q-0.578125 0 -1.0 -0.40625q-0.40625 -0.40625 -0.40625 -1.015625q0 -0.59375 0.40625 -0.984375q0.421875 -0.40625 1.0 -0.40625q0.609375 0 1.015625 0.40625q0.40625 0.390625 0.40625 0.984375q0 0.609375 -0.40625 1.015625q-0.40625 0.40625 -1.015625 0.40625zm-1.171875 9.984375l0 -9.015625l2.375 0l0 9.015625l-2.375 0zm7.7512817 0.21875q-2.5625 0 -2.5625 -2.453125l0 -4.703125l-1.484375 0l0 -2.078125l1.484375 0l0 -2.453125l2.390625 0l0 2.453125l1.828125 0l0 2.078125l-1.828125 0l0 4.0625q0 0.4375 0.203125 0.71875q0.21875 0.265625 0.609375 0.265625q0.5625 0 0.828125 -0.25l0.5 1.78125q-0.609375 0.578125 -1.96875 0.578125zm9.383942 -0.21875l0 -5.484375q0 -1.640625 -1.6875 -1.640625q-1.234375 0 -2.046875 1.0625l0 6.0625l-2.375 0l0 -12.4375l2.375 0l0 4.609375q0.421875 -0.53125 1.234375 -0.96875q0.8125 -0.4375 1.9375 -0.4375q1.484375 0 2.203125 0.765625q0.71875 0.75 0.71875 2.0625l0 6.40625l-2.359375 0zm8.898743 0.21875q-2.09375 0 -3.4375 -1.34375q-1.328125 -1.34375 -1.328125 -3.390625q0 -2.046875 1.328125 -3.375q1.34375 -1.34375 3.4375 -1.34375q2.078125 0 3.421875 1.34375q1.34375 1.328125 1.34375 3.375q0 2.078125 -1.34375 3.40625q-1.34375 1.328125 -3.421875 1.328125zm0 -2.109375q1.015625 0 1.65625 -0.734375q0.65625 -0.734375 0.65625 -1.890625q0 -1.125 -0.65625 -1.859375q-0.640625 -0.75 -1.65625 -0.75q-1.0 0 -1.65625 0.71875q-0.640625 0.71875 -0.640625 1.890625q0 1.1875 0.640625 1.90625q0.65625 0.71875 1.65625 0.71875zm12.599335 1.890625l0 -1.140625q-1.203125 1.359375 -3.171875 1.359375q-1.484375 0 -2.203125 -0.75q-0.703125 -0.75 -0.703125 -2.078125l0 -6.40625l2.375 0l0 5.46875q0 1.65625 1.65625 1.65625q1.21875 0 2.046875 -1.015625l0 -6.109375l2.375 0l0 9.015625l-2.375 0zm7.7550964 0.21875q-2.5625 0 -2.5625 -2.453125l0 -4.703125l-1.484375 0l0 -2.078125l1.484375 0l0 -2.453125l2.390625 0l0 2.453125l1.828125 0l0 2.078125l-1.828125 0l0 4.0625q0 0.4375 0.203125 0.71875q0.21875 0.265625 0.609375 0.265625q0.5625 0 0.828125 -0.25l0.5 1.78125q-0.609375 0.578125 -1.96875 0.578125zm8.113068 -0.21875l0 -12.4375l4.90625 0q2.9375 0 4.765625 1.71875q1.84375 1.703125 1.84375 4.5q0 2.78125 -1.84375 4.5q-1.828125 1.71875 -4.765625 1.71875l-4.90625 0zm4.90625 -2.328125q1.734375 0 2.8125 -1.09375q1.078125 -1.09375 1.078125 -2.796875q0 -1.765625 -1.03125 -2.828125q-1.03125 -1.0625 -2.859375 -1.0625l-2.265625 0l0 7.78125l2.265625 0zm12.613922 2.546875q-2.09375 0 -3.4375 -1.34375q-1.328125 -1.34375 -1.328125 -3.390625q0 -2.046875 1.328125 -3.375q1.34375 -1.34375 3.4375 -1.34375q2.078125 0 3.421875 1.34375q1.34375 1.328125 1.34375 3.375q0 2.078125 -1.34375 3.40625q-1.34375 1.328125 -3.421875 1.328125zm0 -2.109375q1.015625 0 1.65625 -0.734375q0.65625 -0.734375 0.65625 -1.890625q0 -1.125 -0.65625 -1.859375q-0.640625 -0.75 -1.65625 -0.75q-1.0 0 -1.65625 0.71875q-0.640625 0.71875 -0.640625 1.890625q0 1.1875 0.640625 1.90625q0.65625 0.71875 1.65625 0.71875zm10.724335 2.109375q-2.125 0 -3.453125 -1.34375q-1.328125 -1.34375 -1.328125 -3.390625q0 -2.03125 1.328125 -3.375q1.328125 -1.34375 3.453125 -1.34375q1.375 0 2.234375 0.5q0.875 0.5 1.328125 1.125l-1.546875 1.453125q-0.65625 -0.96875 -1.90625 -0.96875q-1.078125 0 -1.765625 0.71875q-0.671875 0.71875 -0.671875 1.890625q0 1.171875 0.671875 1.90625q0.6875 0.71875 1.765625 0.71875q1.21875 0 1.90625 -0.96875l1.546875 1.4375q-0.453125 0.640625 -1.328125 1.140625q-0.859375 0.5 -2.234375 0.5zm10.950073 -0.21875l-2.390625 -3.46875l-1.078125 1.15625l0 2.3125l-2.375 0l0 -12.4375l2.375 0l0 7.4375l3.40625 -4.015625l2.921875 0l-3.5625 4.09375l3.671875 4.921875l-2.96875 0zm8.259735 0.21875q-2.125 0 -3.46875 -1.3125q-1.34375 -1.3125 -1.34375 -3.421875q0 -2.015625 1.328125 -3.359375q1.34375 -1.359375 3.34375 -1.359375q1.984375 0 3.25 1.375q1.265625 1.359375 1.265625 3.59375l0 0.515625l-6.703125 0q0.109375 0.859375 0.765625 1.484375q0.671875 0.609375 1.828125 0.609375q0.5625 0 1.25 -0.234375q0.6875 -0.234375 1.15625 -0.671875l1.046875 1.53125q-0.671875 0.625 -1.671875 0.9375q-0.984375 0.3125 -2.046875 0.3125zm2.078125 -5.578125q-0.0625 -0.890625 -0.6875 -1.4375q-0.609375 -0.546875 -1.53125 -0.546875q-0.9375 0 -1.53125 0.5625q-0.59375 0.5625 -0.6875 1.421875l4.4375 0zm4.0043945 5.359375l0 -9.015625l2.375 0l0 1.234375q0.484375 -0.59375 1.25 -1.015625q0.78125 -0.4375 1.625 -0.4375l0 2.3125l-0.65625 -0.0625q-0.640625 0 -1.28125 0.3125q-0.640625 0.296875 -0.9375 0.71875l0 5.953125l-2.375 0zm7.2474976 0l0 -6.9375l-1.5 0l0 -2.078125l1.5 0l0 -0.484375q0 -1.453125 0.84375 -2.28125q0.84375 -0.84375 2.1875 -0.84375q1.015625 0 1.71875 0.375l-0.484375 1.703125q-0.3125 -0.21875 -0.765625 -0.21875q-0.5 0 -0.8125 0.328125q-0.3125 0.328125 -0.3125 0.9375l0 0.484375l1.828125 0l0 2.078125l-1.828125 0l0 6.9375l-2.375 0zm6.734375 -9.984375q-0.578125 0 -1.0 -0.40625q-0.40625 -0.40625 -0.40625 -1.015625q0 -0.59375 0.40625 -0.984375q0.421875 -0.40625 1.0 -0.40625q0.609375 0 1.015625 0.40625q0.40625 0.390625 0.40625 0.984375q0 0.609375 -0.40625 1.015625q-0.40625 0.40625 -1.015625 0.40625zm-1.171875 9.984375l0 -9.015625l2.375 0l0 9.015625l-2.375 0zm4.726898 0l0 -12.4375l2.375 0l0 12.4375l-2.375 0zm8.954407 0.21875q-2.125 0 -3.46875 -1.3125q-1.34375 -1.3125 -1.34375 -3.421875q0 -2.015625 1.328125 -3.359375q1.34375 -1.359375 3.34375 -1.359375q1.984375 0 3.25 1.375q1.265625 1.359375 1.265625 3.59375l0 0.515625l-6.703125 0q0.109375 0.859375 0.765625 1.484375q0.671875 0.609375 1.828125 0.609375q0.5625 0 1.25 -0.234375q0.6875 -0.234375 1.15625 -0.671875l1.046875 1.53125q-0.671875 0.625 -1.671875 0.9375q-0.984375 0.3125 -2.046875 0.3125zm2.078125 -5.578125q-0.0625 -0.890625 -0.6875 -1.4375q-0.609375 -0.546875 -1.53125 -0.546875q-0.9375 0 -1.53125 0.5625q-0.59375 0.5625 -0.6875 1.421875l4.4375 0zm7.2543945 5.578125q-1.171875 0 -2.25 -0.359375q-1.078125 -0.375 -1.78125 -1.03125l1.03125 -1.65625q0.53125 0.5 1.421875 0.859375q0.90625 0.359375 1.6875 0.359375q1.515625 0 1.515625 -0.96875q0 -0.375 -0.40625 -0.5625q-0.390625 -0.1875 -0.96875 -0.3125l-1.296875 -0.265625q-2.6875 -0.578125 -2.6875 -2.6875q0 -1.25 1.03125 -2.03125q1.046875 -0.796875 2.671875 -0.796875q2.109375 0 3.625 1.234375l-0.9375 1.625q-0.421875 -0.4375 -1.125 -0.734375q-0.703125 -0.3125 -1.546875 -0.3125q-0.65625 0 -1.046875 0.265625q-0.375 0.25 -0.375 0.625q0 0.34375 0.390625 0.515625q0.390625 0.15625 0.984375 0.28125q0.609375 0.125 1.296875 0.28125q0.6875 0.15625 1.28125 0.46875q0.59375 0.3125 0.984375 0.859375q0.40625 0.546875 0.40625 1.453125q0 1.3125 -1.078125 2.109375q-1.0625 0.78125 -2.828125 0.78125z" fill-rule="nonzero"/></g></svg>