<svg version="1.1" viewBox="0.0 0.0 936.6614173228346 408.7244094488189" fill="none" stroke="none" stroke-linecap="square" stroke-miterlimit="10" xmlns:xlink="http://www.w3.org/1999/xlink" xmlns="http://www.w3.org/2000/svg"><clipPath id="p.0"><path d="m0 0l936.66144 0l0 408.7244l-936.66144 0l0 -408.7244z" clip-rule="nonzero"/></clipPath><g clip-path="url(#p.0)"><path fill="#000000" fill-opacity="0.0" d="m0 0l936.66144 0l0 408.7244l-936.66144 0z" fill-rule="evenodd"/><path fill="#47529e" d="m29.376263 158.55092l0 0c0 -4.950119 4.012863 -8.962982 8.962982 -8.962982l209.39294 0c2.3771362 0 4.656906 0.9443207 6.337784 2.6251984c1.6808777 1.680893 2.625183 3.9606628 2.625183 6.337784l0 35.85086c0 4.950119 -4.012848 8.962982 -8.962967 8.962982l-209.39294 0c-4.950119 0 -8.962982 -4.012863 -8.962982 -8.962982z" fill-rule="evenodd"/><path fill="#ffffff" d="m117.248955 185.29759q-2.203125 0 -3.515625 -1.578125q-1.3125 -1.578125 -1.3125 -4.515625q0 -1.40625 0.421875 -2.546875q0.421875 -1.140625 1.109375 -1.9375q0.703125 -0.796875 1.609375 -1.21875q0.921875 -0.4375 1.921875 -0.4375q1.015625 0 1.75 0.359375q0.75 0.359375 1.515625 0.984375l-0.09375 -1.984375l0 -4.5l2.0 0l0 17.09375l-1.640625 0l-0.171875 -1.375l-0.0625 0q-0.703125 0.671875 -1.609375 1.171875q-0.890625 0.484375 -1.921875 0.484375zm0.4375 -1.65625q0.8125 0 1.53125 -0.390625q0.71875 -0.390625 1.4375 -1.203125l0 -6.109375q-0.75 -0.671875 -1.4375 -0.9375q-0.671875 -0.28125 -1.390625 -0.28125q-0.703125 0 -1.3125 0.328125q-0.609375 0.328125 -1.0625 0.921875q-0.453125 0.578125 -0.71875 1.390625q-0.265625 0.8125 -0.265625 1.828125q0 2.109375 0.828125 3.28125q0.84375 1.171875 2.390625 1.171875zm13.632454 1.65625q-1.1875 0 -2.203125 -0.40625q-1.015625 -0.421875 -1.7812424 -1.203125q-0.75 -0.78125 -1.1875 -1.90625q-0.421875 -1.140625 -0.421875 -2.578125q0 -1.4375 0.4375 -2.578125q0.4375 -1.140625 1.171875 -1.921875q0.7343674 -0.796875 1.6718674 -1.21875q0.9375 -0.421875 1.953125 -0.421875q1.09375 0 1.96875 0.390625q0.875 0.375 1.46875 1.09375q0.59375 0.71875 0.890625 1.734375q0.3125 1.0 0.3125 2.25q0 0.3125 -0.015625 0.625q0 0.296875 -0.046875 0.5l-7.8749924 0q0.125 1.875 1.1562424 2.96875q1.046875 1.09375 2.734375 1.09375q0.84375 0 1.546875 -0.25q0.703125 -0.25 1.359375 -0.65625l0.6875 1.296875q-0.765625 0.46875 -1.703125 0.828125q-0.9375 0.359375 -2.125 0.359375zm-3.6718674 -7.046875l6.2343674 0q0 -1.78125 -0.765625 -2.703125q-0.75 -0.921875 -2.109375 -0.921875q-0.625 0 -1.203125 0.25q-0.5625 0.234375 -1.015625 0.703125q-0.453125 0.46875 -0.75 1.140625q-0.29686737 0.671875 -0.39061737 1.53125zm14.273323 7.046875q-0.9375 0 -1.578125 -0.28125q-0.625 -0.28125 -1.03125 -0.78125q-0.390625 -0.515625 -0.5625 -1.234375q-0.171875 -0.71875 -0.171875 -1.578125l0 -6.46875l-1.71875 0l0 -1.484375l1.828125 -0.109375l0.234375 -3.265625l1.65625 0l0 3.265625l3.140625 0l0 1.59375l-3.140625 0l0 6.484375q0 1.078125 0.390625 1.671875q0.40625 0.59375 1.40625 0.59375q0.3125 0 0.671875 -0.09375q0.359375 -0.109375 0.65625 -0.21875l0.375 1.484375q-0.484375 0.171875 -1.046875 0.296875q-0.5625 0.125 -1.109375 0.125zm8.83847 0q-1.1875 0 -2.203125 -0.40625q-1.015625 -0.421875 -1.78125 -1.203125q-0.75 -0.78125 -1.1875 -1.90625q-0.421875 -1.140625 -0.421875 -2.578125q0 -1.4375 0.4375 -2.578125q0.4375 -1.140625 1.171875 -1.921875q0.734375 -0.796875 1.671875 -1.21875q0.9375 -0.421875 1.953125 -0.421875q1.09375 0 1.96875 0.390625q0.875 0.375 1.46875 1.09375q0.59375 0.71875 0.890625 1.734375q0.3125 1.0 0.3125 2.25q0 0.3125 -0.015625 0.625q0 0.296875 -0.046875 0.5l-7.875 0q0.125 1.875 1.15625 2.96875q1.046875 1.09375 2.734375 1.09375q0.84375 0 1.546875 -0.25q0.703125 -0.25 1.359375 -0.65625l0.6875 1.296875q-0.765625 0.46875 -1.703125 0.828125q-0.9375 0.359375 -2.125 0.359375zm-3.671875 -7.046875l6.234375 0q0 -1.78125 -0.765625 -2.703125q-0.75 -0.921875 -2.109375 -0.921875q-0.625 0 -1.203125 0.25q-0.5625 0.234375 -1.015625 0.703125q-0.453125 0.46875 -0.75 1.140625q-0.296875 0.671875 -0.390625 1.53125zm15.450851 7.046875q-1.15625 0 -2.171875 -0.40625q-1.0000153 -0.40625 -1.7343903 -1.1875q-0.734375 -0.78125 -1.15625 -1.921875q-0.40625 -1.140625 -0.40625 -2.578125q0 -1.453125 0.453125 -2.59375q0.453125 -1.140625 1.21875 -1.9375q0.765625 -0.796875 1.7812653 -1.203125q1.03125 -0.40625 2.15625 -0.40625q1.15625 0 1.96875 0.40625q0.8125 0.40625 1.4375 0.96875l-1.0 1.296875q-0.515625 -0.46875 -1.078125 -0.75q-0.5625 -0.28125 -1.25 -0.28125q-0.796875 0 -1.46875 0.328125q-0.671875 0.3125 -1.15625 0.921875q-0.46876526 0.59375 -0.75001526 1.421875q-0.28125 0.828125 -0.28125 1.828125q0 1.015625 0.265625 1.828125q0.265625 0.8125 0.73439026 1.40625q0.46875 0.59375 1.140625 0.921875q0.671875 0.3125 1.46875 0.3125q0.8125 0 1.484375 -0.34375q0.6875 -0.359375 1.25 -0.828125l0.859375 1.3125q-0.796875 0.703125 -1.765625 1.09375q-0.953125 0.390625 -2.0 0.390625zm9.766449 0q-0.9375 0 -1.578125 -0.28125q-0.625 -0.28125 -1.03125 -0.78125q-0.390625 -0.515625 -0.5625 -1.234375q-0.171875 -0.71875 -0.171875 -1.578125l0 -6.46875l-1.71875 0l0 -1.484375l1.828125 -0.109375l0.234375 -3.265625l1.65625 0l0 3.265625l3.140625 0l0 1.59375l-3.140625 0l0 6.484375q0 1.078125 0.390625 1.671875q0.40625 0.59375 1.40625 0.59375q0.3125 0 0.671875 -0.09375q0.359375 -0.109375 0.65625 -0.21875l0.375 1.484375q-0.484375 0.171875 -1.046875 0.296875q-0.5625 0.125 -1.109375 0.125z" fill-rule="nonzero"/><path fill="#f0197b" d="m29.376263 241.37784l0 0c0 -4.950119 4.012863 -8.962982 8.962982 -8.962982l209.39294 0c2.3771362 0 4.656906 0.9443054 6.337784 2.6251984c1.6808777 1.6808777 2.625183 3.9606476 2.625183 6.337784l0 35.85086c0 4.9501038 -4.012848 8.962982 -8.962967 8.962982l-209.39294 0c-4.950119 0 -8.962982 -4.0128784 -8.962982 -8.962982z" fill-rule="evenodd"/><path fill="#ffffff" d="m124.3248 268.1245q-0.8125 0 -1.6875 -0.390625q-0.875 -0.390625 -1.640625 -1.09375l-0.078125 0l-0.171875 1.203125l-1.578125 0l0 -17.09375l1.96875 0l0 4.65625l-0.046875 2.125q0.796875 -0.703125 1.71875 -1.171875q0.9375 -0.46875 1.921875 -0.46875q1.125 0 1.984375 0.421875q0.875 0.421875 1.453125 1.203125q0.59375 0.78125 0.890625 1.875q0.3125 1.078125 0.3125 2.421875q0 1.5 -0.40625 2.671875q-0.40625 1.171875 -1.109375 2.0q-0.703125 0.8125 -1.609375 1.234375q-0.90625 0.40625 -1.921875 0.40625zm-0.328125 -1.65625q0.71875 0 1.328125 -0.3125q0.609375 -0.328125 1.046875 -0.90625q0.453125 -0.59375 0.703125 -1.453125q0.25 -0.875 0.25 -1.953125q0 -0.953125 -0.171875 -1.75q-0.15625 -0.796875 -0.53125 -1.359375q-0.375 -0.5625 -0.96875 -0.875q-0.578125 -0.3125 -1.390625 -0.3125q-1.421875 0 -3.125 1.578125l0 6.125q0.765625 0.671875 1.515625 0.953125q0.765625 0.265625 1.34375 0.265625zm11.850082 1.65625q-1.875 0 -2.734375 -1.140625q-0.84375 -1.15625 -0.84375 -3.40625l0 -7.390625l2.0 0l0 7.125q0 1.65625 0.515625 2.390625q0.515625 0.71875 1.65625 0.71875q0.921875 0 1.609375 -0.46875q0.703125 -0.46875 1.546875 -1.5l0 -8.265625l1.96875 0l0 11.65625l-1.640625 0l-0.171875 -1.828125l-0.0625 0q-0.8125 0.96875 -1.71875 1.546875q-0.90625 0.5625 -2.125 0.5625zm9.649719 -0.28125l0 -11.65625l1.96875 0l0 11.65625l-1.96875 0zm1.0 -14.0625q-0.5625 0 -0.96875 -0.359375q-0.390625 -0.359375 -0.390625 -0.921875q0 -0.5625 0.390625 -0.90625q0.40625 -0.359375 0.96875 -0.359375q0.578125 0 0.96875 0.359375q0.40625 0.34375 0.40625 0.90625q0 0.5625 -0.40625 0.921875q-0.390625 0.359375 -0.96875 0.359375zm6.9977264 14.34375q-1.140625 0 -1.625 -0.671875q-0.46875 -0.671875 -0.46875 -1.96875l0 -14.734375l1.96875 0l0 14.890625q0 0.46875 0.15625 0.671875q0.171875 0.1875 0.390625 0.1875q0.09375 0 0.171875 0q0.09375 0 0.265625 -0.046875l0.265625 1.484375q-0.203125 0.09375 -0.46875 0.140625q-0.25 0.046875 -0.65625 0.046875zm8.010605 0q-2.203125 0 -3.515625 -1.578125q-1.3125 -1.578125 -1.3125 -4.515625q0 -1.40625 0.421875 -2.546875q0.421875 -1.140625 1.109375 -1.9375q0.703125 -0.796875 1.609375 -1.21875q0.921875 -0.4375 1.921875 -0.4375q1.015625 0 1.75 0.359375q0.75 0.359375 1.515625 0.984375l-0.09375 -1.984375l0 -4.5l2.0 0l0 17.09375l-1.640625 0l-0.171875 -1.375l-0.0625 0q-0.703125 0.671875 -1.609375 1.171875q-0.890625 0.484375 -1.921875 0.484375zm0.4375 -1.65625q0.8125 0 1.53125 -0.390625q0.71875 -0.390625 1.4375 -1.203125l0 -6.109375q-0.75 -0.671875 -1.4375 -0.9375q-0.671875 -0.28125 -1.390625 -0.28125q-0.703125 0 -1.3125 0.328125q-0.609375 0.328125 -1.0625 0.921875q-0.453125 0.578125 -0.71875 1.390625q-0.265625 0.8125 -0.265625 1.828125q0 2.109375 0.828125 3.28125q0.84375 1.171875 2.390625 1.171875z" fill-rule="nonzero"/><path fill="#000000" fill-opacity="0.0" d="m143.03572 203.36476l0 29.050095" fill-rule="evenodd"/><path stroke="#47529e" stroke-width="3.0" stroke-linejoin="round" stroke-linecap="butt" d="m143.03572 203.36475l0 18.76886" fill-rule="evenodd"/><path fill="#47529e" stroke="#47529e" stroke-width="3.0" stroke-linecap="butt" d="m143.03572 222.1336l-3.3737488 -3.3737488l3.3737488 9.269302l3.3737488 -9.269302z" fill-rule="evenodd"/><path fill="#6570b2" d="m529.387 146.38412l11.794495 0l10.656738 10.656754l-10.656738 10.656769l-11.794495 0l10.656738 -10.656769z" fill-rule="evenodd"/><path fill="#f3f3f3" d="m518.54425 205.29953l-72.20807 0l0 -72.19145l24.326172 -24.326172l47.881897 0z" fill-rule="evenodd"/><path fill="#c2c2c2" d="m470.66235 108.781906l-4.8652344 19.460938l-19.460938 4.8652344z" fill-rule="evenodd"/><path fill="#000000" fill-opacity="0.0" d="m470.66235 108.781906l-4.8652344 19.460938l-19.460938 4.8652344l24.326172 -24.326172l47.881897 0l0 96.517624l-72.20807 0l0 -72.19145" fill-rule="evenodd"/><path stroke="#cccccc" stroke-width="1.0" stroke-linejoin="round" stroke-linecap="butt" d="m470.66235 108.781906l-4.8652344 19.460938l-19.460938 4.8652344l24.326172 -24.326172l47.881897 0l0 96.517624l-72.20807 0l0 -72.19145" fill-rule="evenodd"/><path fill="#666666" d="m488.6867 164.08069l9.15625 4.46875l0 1.390625l-9.15625 4.46875l0 -2.28125l6.015625 -2.875l-6.015625 -2.890625l0 -2.28125zm-10.836212 12.265625l6.015625 -14.0625l2.4375 0l-6.03125 14.0625l-2.421875 0zm-2.3986816 -9.984375l-6.0 2.890625l6.0 2.875l0 2.28125l-9.15625 -4.46875l0 -1.390625l9.15625 -4.46875l0 2.28125z" fill-rule="nonzero"/><path fill="#000000" fill-opacity="0.0" d="m403.0423 235.9235l0 0c0 -16.913147 13.710815 -30.623962 30.623962 -30.623962l280.29932 0c8.122009 0 15.911316 3.2264404 21.654419 8.969543c5.743103 5.7431183 8.969543 13.53244 8.969543 21.654419l0 0l0 0c0 16.913147 -13.710815 30.623962 -30.623962 30.623962l-280.29932 0c-16.913147 0 -30.623962 -13.710815 -30.623962 -30.623962z" fill-rule="evenodd"/><path stroke="#434343" stroke-width="4.0" stroke-linejoin="round" stroke-linecap="butt" d="m403.0423 235.9235l0 0c0 -16.913147 13.710815 -30.623962 30.623962 -30.623962l280.29932 0c8.122009 0 15.911316 3.2264404 21.654419 8.969543c5.743103 5.7431183 8.969543 13.53244 8.969543 21.654419l0 0l0 0c0 16.913147 -13.710815 30.623962 -30.623962 30.623962l-280.29932 0c-16.913147 0 -30.623962 -13.710815 -30.623962 -30.623962z" fill-rule="evenodd"/><path fill="#666666" d="m403.0423 235.9235l0 0c0 -16.913147 13.710815 -30.623962 30.623962 -30.623962l0 0c8.121979 0 15.911316 3.2264404 21.654419 8.969543c5.743103 5.7431183 8.969543 13.53244 8.969543 21.654419l0 0c0 16.913147 -13.710815 30.623962 -30.623962 30.623962l0 0c-16.913147 0 -30.623962 -13.710815 -30.623962 -30.623962z" fill-rule="evenodd"/><path fill="#000000" fill-opacity="0.0" d="m412.01187 214.26907l43.308807 43.308838m0 -43.308838l-43.308807 43.308838" fill-rule="evenodd"/><path fill="#000000" fill-opacity="0.0" d="m403.0423 235.9235l0 0c0 -16.913147 13.710815 -30.623962 30.623962 -30.623962l0 0c8.121979 0 15.911316 3.2264404 21.654419 8.969543c5.743103 5.7431183 8.969543 13.53244 8.969543 21.654419l0 0c0 16.913147 -13.710815 30.623962 -30.623962 30.623962l0 0c-16.913147 0 -30.623962 -13.710815 -30.623962 -30.623962z" fill-rule="evenodd"/><path stroke="#cccccc" stroke-width="4.0" stroke-linejoin="round" stroke-linecap="butt" d="m412.01187 214.26907l43.308807 43.308838m0 -43.308838l-43.308807 43.308838" fill-rule="evenodd"/><path stroke="#cccccc" stroke-width="4.0" stroke-linejoin="round" stroke-linecap="butt" d="m403.0423 235.9235l0 0c0 -16.913147 13.710815 -30.623962 30.623962 -30.623962l0 0c8.121979 0 15.911316 3.2264404 21.654419 8.969543c5.743103 5.7431183 8.969543 13.53244 8.969543 21.654419l0 0c0 16.913147 -13.710815 30.623962 -30.623962 30.623962l0 0c-16.913147 0 -30.623962 -13.710815 -30.623962 -30.623962z" fill-rule="evenodd"/><path fill="#6a717c" d="m700.8116 353.37958l41.29474 -71.655l165.17883 0l-41.29474 71.655z" fill-rule="evenodd"/><path fill="#616baf" d="m740.342 337.86588l25.482056 -44.216705l101.92816 0l-25.481995 44.216705z" fill-rule="evenodd"/><path fill="#47529e" d="m740.342 314.51288l25.482056 -44.216705l101.92816 0l-25.481995 44.216705z" fill-rule="evenodd"/><path fill="#40457a" d="m740.342 291.15985l25.482056 -44.21669l101.92816 0l-25.481995 44.21669z" fill-rule="evenodd"/><path fill="#00b5a3" d="m700.81354 200.26222l38.196716 -33.84468l96.65967 32.346024l-38.196716 33.844696z" fill-rule="evenodd"/><path fill="#9dc7c3" d="m615.93097 310.69937l0 -255.35454l52.11133 0l0 255.35454z" fill-rule="evenodd"/><path fill="#556d6b" d="m647.8466 196.83592l-8.515625 6.21875l8.515625 0l0 1.328125l-10.671875 0l0 -1.359375l8.328125 -6.140625l-8.328125 0l0 -1.328125l10.671875 0l0 1.28125zm0.1875 -7.109268q0 1.6875 -1.140625 2.765625q-1.140625 1.0625 -2.921875 1.0625q-1.78125 0 -2.90625 -1.0625q-1.140625 -1.078125 -1.140625 -2.765625q0 -1.671875 1.140625 -2.75q1.125 -1.078125 2.90625 -1.078125q1.78125 0 2.921875 1.078125q1.140625 1.078125 1.140625 2.75zm-1.0625 0q0 -1.125 -0.84375 -1.84375q-0.84375 -0.71875 -2.15625 -0.71875q-1.296875 0 -2.125 0.71875q-0.84375 0.71875 -0.84375 1.84375q0 1.125 0.828125 1.859375q0.828125 0.71875 2.140625 0.71875q1.328125 0 2.171875 -0.71875q0.828125 -0.71875 0.828125 -1.859375zm0.875 -11.370773l-1.15625 0q0.59375 0.421875 0.96875 1.109375q0.375 0.671875 0.375 1.5q0 1.546875 -1.09375 2.5q-1.109375 0.9375 -2.953125 0.9375q-1.859375 0 -2.953125 -0.953125q-1.109375 -0.953125 -1.109375 -2.484375q0 -0.78125 0.359375 -1.46875q0.359375 -0.6875 1.0 -1.140625l-4.109375 0l0 -1.203125l10.671875 0l0 1.203125zm-0.875 2.3125q0 -0.71875 -0.34375 -1.359375q-0.359375 -0.640625 -0.875 -0.953125l-3.5 0q-0.515625 0.3125 -0.875 0.953125q-0.375 0.640625 -0.375 1.359375q0 1.125 0.8125 1.8125q0.8125 0.671875 2.171875 0.671875q1.328125 0 2.15625 -0.671875q0.828125 -0.671875 0.828125 -1.8125zm1.0625 -9.403137q0 1.75 -1.125 2.84375q-1.140625 1.09375 -2.9375 1.09375q-1.703125 0 -2.875 -1.078125q-1.171875 -1.09375 -1.171875 -2.734375q0 -1.65625 1.15625 -2.671875q1.15625 -1.03125 2.984375 -1.03125l0.3125 0l0 6.25q1.1875 -0.0625 1.9375 -0.84375q0.734375 -0.796875 0.734375 -1.9375q0 -1.40625 -0.984375 -2.390625l0.796875 -0.578125q1.171875 1.1875 1.171875 3.078125zm-4.546875 -2.40625q-1.0625 0 -1.8125 0.703125q-0.75 0.703125 -0.75 1.84375q0 1.078125 0.75 1.796875q0.75 0.703125 1.8125 0.734375l0 -5.078125zm4.546875 -12.339142q0 2.34375 -1.546875 3.921875q-1.546875 1.5625 -3.96875 1.5625q-2.421875 0 -3.96875 -1.5625q-1.546875 -1.578125 -1.546875 -3.921875q0 -2.546875 2.109375 -4.0625l0.625 1.125q-0.671875 0.46875 -1.109375 1.25q-0.4375 0.765625 -0.4375 1.6875q0 1.765625 1.234375 2.9375q1.21875 1.171875 3.09375 1.171875q1.890625 0 3.125 -1.15625q1.21875 -1.171875 1.21875 -2.953125q0 -0.921875 -0.4375 -1.6875q-0.4375 -0.78125 -1.125 -1.25l0.625 -1.140625q2.109375 1.5625 2.109375 4.078125zm-0.1875 -13.316025l-8.515625 6.21875l8.515625 0l0 1.328125l-10.671875 0l0 -1.359375l8.328125 -6.140625l-8.328125 0l0 -1.328125l10.671875 0l0 1.28125zm0 -3.7811432l-10.671875 0l0 -4.75q0 -1.359375 0.75 -2.171875q0.734375 -0.8125 1.96875 -0.8125q0.9375 0 1.59375 0.515625q0.65625 0.515625 0.859375 1.34375q0.125 -0.84375 0.890625 -1.453125q0.765625 -0.625 1.734375 -0.625q1.3125 0 2.09375 0.828125q0.78125 0.828125 0.78125 2.265625l0 4.859375zm-6.046875 -4.53125q0 -0.90625 -0.484375 -1.359375q-0.5 -0.46875 -1.234375 -0.46875q-0.71875 0 -1.21875 0.46875q-0.5 0.453125 -0.5 1.359375l0 3.203125l3.4375 0l0 -3.203125zm4.859375 -0.0625q0 -0.9375 -0.484375 -1.453125q-0.484375 -0.53125 -1.359375 -0.53125q-0.8125 0 -1.3125 0.546875q-0.515625 0.546875 -0.515625 1.4375l0 3.265625l3.671875 0l0 -3.265625z" fill-rule="nonzero"/><path fill="#2f3848" d="m646.75287 119.6964l0 0.09375l1.09375 0.28125l0 1.046875l-12.15625 0l0 -1.421875l2.9375 0q0.625 0 1.765625 0.0625l0 -0.0625q-1.28125 -0.84375 -1.28125 -2.515625q0 -1.578125 1.171875 -2.46875q1.15625 -0.890625 3.25 -0.890625q2.109375 0 3.296875 0.90625q1.171875 0.890625 1.171875 2.453125q0 1.609375 -1.25 2.515625zm-3.21875 0q1.78125 0 2.53125 -0.546875q0.75 -0.546875 0.75 -1.734375q0 -2.125 -3.296875 -2.125q-3.234375 0 -3.234375 2.140625q0 1.21875 0.734375 1.75q0.734375 0.515625 2.515625 0.515625zm4.3125 -14.1484375l-1.15625 0.203125l0 0.078125q1.3125 0.828125 1.3125 2.609375q0 3.0625 -3.140625 3.0625l-5.59375 0l0 -1.421875l5.515625 0q2.03125 0 2.03125 -1.84375q0 -1.265625 -0.71875 -1.84375q-0.71875 -0.578125 -2.375 -0.578125l-4.453125 0l0 -1.421875l8.578125 0l0 1.15625zm-12.109375 -7.3515625q0 -0.828125 0.890625 -0.828125q0.453125 0 0.671875 0.25q0.21875 0.25 0.21875 0.578125q0 0.84375 -0.890625 0.84375q-0.890625 0 -0.890625 -0.84375zm4.65625 0.71875l-0.171875 2.109375l-0.953125 0l0 -3.53125l7.453125 0l0.15625 -2.75l0.96875 0l0 6.859375l-0.96875 0l-0.15625 -2.6875l-6.328125 0zm-3.59375 -9.5234375l-0.15625 2.09375l-0.953125 0l0 -3.53125l11.03125 0l0.15625 -2.75l0.96875 0l0 6.875l-0.96875 0l-0.15625 -2.6875l-9.921875 0zm9.890625 -12.4609375l0 0.0625q1.3125 0.890625 1.3125 2.515625q0 1.578125 -1.171875 2.46875q-1.171875 0.890625 -3.265625 0.890625q-2.109375 0 -3.28125 -0.890625q-1.171875 -0.90625 -1.171875 -2.46875q0 -1.609375 1.25 -2.515625l0 -0.09375q-1.015625 0.09375 -1.265625 0.09375l-3.40625 0l0 -1.421875l12.15625 0l0 1.15625l-1.15625 0.203125zm-2.796875 0.0625l-0.328125 0q-1.765625 0 -2.515625 0.546875q-0.765625 0.546875 -0.765625 1.734375q0 2.125 3.296875 2.125q3.234375 0 3.234375 -2.140625q0 -1.1875 -0.6875 -1.703125q-0.6875 -0.53125 -2.234375 -0.5625z" fill-rule="nonzero"/><path fill="#a9dbd6" d="m562.6788 310.53976l0 -255.03534l53.252197 0l0 255.03534z" fill-rule="evenodd"/><path fill="#556d6b" d="m595.16486 214.59042l-10.671875 0l0 -4.28125q0 -1.53125 0.921875 -2.4375q0.90625 -0.90625 2.296875 -0.90625q1.40625 0 2.3125 0.921875q0.90625 0.921875 0.90625 2.421875l0 2.953125l4.234375 0l0 1.328125zm-5.421875 -4.125q0 -0.96875 -0.5625 -1.546875q-0.5625 -0.578125 -1.46875 -0.578125q-0.921875 0 -1.46875 0.578125q-0.5625 0.578125 -0.5625 1.546875l0 2.796875l4.0625 0l0 -2.796875zm7.359375 -4.9701385q0.125 -0.265625 0.125 -0.65625q0 -0.40625 -0.171875 -0.671875q-0.15625 -0.28125 -0.640625 -0.484375l-1.171875 -0.515625l-7.8125 3.234375l0 -1.296875l6.34375 -2.578125l-6.34375 -2.5625l0 -1.3125l9.296875 3.875q1.546875 0.640625 1.578125 2.28125q0 0.453125 -0.109375 0.875l-1.09375 -0.1875zm-1.75 -10.043137q0 1.71875 -1.796875 1.71875l-5.0625 0l0 1.28125l-1.0625 0l0 -1.28125l-2.109375 0l0 -1.203125l2.109375 0l0 -1.5625l1.0625 0l0 1.5625l4.796875 0q0.4375 0 0.71875 -0.1875q0.28125 -0.203125 0.28125 -0.59375q0 -0.5 -0.328125 -0.8125l0.90625 -0.359375q0.484375 0.5 0.484375 1.4375zm-0.1875 -7.98526l-5.09375 0q-0.859375 0 -1.296875 0.421875q-0.453125 0.40625 -0.453125 1.328125q0 0.65625 0.34375 1.28125q0.328125 0.609375 0.859375 1.0l5.640625 0l0 1.203125l-10.671875 0l0 -1.203125l4.0625 0q-0.59375 -0.5 -0.953125 -1.234375q-0.359375 -0.75 -0.359375 -1.53125q0 -2.453125 2.46875 -2.453125l5.453125 0l0 1.1875zm0.1875 -6.972641q0 1.6875 -1.140625 2.765625q-1.140625 1.0625 -2.921875 1.0625q-1.78125 0 -2.90625 -1.0625q-1.140625 -1.078125 -1.140625 -2.765625q0 -1.671875 1.140625 -2.75q1.125 -1.078125 2.90625 -1.078125q1.78125 0 2.921875 1.078125q1.140625 1.078125 1.140625 2.75zm-1.0625 0q0 -1.125 -0.84375 -1.84375q-0.84375 -0.71875 -2.15625 -0.71875q-1.296875 0 -2.125 0.71875q-0.84375 0.71875 -0.84375 1.84375q0 1.125 0.828125 1.859375q0.828125 0.71875 2.140625 0.71875q1.328125 0 2.171875 -0.71875q0.828125 -0.71875 0.828125 -1.859375zm0.875 -10.995773l-5.0625 0q-1.015625 0 -1.390625 0.484375q-0.390625 0.46875 -0.390625 1.25q0 0.671875 0.359375 1.328125q0.359375 0.640625 0.84375 0.953125l5.640625 0l0 1.203125l-7.734375 0l0 -1.203125l1.125 0q-0.578125 -0.484375 -0.9375 -1.21875q-0.375 -0.734375 -0.375 -1.53125q0 -2.453125 2.5 -2.453125l5.421875 0l0 1.1875zm0.1875 -12.819031q0 2.34375 -1.546875 3.921875q-1.546875 1.5625 -3.96875 1.5625q-2.421875 0 -3.96875 -1.5625q-1.546875 -1.578125 -1.546875 -3.921875q0 -2.546875 2.109375 -4.0625l0.625 1.125q-0.671875 0.46875 -1.109375 1.25q-0.4375 0.765625 -0.4375 1.6875q0 1.765625 1.234375 2.9375q1.21875 1.171875 3.09375 1.171875q1.890625 0 3.125 -1.15625q1.21875 -1.171875 1.21875 -2.953125q0 -0.921875 -0.4375 -1.6875q-0.4375 -0.78125 -1.125 -1.25l0.625 -1.140625q2.109375 1.5625 2.109375 4.078125zm-0.1875 -13.316025l-8.515625 6.21875l8.515625 0l0 1.328125l-10.671875 0l0 -1.359375l8.328125 -6.140625l-8.328125 0l0 -1.328125l10.671875 0l0 1.28125zm0 -3.7811432l-10.671875 0l0 -4.75q0 -1.359375 0.75 -2.171875q0.734375 -0.8125 1.96875 -0.8125q0.9375 0 1.59375 0.515625q0.65625 0.515625 0.859375 1.34375q0.125 -0.84375 0.890625 -1.453125q0.765625 -0.625 1.734375 -0.625q1.3125 0 2.09375 0.828125q0.78125 0.828125 0.78125 2.265625l0 4.859375zm-6.046875 -4.53125q0 -0.90625 -0.484375 -1.359375q-0.5 -0.46875 -1.234375 -0.46875q-0.71875 0 -1.21875 0.46875q-0.5 0.453125 -0.5 1.359375l0 3.203125l3.4375 0l0 -3.203125zm4.859375 -0.0625q0 -0.9375 -0.484375 -1.453125q-0.484375 -0.53125 -1.359375 -0.53125q-0.8125 0 -1.3125 0.546875q-0.515625 0.546875 -0.515625 1.4375l0 3.265625l3.671875 0l0 -3.265625z" fill-rule="nonzero"/><path fill="#2f3848" d="m594.0711 119.85599l0 0.09375l1.09375 0.28125l0 1.046875l-12.15625 0l0 -1.421875l2.9375 0q0.625 0 1.765625 0.0625l0 -0.0625q-1.28125 -0.84375 -1.28125 -2.515625q0 -1.578125 1.171875 -2.46875q1.15625 -0.890625 3.25 -0.890625q2.109375 0 3.296875 0.90625q1.171875 0.890625 1.171875 2.453125q0 1.609375 -1.25 2.515625zm-3.21875 0q1.78125 0 2.53125 -0.546875q0.75 -0.546875 0.75 -1.734375q0 -2.125 -3.296875 -2.125q-3.234375 0 -3.234375 2.140625q0 1.21875 0.734375 1.75q0.734375 0.515625 2.515625 0.515625zm4.3125 -14.1484375l-1.15625 0.203125l0 0.078125q1.3125 0.828125 1.3125 2.609375q0 3.0625 -3.140625 3.0625l-5.59375 0l0 -1.421875l5.515625 0q2.03125 0 2.03125 -1.84375q0 -1.265625 -0.71875 -1.84375q-0.71875 -0.578125 -2.375 -0.578125l-4.453125 0l0 -1.421875l8.578125 0l0 1.15625zm-12.109375 -7.3515625q0 -0.828125 0.890625 -0.828125q0.453125 0 0.671875 0.25q0.21875 0.25 0.21875 0.578125q0 0.84375 -0.890625 0.84375q-0.890625 0 -0.890625 -0.84375zm4.65625 0.71875l-0.171875 2.109375l-0.953125 0l0 -3.53125l7.453125 0l0.15625 -2.75l0.96875 0l0 6.859375l-0.96875 0l-0.15625 -2.6875l-6.328125 0zm-3.59375 -9.5234375l-0.15625 2.09375l-0.953125 0l0 -3.53125l11.03125 0l0.15625 -2.75l0.96875 0l0 6.875l-0.96875 0l-0.15625 -2.6875l-9.921875 0zm9.890625 -12.4609375l0 0.0625q1.3125 0.890625 1.3125 2.515625q0 1.578125 -1.171875 2.46875q-1.171875 0.890625 -3.265625 0.890625q-2.109375 0 -3.28125 -0.890625q-1.171875 -0.90625 -1.171875 -2.46875q0 -1.609375 1.25 -2.515625l0 -0.09375q-1.015625 0.09375 -1.265625 0.09375l-3.40625 0l0 -1.421875l12.15625 0l0 1.15625l-1.15625 0.203125zm-2.796875 0.0625l-0.328125 0q-1.765625 0 -2.515625 0.546875q-0.765625 0.546875 -0.765625 1.734375q0 2.125 3.296875 2.125q3.234375 0 3.234375 -2.140625q0 -1.1875 -0.6875 -1.703125q-0.6875 -0.53125 -2.234375 -0.5625z" fill-rule="nonzero"/><path fill="#6570b2" d="m691.517 146.38412l11.794495 0l10.656738 10.656754l-10.656738 10.656769l-11.794495 0l10.656738 -10.656769z" fill-rule="evenodd"/><path fill="#666666" d="m683.33215 235.9223l0 0c0 -16.913147 13.710815 -30.623962 30.623962 -30.623962l0 0c8.122009 0 15.911316 3.2264404 21.654419 8.969559c5.743103 5.743103 8.969543 13.532425 8.969543 21.654404l0 0c0 16.913147 -13.710815 30.623962 -30.623962 30.623962l0 0c-16.913147 0 -30.623962 -13.710815 -30.623962 -30.623962z" fill-rule="evenodd"/><path fill="#000000" fill-opacity="0.0" d="m692.3017 214.2679l43.308838 43.308823m0 -43.308823l-43.308838 43.308823" fill-rule="evenodd"/><path fill="#000000" fill-opacity="0.0" d="m683.33215 235.9223l0 0c0 -16.913147 13.710815 -30.623962 30.623962 -30.623962l0 0c8.122009 0 15.911316 3.2264404 21.654419 8.969559c5.743103 5.743103 8.969543 13.532425 8.969543 21.654404l0 0c0 16.913147 -13.710815 30.623962 -30.623962 30.623962l0 0c-16.913147 0 -30.623962 -13.710815 -30.623962 -30.623962z" fill-rule="evenodd"/><path stroke="#cccccc" stroke-width="4.0" stroke-linejoin="round" stroke-linecap="butt" d="m692.3017 214.2679l43.308838 43.308823m0 -43.308823l-43.308838 43.308823" fill-rule="evenodd"/><path stroke="#cccccc" stroke-width="4.0" stroke-linejoin="round" stroke-linecap="butt" d="m683.33215 235.9223l0 0c0 -16.913147 13.710815 -30.623962 30.623962 -30.623962l0 0c8.122009 0 15.911316 3.2264404 21.654419 8.969559c5.743103 5.743103 8.969543 13.532425 8.969543 21.654404l0 0c0 16.913147 -13.710815 30.623962 -30.623962 30.623962l0 0c-16.913147 0 -30.623962 -13.710815 -30.623962 -30.623962z" fill-rule="evenodd"/><path fill="#6a717c" d="m548.7511 298.98862l133.2157 0c0.9421387 0 1.8457031 0.37426758 2.5118408 1.0404663c0.66619873 0.6661682 1.0404663 1.5697327 1.0404663 2.5118713l0 17.7612c0 6.4086914E-4 -4.8828125E-4 0.001159668 -0.001159668 0.001159668l-140.31915 -0.001159668l0 0c-6.1035156E-4 0 -0.001159668 -5.493164E-4 -0.001159668 -0.0011901855l0.001159668 -17.76001l0 0c0 -1.9619141 1.5904541 -3.5523376 3.5523071 -3.5523376z" fill-rule="evenodd"/></g></svg>