<svg xmlns="http://www.w3.org/2000/svg" width="300" height="300" viewBox="0 0 300 300">
  <defs>
    <linearGradient id="a" x1="50%" x2="50%" y1="0%" y2="100%">
      <stop offset="0%" stop-color="#F12FA5"/>
      <stop offset="100%" stop-color="#DE156C"/>
    </linearGradient>
    <linearGradient id="b" x1="50%" x2="50%" y1="0%" y2="100%">
      <stop offset="0%" stop-color="#7E8BCC"/>
      <stop offset="100%" stop-color="#47529D"/>
    </linearGradient>
    <linearGradient id="c" x1="50%" x2="50%" y1="0%" y2="100%">
      <stop offset="0%" stop-color="#4B5399"/>
      <stop offset="100%" stop-color="#252960"/>
    </linearGradient>
  </defs>
  <g fill="none" fill-rule="evenodd" transform="translate(88 98)">
    <g transform="translate(64 54)">
      <path fill="#DE156C" d="M27.9980217,14.1759296 L6.00104499,1.4671193 C4.08820782,0.361972668 1.64164856,1.01673522 0.536501922,2.92957239 C0.185040439,3.53789762 8.02140138e-16,4.2280615 8.8817842e-16,4.93061738 L6.21724894e-15,30.3575366 C6.39219706e-15,31.7860964 0.761864077,33.1062197 1.99878189,33.8209347 L27.9978486,48.8436962 C29.2360361,49.5591448 30.7619766,49.5591668 32.0001848,48.843754 L58.0011181,33.8209155 C59.2380923,33.1062156 60,31.7860607 60,30.3574596 L60,4.93038624 C60,2.72124724 58.209139,0.93038624 56,0.93038624 C55.2974833,0.93038624 54.6073565,1.11540606 53.999055,1.46683038 L32.0000116,14.1759874 C30.7618914,14.8912669 29.2361213,14.8912449 27.9980217,14.1759296 Z"/>
      <path fill="url(#a)" d="M30,17.6406351 L30,43.0690981 C30,45.2782371 31.790861,47.0690981 34,47.0690981 C34.7026041,47.0690981 35.3928136,46.8840323 36.0011681,46.5325251 L58.0011681,33.8209251 C59.2381141,33.1062177 60,31.7860786 60,30.3574981 L60,4.93050181 C60,2.72136281 58.209139,0.930501806 56,0.930501806 C55.2974637,0.930501806 54.6073184,1.11553193 53.999005,1.46697483 L31.999005,14.1771082 C30.7619614,14.8917895 30,16.2119833 30,17.6406351 Z"/>
    </g>
    <g transform="translate(32)">
      <path fill="#47529D" d="M53.9987319,3.4677639 L32.0031347,16.1776673 C30.7649575,16.8931338 29.239017,16.8931778 28.0007985,16.1777829 L6.00106808,3.46718599 C4.08823828,2.36202661 1.64167464,3.01677285 0.53651526,4.92960265 C0.185045199,5.53793338 -1.28621931e-15,6.22810581 -8.8817842e-16,6.93067073 L-3.55271368e-15,32.3592879 C-3.37774923e-15,33.787981 0.762005094,35.1082064 1.99910503,35.8228726 L28.0009716,50.8440163 C29.2391022,51.5592779 30.7648723,51.5592338 32.0029616,50.8439007 L58.001095,35.822911 C59.2380822,35.1082147 60,33.7880525 60,32.3594419 L60,6.93113306 C60,4.72199406 58.209139,2.93113306 56,2.93113306 C55.2973567,2.93113306 54.6071101,3.11621951 53.9987319,3.4677639 Z"/>
      <path fill="url(#b)" d="M53.9988319,3.46747492 L31.9988319,16.1790749 C30.7618859,16.8937823 30,18.2139214 30,19.6425019 L30,45.0694982 C30,47.2786372 31.790861,49.0694982 34,49.0694982 C34.7025363,49.0694982 35.3926816,48.8844681 36.000995,48.5330252 L58.000995,35.8228918 C59.2380386,35.1082105 60,33.7880167 60,32.3593649 L60,6.93090188 C60,4.72176288 58.209139,2.93090188 56,2.93090188 C55.2973959,2.93090188 54.6071864,3.1159677 53.9988319,3.46747492 Z"/>
    </g>
    <g transform="translate(0 52)">
      <path fill="#252960" d="M27.999005,16.1759585 L6.00099498,3.46697483 C4.08814186,2.36185582 1.64159204,3.0166537 0.536473029,4.92950682 C0.185030128,5.53782018 8.02142537e-16,6.22796551 8.8817842e-16,6.93050181 L-1.77635684e-15,32.3574981 C9.3626245e-16,33.7860786 0.761885902,35.1062177 1.99883191,35.8209251 L27.9988319,50.8437251 C29.2370298,51.5591558 30.7629702,51.5591558 32.0011681,50.8437251 L58.0011681,35.8209251 C59.2381141,35.1062177 60,33.7860786 60,32.3574981 L60,6.93050181 C60,4.72136281 58.209139,2.93050181 56,2.93050181 C55.2974637,2.93050181 54.6073184,3.11553193 53.999005,3.46697483 L32.000995,16.1759585 C30.7628851,16.8912559 29.2371149,16.8912559 27.999005,16.1759585 Z"/>
      <path fill="url(#c)" d="M30,19.6406351 L30,45.0690981 C30,47.2782371 31.790861,49.0690981 34,49.0690981 C34.7026041,49.0690981 35.3928136,48.8840323 36.0011681,48.5325251 L58.0011681,35.8209251 C59.2381141,35.1062177 60,33.7860786 60,32.3574981 L60,6.93050181 C60,4.72136281 58.209139,2.93050181 56,2.93050181 C55.2974637,2.93050181 54.6073184,3.11553193 53.999005,3.46697483 L31.999005,16.1771082 C30.7619614,16.8917895 30,18.2119833 30,19.6406351 Z"/>
    </g>
  </g>
</svg>
