<?xml version="1.0" encoding="UTF-8"?>
<svg enable-background="new 0 0 512 512" viewBox="0 0 512 512" xmlns="http://www.w3.org/2000/svg">
  <path
    d="m256 166.498c45.901 0 83.245-37.344 83.245-83.245 0-33.877-20.238-64.103-51.559-77.002-3.83-1.576-8.214.249-9.791 4.079s.249 8.213 4.079 9.791c25.679 10.575 42.271 35.356 42.271 63.132 0 37.63-30.615 68.245-68.245 68.245s-68.245-30.615-68.245-68.245 30.615-68.245 68.245-68.245c4.142 0 7.5-3.358 7.5-7.5s-3.358-7.5-7.5-7.5c-45.901 0-83.245 37.344-83.245 83.245s37.344 83.245 83.245 83.245zm-26.639-80.462c-2.929-2.929-7.678-2.929-10.606 0-2.929 2.929-2.929 7.678 0 10.606l15.091 15.091c2.827 2.827 6.539 4.24 10.252 4.24s7.427-1.414 10.253-4.24l38.894-38.894c2.929-2.929 2.929-7.678 0-10.606-2.929-2.929-7.678-2.929-10.606 0l-38.54 38.541zm280.445 149.082c-2.927-2.93-7.676-2.933-10.607-.005l-28.343 28.314-116.14-118.47 132.316-132.142c2.931-2.927 2.934-7.676.007-10.606-2.927-2.931-7.676-2.935-10.606-.007l-162.485 162.27c-7.679 7.67-11.583 17.963-10.914 28.817h-10.022c-15.113 0-29.562 6.454-39.64 17.708l-1.449 1.619c-13.819-6.918-29.013-10.805-44.466-11.355 3.638-13.06-.147-27.357-9.872-36.821l-164.099-161.653c-2.952-2.908-7.701-2.871-10.606.08-2.907 2.951-2.872 7.699.08 10.606l140.128 138.039-101.024 103.048c-2.9 2.958-2.853 7.707.105 10.606 2.957 2.898 7.705 2.854 10.606-.105l100.998-103.023 13.303 13.105c4.323 4.23 6.721 9.889 6.752 15.933s-2.308 11.728-6.587 16.002l-85.34 85.254c-8.773 8.765-23.05 8.766-31.825 0l-57.276-57.219c-2.93-2.927-7.679-2.925-10.607.005-2.927 2.931-2.925 7.679.005 10.607l57.276 57.218c7.311 7.304 16.911 10.954 26.514 10.954 3.477 0 6.952-.486 10.321-1.444.188 5.086.74 10.154 1.644 15.178-3.399 1.561-6.583 3.736-9.379 6.53l-16.464 16.447c-6.141 6.134-9.522 14.289-9.522 22.965 0 8.677 3.381 16.832 9.522 22.966 7.074 7.057 16.591 10.217 25.975 9.354-.89 9.61 2.516 19.123 9.38 25.966 6.335 6.329 14.656 9.493 22.978 9.493 1 0 2-.048 2.996-.14-.89 9.61 2.524 19.116 9.381 25.966 7.068 7.06 16.591 10.215 25.974 9.354-.89 9.61 2.516 19.123 9.381 25.967 6.335 6.329 14.656 9.493 22.978 9.493 8.321 0 16.643-3.164 22.979-9.493l10.832-10.821 10.832 10.821c6.335 6.329 14.656 9.493 22.978 9.493s16.644-3.165 22.979-9.494c6.844-6.838 10.255-16.373 9.381-25.966 9.418.867 18.882-2.269 25.974-9.354 6.845-6.837 10.255-16.373 9.381-25.966 9.417.866 18.882-2.268 25.975-9.354 6.844-6.837 10.254-16.373 9.38-25.966 9.417.866 18.882-2.271 25.974-9.355 6.141-6.134 9.522-14.289 9.522-22.965 0-8.677-3.381-16.832-9.521-22.966l-9.081-9.072c6.411-4.891 12.273-10.45 17.481-16.618 3.335-3.95 6.397-8.156 9.158-12.55 3.465 1.017 7.049 1.527 10.633 1.527 9.602 0 19.204-3.651 26.514-10.954l57.276-57.217c2.931-2.925 2.933-7.673.006-10.604zm-402.34 150.81c-6.824 6.819-17.928 6.818-24.753 0-3.303-3.301-5.123-7.688-5.123-12.354s1.819-9.053 5.123-12.354l16.464-16.447c3.412-3.409 7.894-5.113 12.376-5.113s8.965 1.704 12.377 5.113c3.303 3.301 5.123 7.688 5.123 12.354s-1.819 9.053-5.123 12.354zm10.601 35.32c-3.303-3.301-5.122-7.688-5.122-12.354s1.819-9.054 5.123-12.354l16.464-16.447c6.825-6.816 17.93-6.816 24.755 0 3.303 3.301 5.123 7.688 5.123 12.354s-1.819 9.053-5.123 12.354l-16.464 16.448c-6.826 6.816-17.931 6.816-24.756-.001zm35.355 35.319c-3.303-3.301-5.123-7.688-5.123-12.354s1.819-9.053 5.123-12.354l16.464-16.448c3.413-3.409 7.895-5.113 12.377-5.113s8.965 1.705 12.377 5.113c3.304 3.301 5.123 7.688 5.123 12.354s-1.819 9.054-5.123 12.354l-16.464 16.447c-6.824 6.818-17.928 6.818-24.754.001zm76.575 18.873-16.464 16.448c-6.825 6.816-17.93 6.816-24.755 0v-.001c-3.303-3.301-5.123-7.688-5.123-12.354s1.819-9.053 5.123-12.354l16.464-16.447c3.412-3.409 7.895-5.113 12.377-5.113s8.965 1.704 12.377 5.113c3.304 3.301 5.123 7.688 5.123 12.354s-1.819 9.053-5.122 12.354zm162.345-101.866c0 4.666-1.819 9.053-5.123 12.354-6.824 6.818-17.929 6.819-24.753 0l-53.74-53.686c-2.93-2.927-7.679-2.926-10.607.005-2.927 2.931-2.925 7.68.005 10.606l53.74 53.686c3.303 3.301 5.123 7.688 5.123 12.354s-1.819 9.054-5.123 12.354c-6.823 6.815-17.925 6.816-24.75.003-.001-.001-.002-.002-.003-.003l-53.74-53.687c-2.93-2.928-7.679-2.925-10.607.005-2.927 2.931-2.925 7.68.005 10.606l53.741 53.687c3.303 3.301 5.123 7.688 5.123 12.354 0 4.667-1.819 9.054-5.123 12.354-6.826 6.817-17.931 6.817-24.754 0l-53.74-53.686c-2.93-2.928-7.679-2.925-10.607.005-2.927 2.931-2.925 7.68.005 10.606l53.741 53.686c3.303 3.301 5.123 7.688 5.123 12.354 0 4.667-1.819 9.055-5.123 12.355-6.826 6.817-17.931 6.816-24.754 0l-11.366-11.355c3.307-5.165 5.087-11.168 5.086-17.448 0-8.676-3.381-16.831-9.521-22.965-7.096-7.09-16.685-10.207-25.974-9.355.09-.992.141-1.991.141-2.999 0-8.676-3.381-16.832-9.522-22.966-7.096-7.089-16.685-10.205-25.974-9.353.09-.992.141-1.992.141-3 0-8.677-3.381-16.832-9.522-22.966-7.096-7.089-16.685-10.205-25.974-9.353.09-.992.141-1.992.141-3 0-8.677-3.381-16.832-9.521-22.966-6.053-6.048-13.92-9.199-21.867-9.469-1.208-6.822-1.65-13.737-1.317-20.653.39-.358.777-.719 1.155-1.097l85.34-85.253c.451-.45.888-.91 1.313-1.378 14.538-.711 29.088 2.057 42.328 7.961l-47.423 52.95c-8.244 9.206-7.854 23.259.889 31.992 16.592 16.576 43.587 16.576 60.178 0l34.716-34.681c2.923-2.92 7.679-2.92 10.601 0l71.376 71.305 15.398 15.382c3.299 3.302 5.119 7.688 5.119 12.355zm2.418-58.333c-4.938 5.849-10.551 11.076-16.735 15.592l-66.979-66.912c-8.769-8.758-23.035-8.759-31.804.001l-34.716 34.681c-10.745 10.733-28.229 10.735-38.975 0-3.108-3.105-3.247-8.101-.316-11.373l59.311-66.225c7.237-8.081 17.612-12.715 28.466-12.715h14.174c1.748 3.344 4.009 6.441 6.755 9.185l85.555 85.468c.832.831 1.697 1.608 2.585 2.345-2.234 3.47-4.668 6.812-7.321 9.953zm47.163-22.91c-8.773 8.766-23.05 8.766-31.825 0l-85.555-85.469c-4.249-4.245-6.588-9.888-6.587-15.889s2.341-11.644 6.591-15.887l19.555-19.529 116.142 118.471z"/>
</svg>
