<?xml version="1.0" encoding="UTF-8" standalone="no"?><!-- Generator: Gravit.io --><svg xmlns="http://www.w3.org/2000/svg" xmlns:xlink="http://www.w3.org/1999/xlink" style="isolation:isolate" viewBox="0 0 658.682 260.104" width="658.682pt" height="260.104pt"><defs><clipPath id="_clipPath_YqgaccVRo08B2Q3EVD6vHnHoEeTAj720"><rect width="658.682" height="260.104"/></clipPath></defs><g clip-path="url(#_clipPath_YqgaccVRo08B2Q3EVD6vHnHoEeTAj720)"><path d=" M 62.131 194.518 C 127.211 192.173 177.854 132.231 183.551 126.763 C 189.247 121.295 221.634 91.363 251.158 76.081 Q 276.067 63.186 310.183 60.35" fill-rule="evenodd" fill="none" vector-effect="non-scaling-stroke" stroke-width="2" stroke-dasharray="1,7" stroke="rgb(108,111,138)" stroke-linejoin="miter" stroke-linecap="round" stroke-miterlimit="3"/><path d=" M 588.318 195.518 C 523.237 193.173 472.594 133.231 466.898 127.763 C 461.202 122.295 428.814 92.363 399.291 77.081 Q 374.381 64.186 340.266 61.35" fill-rule="evenodd" fill="none" vector-effect="non-scaling-stroke" stroke-width="2" stroke-dasharray="1,7" stroke="rgb(108,111,138)" stroke-linejoin="miter" stroke-linecap="round" stroke-miterlimit="3"/><path d=" M 40.804 194.465 L 40.804 194.465 C 40.804 190.116 44.33 186.591 48.679 186.591 L 48.679 186.591 C 50.767 186.591 52.77 187.421 54.246 188.897 C 55.723 190.374 56.553 192.377 56.553 194.465 L 56.553 194.465 C 56.553 198.814 53.027 202.339 48.679 202.339 L 48.679 202.339 C 44.33 202.339 40.804 198.814 40.804 194.465 L 40.804 194.465 Z " fill-rule="evenodd" fill="rgb(121,88,159)"/><path d=" M 318.558 194.465 L 318.558 194.465 C 318.558 190.116 322.083 186.591 326.432 186.591 L 326.432 186.591 C 328.52 186.591 330.523 187.421 332 188.897 C 333.476 190.374 334.306 192.377 334.306 194.465 L 334.306 194.465 C 334.306 198.814 330.78 202.339 326.432 202.339 L 326.432 202.339 C 322.083 202.339 318.558 198.814 318.558 194.465 L 318.558 194.465 Z " fill-rule="evenodd" fill="rgb(121,88,159)"/><mask id="_mask_mfnuelOyK0YYCZ3DbeSGMG0IwGUZxQg7" x="-200%" y="-200%" width="400%" height="400%"><rect x="-200%" y="-200%" width="400%" height="400%" style="fill:white;"/><path d=" M 373.11 161.205 C 373.11 165.554 369.062 169.079 364.067 169.079 L 335.475 169.079 C 330.48 169.079 326.432 172.605 326.432 176.953 L 326.432 176.953 C 326.432 172.605 322.383 169.079 317.389 169.079 L 288.796 169.079 L 288.796 169.079 C 283.802 169.079 279.753 165.554 279.753 161.205" fill-rule="evenodd" fill="black" stroke="none"/></mask><path d=" M 373.11 161.205 C 373.11 165.554 369.062 169.079 364.067 169.079 L 335.475 169.079 C 330.48 169.079 326.432 172.605 326.432 176.953 L 326.432 176.953 C 326.432 172.605 322.383 169.079 317.389 169.079 L 288.796 169.079 L 288.796 169.079 C 283.802 169.079 279.753 165.554 279.753 161.205" fill-rule="evenodd" fill="none" mask="url(#_mask_mfnuelOyK0YYCZ3DbeSGMG0IwGUZxQg7)" vector-effect="non-scaling-stroke" stroke-width="4" stroke="rgb(108,111,138)" stroke-linejoin="round" stroke-linecap="butt" stroke-miterlimit="10"/><path d=" M 373.11 161.205 C 373.11 165.554 369.062 169.079 364.067 169.079 L 335.475 169.079 C 330.48 169.079 326.432 172.605 326.432 176.953 L 326.432 176.953 C 326.432 172.605 322.383 169.079 317.389 169.079 L 288.796 169.079 L 288.796 169.079 C 283.802 169.079 279.753 165.554 279.753 161.205" fill-rule="evenodd" fill="none"/><mask id="_mask_cLZESOLpadDvahVAlDXt4oQxrCF2MiJS" x="-200%" y="-200%" width="400%" height="400%"><rect x="-200%" y="-200%" width="400%" height="400%" style="fill:white;"/><path d=" M 373.11 161.205 C 373.11 165.554 369.062 169.079 364.067 169.079 L 335.475 169.079 C 330.48 169.079 326.432 172.605 326.432 176.953 L 326.432 176.953 C 326.432 172.605 322.383 169.079 317.389 169.079 L 288.796 169.079 L 288.796 169.079 C 283.802 169.079 279.753 165.554 279.753 161.205" fill-rule="evenodd" fill="black" stroke="none"/></mask><path d=" M 373.11 161.205 C 373.11 165.554 369.062 169.079 364.067 169.079 L 335.475 169.079 C 330.48 169.079 326.432 172.605 326.432 176.953 L 326.432 176.953 C 326.432 172.605 322.383 169.079 317.389 169.079 L 288.796 169.079 L 288.796 169.079 C 283.802 169.079 279.753 165.554 279.753 161.205" fill-rule="evenodd" fill="none" mask="url(#_mask_cLZESOLpadDvahVAlDXt4oQxrCF2MiJS)" vector-effect="non-scaling-stroke" stroke-width="4" stroke="rgb(108,111,138)" stroke-linejoin="round" stroke-linecap="butt" stroke-miterlimit="10"/><path d=" M 373.11 161.205 C 373.11 165.554 369.062 169.079 364.067 169.079 L 335.475 169.079 C 330.48 169.079 326.432 172.605 326.432 176.953 L 326.432 176.953 C 326.432 172.605 322.383 169.079 317.389 169.079 L 288.796 169.079 L 288.796 169.079 C 283.802 169.079 279.753 165.554 279.753 161.205" fill-rule="evenodd" fill="none"/><path d=" M 56.553 194.465 C 122.054 194.465 154.803 194.481 187.555 194.497 C 220.307 194.512 253.062 194.528 318.568 194.528" fill-rule="evenodd" fill="none"/><path d=" M 62.131 194.465 C 123.23 194.465 153.779 194.481 184.329 194.497 C 199.605 194.504 214.881 194.512 233.976 194.518 C 243.524 194.521 254.026 194.524 265.961 194.525 L 296.948 194.527" fill-rule="evenodd" fill="none" vector-effect="non-scaling-stroke" stroke-width="2" stroke-dasharray="1,7" stroke="rgb(108,111,138)" stroke-linejoin="miter" stroke-linecap="square" stroke-miterlimit="3"/><mask id="_mask_kecNBLC7A5SLKrbdZWBEsiyXotqoGeDw" x="-200%" y="-200%" width="400%" height="400%"><rect x="-200%" y="-200%" width="400%" height="400%" style="fill:white;"/><path d=" M 304.287 194.527 L 300.913 197.901 L 310.183 194.528 L 300.913 191.153 L 304.287 194.527 Z " fill-rule="evenodd" fill="black" stroke="none"/></mask><path d=" M 304.287 194.527 L 300.913 197.901 L 310.183 194.528 L 300.913 191.153 L 304.287 194.527 Z " fill-rule="evenodd" fill="rgb(108,111,138)" mask="url(#_mask_kecNBLC7A5SLKrbdZWBEsiyXotqoGeDw)" vector-effect="non-scaling-stroke" stroke-width="4" stroke="rgb(108,111,138)" stroke-linejoin="miter" stroke-linecap="butt" stroke-miterlimit="10"/><path d=" M 304.287 194.527 L 300.913 197.901 L 310.183 194.528 L 300.913 191.153 L 304.287 194.527 Z " fill-rule="evenodd" fill="rgb(108,111,138)"/><path d=" M 318.556 60.35 L 318.556 60.35 C 318.556 56.001 322.082 52.476 326.43 52.476 L 326.43 52.476 C 328.519 52.476 330.522 53.305 331.998 54.782 C 333.475 56.258 334.305 58.261 334.305 60.35 L 334.305 60.35 C 334.305 64.698 330.779 68.224 326.43 68.224 L 326.43 68.224 C 322.082 68.224 318.556 64.698 318.556 60.35 L 318.556 60.35 Z " fill-rule="evenodd" fill="rgb(26,185,165)"/><path d=" M 373.11 27.09 C 373.11 31.438 368.114 34.964 361.95 34.964 L 337.593 34.964 C 331.43 34.964 326.433 38.489 326.433 42.838 L 326.433 42.838 C 326.433 38.489 321.437 34.964 315.273 34.964 L 290.916 34.964 L 290.916 34.964 C 284.752 34.964 279.756 31.438 279.756 27.09" fill-rule="evenodd" fill="none"/><mask id="_mask_TmFx7304bQu4iEbRl3IZ5Id0WWduaJGY" x="-200%" y="-200%" width="400%" height="400%"><rect x="-200%" y="-200%" width="400%" height="400%" style="fill:white;"/><path d=" M 373.11 27.09 C 373.11 31.438 368.114 34.964 361.95 34.964 L 337.593 34.964 C 331.43 34.964 326.433 38.489 326.433 42.838 L 326.433 42.838 C 326.433 38.489 321.437 34.964 315.273 34.964 L 290.916 34.964 L 290.916 34.964 C 284.752 34.964 279.756 31.438 279.756 27.09" fill-rule="evenodd" fill="black" stroke="none"/></mask><path d=" M 373.11 27.09 C 373.11 31.438 368.114 34.964 361.95 34.964 L 337.593 34.964 C 331.43 34.964 326.433 38.489 326.433 42.838 L 326.433 42.838 C 326.433 38.489 321.437 34.964 315.273 34.964 L 290.916 34.964 L 290.916 34.964 C 284.752 34.964 279.756 31.438 279.756 27.09" fill-rule="evenodd" fill="none" mask="url(#_mask_TmFx7304bQu4iEbRl3IZ5Id0WWduaJGY)" vector-effect="non-scaling-stroke" stroke-width="4" stroke="rgb(108,111,138)" stroke-linejoin="round" stroke-linecap="butt" stroke-miterlimit="10"/><path d=" M 373.11 27.09 C 373.11 31.438 368.114 34.964 361.95 34.964 L 337.593 34.964 C 331.43 34.964 326.433 38.489 326.433 42.838 L 326.433 42.838 C 326.433 38.489 321.437 34.964 315.273 34.964 L 290.916 34.964 L 290.916 34.964 C 284.752 34.964 279.756 31.438 279.756 27.09" fill-rule="evenodd" fill="none"/><path d=" M 598.396 126.011 L 603.22 126.011 L 603.22 121.188 L 605.145 121.188 L 605.145 126.011 L 609.969 126.011 L 609.969 127.937 L 605.145 127.937 L 605.145 132.761 L 603.22 132.761 L 603.22 127.937 L 598.396 127.937 L 598.396 126.011 Z " fill-rule="evenodd" fill="rgb(0,37,62)"/><path d=" M 596.308 194.465 L 596.308 194.465 C 596.308 190.116 599.834 186.591 604.182 186.591 L 604.182 186.591 C 606.271 186.591 608.274 187.421 609.75 188.897 C 611.227 190.374 612.056 192.377 612.056 194.465 L 612.056 194.465 C 612.056 198.814 608.531 202.339 604.182 202.339 L 604.182 202.339 C 599.834 202.339 596.308 198.814 596.308 194.465 L 596.308 194.465 Z " fill-rule="evenodd" fill="rgb(240,25,123)"/><mask id="_mask_FerzsvSBCgOMmGslLGG8VUrhv6z5TjfY" x="-200%" y="-200%" width="400%" height="400%"><rect x="-200%" y="-200%" width="400%" height="400%" style="fill:white;"/><path d=" M 650.629 161.205 C 650.629 165.554 646.6 169.079 641.631 169.079 L 613.18 169.079 C 608.211 169.079 604.182 172.605 604.182 176.953 L 604.182 176.953 C 604.182 172.605 600.154 169.079 595.184 169.079 L 566.734 169.079 L 566.734 169.079 C 561.765 169.079 557.736 165.554 557.736 161.205" fill-rule="evenodd" fill="black" stroke="none"/></mask><path d=" M 650.629 161.205 C 650.629 165.554 646.6 169.079 641.631 169.079 L 613.18 169.079 C 608.211 169.079 604.182 172.605 604.182 176.953 L 604.182 176.953 C 604.182 172.605 600.154 169.079 595.184 169.079 L 566.734 169.079 L 566.734 169.079 C 561.765 169.079 557.736 165.554 557.736 161.205" fill-rule="evenodd" fill="none" mask="url(#_mask_FerzsvSBCgOMmGslLGG8VUrhv6z5TjfY)" vector-effect="non-scaling-stroke" stroke-width="4" stroke="rgb(108,111,138)" stroke-linejoin="round" stroke-linecap="butt" stroke-miterlimit="10"/><path d=" M 650.629 161.205 C 650.629 165.554 646.6 169.079 641.631 169.079 L 613.18 169.079 C 608.211 169.079 604.182 172.605 604.182 176.953 L 604.182 176.953 C 604.182 172.605 600.154 169.079 595.184 169.079 L 566.734 169.079 L 566.734 169.079 C 561.765 169.079 557.736 165.554 557.736 161.205" fill-rule="evenodd" fill="none"/><path d=" M 334.306 194.465 C 399.806 194.465 432.554 194.481 465.306 194.497 C 498.058 194.512 530.814 194.528 596.322 194.528" fill-rule="evenodd" fill="none"/><path d=" M 339.884 194.466 C 400.982 194.466 431.529 194.481 462.08 194.497 C 477.355 194.504 492.631 194.512 511.727 194.518 C 521.275 194.521 531.777 194.523 543.712 194.525 L 574.7 194.527" fill-rule="evenodd" fill="none" vector-effect="non-scaling-stroke" stroke-width="2" stroke-dasharray="1,7" stroke="rgb(108,111,138)" stroke-linejoin="miter" stroke-linecap="round" stroke-miterlimit="3"/><mask id="_mask_R7ixe9aYDfG1jKqGVhviQdUjLhVa3Aqk" x="-200%" y="-200%" width="400%" height="400%"><rect x="-200%" y="-200%" width="400%" height="400%" style="fill:white;"/><path d=" M 583.04 194.527 L 579.666 197.901 L 588.936 194.528 L 579.667 191.153 L 583.04 194.527 Z " fill-rule="evenodd" fill="black" stroke="none"/></mask><path d=" M 583.04 194.527 L 579.666 197.901 L 588.936 194.528 L 579.667 191.153 L 583.04 194.527 Z " fill-rule="evenodd" fill="rgb(108,111,138)" mask="url(#_mask_R7ixe9aYDfG1jKqGVhviQdUjLhVa3Aqk)" vector-effect="non-scaling-stroke" stroke-width="4" stroke="rgb(108,111,138)" stroke-linejoin="miter" stroke-linecap="butt" stroke-miterlimit="10"/><path d=" M 583.04 194.527 L 579.666 197.901 L 588.936 194.528 L 579.667 191.153 L 583.04 194.527 Z " fill-rule="evenodd" fill="rgb(108,111,138)"/><text transform="matrix(1,0,0,1,17.159,153.795)" style="font-family:'Source Sans Pro';font-weight:400;font-size:20px;font-style:normal;fill:#242960;stroke:none;">Heroku</text><text transform="matrix(1,0,0,1,37.559,229.504)" style="font-family:'Source Sans Pro';font-weight:400;font-size:20px;font-style:normal;fill:#242960;stroke:none;">V1</text><text transform="matrix(1,0,0,1,301.813,229.504)" style="font-family:'Source Sans Pro';font-weight:400;font-size:20px;font-style:normal;fill:#242960;stroke:none;">V2 (A)</text><text transform="matrix(1,0,0,1,301.64,96.378)" style="font-family:'Source Sans Pro';font-weight:400;font-size:20px;font-style:normal;fill:#242960;stroke:none;">V2 (B)</text><text transform="matrix(1,0,0,1,549.712,229.504)" style="font-family:'Source Sans Pro';font-weight:400;font-size:20px;font-style:normal;fill:#242960;stroke:none;">Cloud Native</text><text transform="matrix(1,0,0,1,557.152,254.644)" style="font-family:'Source Sans Pro';font-weight:400;font-size:20px;font-style:normal;fill:#242960;stroke:none;">Buildpacks</text><text transform="matrix(1,0,0,1,294.913,153.795)" style="font-family:'Source Sans Pro';font-weight:400;font-size:20px;font-style:normal;fill:#242960;stroke:none;">Heroku</text><text transform="matrix(1,0,0,1,572.662,152.441)" style="font-family:'Source Sans Pro';font-weight:400;font-size:20px;font-style:normal;fill:#242960;stroke:none;">Heroku</text><text transform="matrix(1,0,0,1,574.422,112.055)" style="font-family:'Source Sans Pro';font-weight:400;font-size:20px;font-style:normal;fill:#242960;stroke:none;">Pivotal</text><text transform="matrix(1,0,0,1,296.673,19.68)" style="font-family:'Source Sans Pro';font-weight:400;font-size:20px;font-style:normal;fill:#242960;stroke:none;">Pivotal</text><mask id="_mask_4Yo49wdgu9y9G7ifzRuedF9W6d9jnspI" x="-200%" y="-200%" width="400%" height="400%"><rect x="-200%" y="-200%" width="400%" height="400%" style="fill:white;"/><path d=" M 304.291 60.64 L 301.012 64.107 L 310.184 60.477 L 300.825 57.362 L 304.291 60.64 Z " fill-rule="evenodd" fill="black" stroke="none"/></mask><path d=" M 304.291 60.64 L 301.012 64.107 L 310.184 60.477 L 300.825 57.362 L 304.291 60.64 Z " fill-rule="evenodd" fill="rgb(108,111,138)" mask="url(#_mask_4Yo49wdgu9y9G7ifzRuedF9W6d9jnspI)" vector-effect="non-scaling-stroke" stroke-width="4" stroke="rgb(108,111,138)" stroke-linejoin="miter" stroke-linecap="butt" stroke-miterlimit="10"/><path d=" M 304.291 60.64 L 301.012 64.107 L 310.184 60.477 L 300.825 57.362 L 304.291 60.64 Z " fill-rule="evenodd" fill="rgb(108,111,138)"/><mask id="_mask_YyEP81zVzMXXB7rY9fa8NTdpEeVG2HS6" x="-200%" y="-200%" width="400%" height="400%"><rect x="-200%" y="-200%" width="400%" height="400%" style="fill:white;"/><path d=" M 95.357 163.741 C 95.357 168.089 91.308 171.615 86.314 171.615 L 57.721 171.615 C 52.727 171.615 48.679 175.14 48.679 179.489 L 48.679 179.489 C 48.679 175.14 44.63 171.615 39.636 171.615 L 11.043 171.615 L 11.043 171.615 C 6.049 171.615 2 168.089 2 163.741" fill-rule="evenodd" fill="black" stroke="none"/></mask><path d=" M 95.357 163.741 C 95.357 168.089 91.308 171.615 86.314 171.615 L 57.721 171.615 C 52.727 171.615 48.679 175.14 48.679 179.489 L 48.679 179.489 C 48.679 175.14 44.63 171.615 39.636 171.615 L 11.043 171.615 L 11.043 171.615 C 6.049 171.615 2 168.089 2 163.741" fill-rule="evenodd" fill="none" mask="url(#_mask_YyEP81zVzMXXB7rY9fa8NTdpEeVG2HS6)" vector-effect="non-scaling-stroke" stroke-width="4" stroke="rgb(108,111,138)" stroke-linejoin="round" stroke-linecap="butt" stroke-miterlimit="10"/><path d=" M 95.357 163.741 C 95.357 168.089 91.308 171.615 86.314 171.615 L 57.721 171.615 C 52.727 171.615 48.679 175.14 48.679 179.489 L 48.679 179.489 C 48.679 175.14 44.63 171.615 39.636 171.615 L 11.043 171.615 L 11.043 171.615 C 6.049 171.615 2 168.089 2 163.741" fill-rule="evenodd" fill="none"/></g></svg>