<svg version="1.1" viewBox="0.0 0.0 822.0892388451443 503.5223097112861" fill="none" stroke="none" stroke-linecap="square" stroke-miterlimit="10" xmlns:xlink="http://www.w3.org/1999/xlink" xmlns="http://www.w3.org/2000/svg"><clipPath id="p.0"><path d="m0 0l822.08923 0l0 503.5223l-822.08923 0l0 -503.5223z" clip-rule="nonzero"/></clipPath><g clip-path="url(#p.0)"><path fill="#000000" fill-opacity="0.0" d="m0 0l822.08923 0l0 503.5223l-822.08923 0z" fill-rule="evenodd"/><path fill="#6a717c" d="m70.47005 230.74495l226.8637 0l0 49.695877l-226.8637 0z" fill-rule="evenodd"/><path fill="#ffffff" d="m143.57312 262.73163q-0.640625 0 -1.328125 -0.296875q-0.671875 -0.3125 -1.265625 -0.859375l-0.0625 0l-0.125 0.9375l-1.234375 0l0 -13.28125l1.53125 0l0 3.625l-0.046875 1.640625q0.625 -0.546875 1.34375 -0.90625q0.734375 -0.375 1.5 -0.375q0.875 0 1.546875 0.328125q0.671875 0.328125 1.125 0.9375q0.46875 0.609375 0.6875 1.453125q0.234375 0.84375 0.234375 1.890625q0 1.15625 -0.3125 2.078125q-0.3125 0.90625 -0.859375 1.546875q-0.53125 0.640625 -1.25 0.96875q-0.703125 0.3125 -1.484375 0.3125zm-0.265625 -1.28125q0.5625 0 1.03125 -0.25q0.484375 -0.25 0.828125 -0.703125q0.34375 -0.46875 0.53125 -1.140625q0.203125 -0.671875 0.203125 -1.515625q0 -0.734375 -0.140625 -1.34375q-0.125 -0.625 -0.421875 -1.0625q-0.28125 -0.4375 -0.734375 -0.671875q-0.453125 -0.25 -1.09375 -0.25q-1.09375 0 -2.421875 1.234375l0 4.75q0.59375 0.515625 1.171875 0.734375q0.59375 0.21875 1.046875 0.21875zm9.207535 1.28125q-1.453125 0 -2.109375 -0.890625q-0.65625 -0.890625 -0.65625 -2.65625l0 -5.734375l1.546875 0l0 5.53125q0 1.296875 0.390625 1.875q0.40625 0.5625 1.296875 0.5625q0.71875 0 1.25 -0.359375q0.546875 -0.375 1.203125 -1.171875l0 -6.4375l1.53125 0l0 9.0625l-1.28125 0l-0.125 -1.421875l-0.0625 0q-0.625 0.75 -1.328125 1.203125q-0.703125 0.4375 -1.65625 0.4375zm7.508377 -0.21875l0 -9.0625l1.53125 0l0 9.0625l-1.53125 0zm0.78125 -10.9375q-0.453125 0 -0.765625 -0.28125q-0.296875 -0.28125 -0.296875 -0.703125q0 -0.453125 0.296875 -0.71875q0.3125 -0.265625 0.765625 -0.265625q0.453125 0 0.75 0.265625q0.3125 0.265625 0.3125 0.71875q0 0.421875 -0.3125 0.703125q-0.296875 0.28125 -0.75 0.28125zm5.433182 11.15625q-0.875 0 -1.25 -0.515625q-0.375 -0.53125 -0.375 -1.53125l0 -11.453125l1.53125 0l0 11.5625q0 0.375 0.125 0.53125q0.140625 0.140625 0.296875 0.140625q0.078125 0 0.140625 0q0.0625 0 0.203125 -0.03125l0.203125 1.15625q-0.15625 0.078125 -0.359375 0.109375q-0.203125 0.03125 -0.515625 0.03125zm6.2260895 0q-1.71875 0 -2.734375 -1.21875q-1.015625 -1.234375 -1.015625 -3.515625q0 -1.09375 0.328125 -1.984375q0.328125 -0.890625 0.859375 -1.5q0.546875 -0.625 1.25 -0.953125q0.71875 -0.34375 1.5 -0.34375q0.78125 0 1.359375 0.28125q0.578125 0.28125 1.171875 0.765625l-0.0625 -1.546875l0 -3.484375l1.546875 0l0 13.28125l-1.265625 0l-0.140625 -1.0625l-0.046875 0q-0.546875 0.515625 -1.25 0.90625q-0.703125 0.375 -1.5 0.375zm0.34375 -1.28125q0.625 0 1.1875 -0.296875q0.5625 -0.3125 1.125 -0.953125l0 -4.734375q-0.578125 -0.53125 -1.109375 -0.734375q-0.53125 -0.21875 -1.09375 -0.21875q-0.546875 0 -1.03125 0.25q-0.46875 0.25 -0.828125 0.71875q-0.34375 0.453125 -0.546875 1.09375q-0.203125 0.625 -0.203125 1.40625q0 1.640625 0.640625 2.5625q0.65625 0.90625 1.859375 0.90625zm10.6479645 1.0625l0 -9.0625l1.53125 0l0 9.0625l-1.53125 0zm0.78125 -10.9375q-0.453125 0 -0.765625 -0.28125q-0.296875 -0.28125 -0.296875 -0.703125q0 -0.453125 0.296875 -0.71875q0.3125 -0.265625 0.765625 -0.265625q0.453125 0 0.75 0.265625q0.3125 0.265625 0.3125 0.71875q0 0.421875 -0.3125 0.703125q-0.296875 0.28125 -0.75 0.28125zm3.8081818 10.9375l0 -9.0625l1.265625 0l0.125 1.296875l0.0625 0q0.59375 -0.640625 1.296875 -1.078125q0.703125 -0.453125 1.515625 -0.453125q1.046875 0 1.625 0.46875q0.59375 0.453125 0.875 1.265625q0.71875 -0.78125 1.4375 -1.25q0.71875 -0.484375 1.546875 -0.484375q1.4062347 0 2.0781097 0.90625q0.6875 0.890625 0.6875 2.640625l0 5.75l-1.53125 0l0 -5.546875q0 -1.28125 -0.40625 -1.84375q-0.40623474 -0.578125 -1.2656097 -0.578125q-1.03125 0 -2.28125 1.40625l0 6.5625l-1.53125 0l0 -5.546875q0 -1.28125 -0.40625 -1.84375q-0.40625 -0.578125 -1.296875 -0.578125q-1.015625 0 -2.265625 1.40625l0 6.5625l-1.53125 0zm17.559769 0.21875q-1.140625 0 -1.90625 -0.671875q-0.75 -0.671875 -0.75 -1.890625q0 -1.5 1.328125 -2.28125q1.328125 -0.796875 4.234375 -1.125q0 -0.421875 -0.09375 -0.828125q-0.078125 -0.421875 -0.28125 -0.734375q-0.203125 -0.3125 -0.578125 -0.5q-0.359375 -0.203125 -0.90625 -0.203125q-0.796875 0 -1.484375 0.296875q-0.6875 0.296875 -1.234375 0.671875l-0.59375 -1.0625q0.640625 -0.421875 1.546875 -0.796875q0.921875 -0.390625 2.015625 -0.390625q1.65625 0 2.40625 1.03125q0.75 1.015625 0.75 2.703125l0 5.5625l-1.265625 0l-0.140625 -1.078125l-0.046875 0q-0.65625 0.53125 -1.40625 0.921875q-0.734375 0.375 -1.59375 0.375zm0.4375 -1.21875q0.65625 0 1.234375 -0.3125q0.578125 -0.3125 1.234375 -0.90625l0 -2.515625q-1.140625 0.140625 -1.921875 0.359375q-0.765625 0.203125 -1.25 0.484375q-0.46875 0.265625 -0.6875 0.640625q-0.203125 0.359375 -0.203125 0.78125q0 0.796875 0.453125 1.140625q0.46875 0.328125 1.140625 0.328125zm9.934021 5.171875q-0.84375 0 -1.53125 -0.15625q-0.6875 -0.15625 -1.1875 -0.46875q-0.5 -0.3125 -0.765625 -0.765625q-0.265625 -0.453125 -0.265625 -1.046875q0 -0.578125 0.34375 -1.109375q0.359375 -0.515625 0.984375 -0.9375l0 -0.078125q-0.34375 -0.203125 -0.578125 -0.5625q-0.234375 -0.375 -0.234375 -0.90625q0 -0.578125 0.3125 -1.0q0.328125 -0.4375 0.671875 -0.6875l0 -0.078125q-0.4375 -0.375 -0.8125 -1.0q-0.359375 -0.625 -0.359375 -1.4375q0 -0.75 0.265625 -1.34375q0.28125 -0.59375 0.75 -1.015625q0.46875 -0.421875 1.09375 -0.640625q0.625 -0.234375 1.3125 -0.234375q0.375 0 0.6875 0.078125q0.328125 0.0625 0.59375 0.15625l3.15625 0l0 1.171875l-1.875 0q0.328125 0.3125 0.53125 0.796875q0.21875 0.484375 0.21875 1.0625q0 0.734375 -0.265625 1.328125q-0.25 0.578125 -0.703125 0.984375q-0.4375 0.390625 -1.046875 0.625q-0.609375 0.21875 -1.296875 0.21875q-0.34375 0 -0.703125 -0.078125q-0.34375 -0.09375 -0.65625 -0.234375q-0.25 0.203125 -0.421875 0.453125q-0.15625 0.25 -0.15625 0.625q0 0.4375 0.328125 0.71875q0.34375 0.265625 1.265625 0.265625l1.75 0q1.59375 0 2.375 0.515625q0.796875 0.515625 0.796875 1.65625q0 0.625 -0.3125 1.1875q-0.3125 0.578125 -0.921875 1.0q-0.59375 0.4375 -1.4375 0.6875q-0.84375 0.25 -1.90625 0.25zm0 -8.078125q0.390625 0 0.734375 -0.140625q0.34375 -0.15625 0.609375 -0.421875q0.28125 -0.28125 0.421875 -0.6875q0.15625 -0.40625 0.15625 -0.90625q0 -1.015625 -0.5625 -1.5625q-0.5625 -0.546875 -1.359375 -0.546875q-0.8125 0 -1.375 0.546875q-0.546875 0.546875 -0.546875 1.5625q0 0.5 0.140625 0.90625q0.15625 0.40625 0.421875 0.6875q0.265625 0.265625 0.609375 0.421875q0.359375 0.140625 0.75 0.140625zm0.21875 7.015625q0.65625 0 1.1875 -0.15625q0.53125 -0.15625 0.90625 -0.40625q0.375 -0.25 0.578125 -0.59375q0.203125 -0.328125 0.203125 -0.6875q0 -0.625 -0.46875 -0.875q-0.46875 -0.234375 -1.359375 -0.234375l-1.5625 0q-0.265625 0 -0.578125 -0.03125q-0.296875 -0.03125 -0.609375 -0.125q-0.484375 0.359375 -0.703125 0.75q-0.21875 0.390625 -0.21875 0.78125q0 0.71875 0.6875 1.140625q0.703125 0.4375 1.9375 0.4375zm9.532043 -2.890625q-0.90625 0 -1.703125 -0.3125q-0.796875 -0.328125 -1.390625 -0.9375q-0.578125 -0.609375 -0.921875 -1.484375q-0.328125 -0.875 -0.328125 -2.0q0 -1.125 0.34375 -2.0q0.34375 -0.890625 0.90625 -1.5q0.578125 -0.625 1.296875 -0.953125q0.734375 -0.328125 1.515625 -0.328125q0.859375 0 1.53125 0.3125q0.6875 0.296875 1.140625 0.859375q0.46875 0.546875 0.703125 1.34375q0.25 0.78125 0.25 1.75q0 0.234375 -0.015625 0.46875q0 0.234375 -0.046875 0.40625l-6.109375 0q0.09375 1.453125 0.890625 2.3125q0.8125 0.84375 2.125 0.84375q0.65625 0 1.203125 -0.203125q0.546875 -0.203125 1.0625 -0.515625l0.53125 1.015625q-0.59375 0.375 -1.328125 0.65625q-0.71875 0.265625 -1.65625 0.265625zm-2.859375 -5.484375l4.859375 0q0 -1.375 -0.59375 -2.09375q-0.578125 -0.71875 -1.640625 -0.71875q-0.484375 0 -0.9375 0.1875q-0.4375 0.1875 -0.796875 0.546875q-0.34375 0.359375 -0.578125 0.890625q-0.234375 0.515625 -0.3125 1.1875z" fill-rule="nonzero"/><path fill="#ff9900" d="m70.47005 181.04907l226.8637 0l0 49.695877l-226.8637 0z" fill-rule="evenodd"/><path fill="#ffffff" d="m155.23994 213.03575q-0.875 0 -1.25 -0.515625q-0.375 -0.53125 -0.375 -1.53125l0 -11.453125l1.53125 0l0 11.5625q0 0.375 0.125 0.53125q0.140625 0.140625 0.296875 0.140625q0.078125 0 0.140625 0q0.0625 0 0.203125 -0.03125l0.203125 1.15625q-0.15625 0.078125 -0.359375 0.109375q-0.203125 0.03125 -0.515625 0.03125zm3.1323395 -0.21875l0 -9.0625l1.53125 0l0 9.0625l-1.53125 0zm0.78125 -10.9375q-0.453125 0 -0.765625 -0.28125q-0.296875 -0.28125 -0.296875 -0.703125q0 -0.453125 0.296875 -0.71875q0.3125 -0.265625 0.765625 -0.265625q0.453125 0 0.75 0.265625q0.3125 0.265625 0.3125 0.71875q0 0.421875 -0.3125 0.703125q-0.296875 0.28125 -0.75 0.28125zm4.073807 10.9375l0 -7.8125l-1.234375 0l0 -1.15625l1.234375 -0.09375l0 -1.4375q0 -1.40625 0.640625 -2.203125q0.640625 -0.796875 2.0 -0.796875q0.4375 0 0.8125 0.078125q0.390625 0.078125 0.703125 0.21875l-0.34375 1.171875q-0.5 -0.21875 -1.015625 -0.21875q-1.265625 0 -1.265625 1.75l0 1.4375l1.921875 0l0 1.25l-1.921875 0l0 7.8125l-1.53125 0zm8.667221 0.21875q-0.90625 0 -1.703125 -0.3125q-0.796875 -0.328125 -1.390625 -0.9375q-0.578125 -0.609375 -0.921875 -1.484375q-0.328125 -0.875 -0.328125 -2.0q0 -1.125 0.34375 -2.0q0.34375 -0.890625 0.90625 -1.5q0.578125 -0.625 1.296875 -0.953125q0.734375 -0.328125 1.515625 -0.328125q0.859375 0 1.53125 0.3125q0.6875 0.296875 1.140625 0.859375q0.46875 0.546875 0.703125 1.34375q0.25 0.78125 0.25 1.75q0 0.234375 -0.015625 0.46875q0 0.234375 -0.046875 0.40625l-6.109375 0q0.09375 1.453125 0.890625 2.3125q0.8125 0.84375 2.125 0.84375q0.65625 0 1.203125 -0.203125q0.546875 -0.203125 1.0625 -0.515625l0.53125 1.015625q-0.59375 0.375 -1.328125 0.65625q-0.71875 0.265625 -1.65625 0.265625zm-2.859375 -5.484375l4.859375 0q0 -1.375 -0.59375 -2.09375q-0.578125 -0.71875 -1.640625 -0.71875q-0.484375 0 -0.9375 0.1875q-0.4375 0.1875 -0.796875 0.546875q-0.34375 0.359375 -0.578125 0.890625q-0.234375 0.515625 -0.3125 1.1875zm12.0191345 5.484375q-0.890625 0 -1.671875 -0.3125q-0.78125 -0.3125 -1.359375 -0.921875q-0.5625 -0.609375 -0.890625 -1.484375q-0.328125 -0.890625 -0.328125 -2.015625q0 -1.140625 0.34375 -2.015625q0.359375 -0.890625 0.953125 -1.5q0.609375 -0.625 1.390625 -0.9375q0.796875 -0.328125 1.671875 -0.328125q0.90625 0 1.53125 0.328125q0.640625 0.3125 1.125 0.734375l-0.78125 1.015625q-0.390625 -0.359375 -0.828125 -0.578125q-0.4375 -0.21875 -0.984375 -0.21875q-0.609375 0 -1.140625 0.25q-0.515625 0.25 -0.890625 0.71875q-0.375 0.46875 -0.59375 1.109375q-0.21875 0.640625 -0.21875 1.421875q0 0.78125 0.203125 1.421875q0.21875 0.625 0.578125 1.09375q0.359375 0.453125 0.875 0.703125q0.53125 0.25 1.15625 0.25q0.625 0 1.15625 -0.265625q0.53125 -0.265625 0.96875 -0.640625l0.671875 1.015625q-0.625 0.546875 -1.375 0.859375q-0.734375 0.296875 -1.5625 0.296875zm5.1817474 3.6875q-0.3125 0 -0.578125 -0.046875q-0.25 -0.046875 -0.484375 -0.140625l0.3125 -1.21875q0.140625 0.03125 0.328125 0.078125q0.1875 0.046875 0.359375 0.046875q0.78125 0 1.265625 -0.546875q0.5 -0.546875 0.78125 -1.390625l0.203125 -0.671875l-3.640625 -9.078125l1.59375 0l1.84375 5.015625q0.203125 0.59375 0.4375 1.265625q0.234375 0.65625 0.4375 1.28125l0.078125 0q0.203125 -0.609375 0.390625 -1.28125q0.1875 -0.671875 0.375 -1.265625l1.625 -5.015625l1.484375 0l-3.40625 9.8125q-0.25 0.671875 -0.546875 1.25q-0.296875 0.578125 -0.703125 1.0q-0.40625 0.421875 -0.9375 0.65625q-0.515625 0.25 -1.21875 0.25zm12.075302 -3.6875q-0.890625 0 -1.671875 -0.3125q-0.78125 -0.3125 -1.359375 -0.921875q-0.5625 -0.609375 -0.890625 -1.484375q-0.328125 -0.890625 -0.328125 -2.015625q0 -1.140625 0.34375 -2.015625q0.359375 -0.890625 0.953125 -1.5q0.609375 -0.625 1.390625 -0.9375q0.796875 -0.328125 1.671875 -0.328125q0.90623474 0 1.5312347 0.328125q0.640625 0.3125 1.125 0.734375l-0.78125 1.015625q-0.390625 -0.359375 -0.828125 -0.578125q-0.4375 -0.21875 -0.984375 -0.21875q-0.60935974 0 -1.1406097 0.25q-0.515625 0.25 -0.890625 0.71875q-0.375 0.46875 -0.59375 1.109375q-0.21875 0.640625 -0.21875 1.421875q0 0.78125 0.203125 1.421875q0.21875 0.625 0.578125 1.09375q0.359375 0.453125 0.875 0.703125q0.53125 0.25 1.15625 0.25q0.62498474 0 1.1562347 -0.265625q0.53125 -0.265625 0.96875 -0.640625l0.671875 1.015625q-0.625 0.546875 -1.375 0.859375q-0.734375 0.296875 -1.5624847 0.296875zm6.554123 0q-0.875 0 -1.25 -0.515625q-0.375 -0.53125 -0.375 -1.53125l0 -11.453125l1.53125 0l0 11.5625q0 0.375 0.125 0.53125q0.140625 0.140625 0.296875 0.140625q0.078125 0 0.140625 0q0.0625 0 0.203125 -0.03125l0.203125 1.15625q-0.15625 0.078125 -0.359375 0.109375q-0.203125 0.03125 -0.515625 0.03125zm6.804199 0q-0.90625 0 -1.703125 -0.3125q-0.796875 -0.328125 -1.390625 -0.9375q-0.578125 -0.609375 -0.921875 -1.484375q-0.328125 -0.875 -0.328125 -2.0q0 -1.125 0.34375 -2.0q0.34375 -0.890625 0.90625 -1.5q0.578125 -0.625 1.296875 -0.953125q0.734375 -0.328125 1.515625 -0.328125q0.859375 0 1.53125 0.3125q0.6875 0.296875 1.140625 0.859375q0.46875 0.546875 0.703125 1.34375q0.25 0.78125 0.25 1.75q0 0.234375 -0.015625 0.46875q0 0.234375 -0.046875 0.40625l-6.109375 0q0.09375 1.453125 0.890625 2.3125q0.8125 0.84375 2.125 0.84375q0.65625 0 1.203125 -0.203125q0.546875 -0.203125 1.0625 -0.515625l0.53125 1.015625q-0.59375 0.375 -1.328125 0.65625q-0.71875 0.265625 -1.65625 0.265625zm-2.859375 -5.484375l4.859375 0q0 -1.375 -0.59375 -2.09375q-0.578125 -0.71875 -1.640625 -0.71875q-0.484375 0 -0.9375 0.1875q-0.4375 0.1875 -0.796875 0.546875q-0.34375 0.359375 -0.578125 0.890625q-0.234375 0.515625 -0.3125 1.1875z" fill-rule="nonzero"/><path fill="#f0197b" d="m70.47005 131.3532l226.8637 0l0 49.695877l-226.8637 0z" fill-rule="evenodd"/><path fill="#ffffff" d="m144.24475 163.33987q-0.640625 0 -1.328125 -0.296875q-0.671875 -0.3125 -1.265625 -0.859375l-0.0625 0l-0.125 0.9375l-1.234375 0l0 -13.28125l1.53125 0l0 3.625l-0.046875 1.640625q0.625 -0.546875 1.34375 -0.90625q0.734375 -0.375 1.5 -0.375q0.875 0 1.546875 0.328125q0.671875 0.328125 1.125 0.9375q0.46875 0.609375 0.6875 1.453125q0.234375 0.84375 0.234375 1.890625q0 1.15625 -0.3125 2.078125q-0.3125 0.90625 -0.859375 1.546875q-0.53125 0.640625 -1.25 0.96875q-0.703125 0.3125 -1.484375 0.3125zm-0.265625 -1.28125q0.5625 0 1.03125 -0.25q0.484375 -0.25 0.828125 -0.703125q0.34375 -0.46875 0.53125 -1.140625q0.203125 -0.671875 0.203125 -1.515625q0 -0.734375 -0.140625 -1.34375q-0.125 -0.625 -0.421875 -1.0625q-0.28125 -0.4375 -0.734375 -0.671875q-0.453125 -0.25 -1.09375 -0.25q-1.09375 0 -2.421875 1.234375l0 4.75q0.59375 0.515625 1.171875 0.734375q0.59375 0.21875 1.046875 0.21875zm9.207535 1.28125q-1.453125 0 -2.109375 -0.890625q-0.65625 -0.890625 -0.65625 -2.65625l0 -5.734375l1.546875 0l0 5.53125q0 1.296875 0.390625 1.875q0.40625 0.5625 1.296875 0.5625q0.71875 0 1.25 -0.359375q0.546875 -0.375 1.203125 -1.171875l0 -6.4375l1.53125 0l0 9.0625l-1.28125 0l-0.125 -1.421875l-0.0625 0q-0.625 0.75 -1.328125 1.203125q-0.703125 0.4375 -1.65625 0.4375zm7.508377 -0.21875l0 -9.0625l1.53125 0l0 9.0625l-1.53125 0zm0.78125 -10.9375q-0.453125 0 -0.765625 -0.28125q-0.296875 -0.28125 -0.296875 -0.703125q0 -0.453125 0.296875 -0.71875q0.3125 -0.265625 0.765625 -0.265625q0.453125 0 0.75 0.265625q0.3125 0.265625 0.3125 0.71875q0 0.421875 -0.3125 0.703125q-0.296875 0.28125 -0.75 0.28125zm5.433182 11.15625q-0.875 0 -1.25 -0.515625q-0.375 -0.53125 -0.375 -1.53125l0 -11.453125l1.53125 0l0 11.5625q0 0.375 0.125 0.53125q0.140625 0.140625 0.296875 0.140625q0.078125 0 0.140625 0q0.0625 0 0.203125 -0.03125l0.203125 1.15625q-0.15625 0.078125 -0.359375 0.109375q-0.203125 0.03125 -0.515625 0.03125zm6.2260895 0q-1.71875 0 -2.734375 -1.21875q-1.015625 -1.234375 -1.015625 -3.515625q0 -1.09375 0.328125 -1.984375q0.328125 -0.890625 0.859375 -1.5q0.546875 -0.625 1.25 -0.953125q0.71875 -0.34375 1.5 -0.34375q0.78125 0 1.359375 0.28125q0.578125 0.28125 1.171875 0.765625l-0.0625 -1.546875l0 -3.484375l1.546875 0l0 13.28125l-1.265625 0l-0.140625 -1.0625l-0.046875 0q-0.546875 0.515625 -1.25 0.90625q-0.703125 0.375 -1.5 0.375zm0.34375 -1.28125q0.625 0 1.1875 -0.296875q0.5625 -0.3125 1.125 -0.953125l0 -4.734375q-0.578125 -0.53125 -1.109375 -0.734375q-0.53125 -0.21875 -1.09375 -0.21875q-0.546875 0 -1.03125 0.25q-0.46875 0.25 -0.828125 0.71875q-0.34375 0.453125 -0.546875 1.09375q-0.203125 0.625 -0.203125 1.40625q0 1.640625 0.640625 2.5625q0.65625 0.90625 1.859375 0.90625zm6.9167175 4.890625l0 -12.890625l1.265625 0l0.125 1.046875l0.0625 0q0.609375 -0.53125 1.34375 -0.90625q0.75 -0.375 1.546875 -0.375q0.875 0 1.546875 0.328125q0.671875 0.328125 1.125 0.9375q0.453125 0.609375 0.671875 1.453125q0.234375 0.84375 0.234375 1.90625q0 1.171875 -0.3125 2.078125q-0.3125 0.890625 -0.859375 1.53125q-0.53125 0.640625 -1.25 0.96875q-0.703125 0.3125 -1.484375 0.3125q-0.640625 0 -1.265625 -0.265625q-0.625 -0.28125 -1.265625 -0.78125l0.046875 1.59375l0 3.0625l-1.53125 0zm3.75 -4.890625q0.5625 0 1.03125 -0.25q0.484375 -0.25 0.828125 -0.703125q0.34375 -0.46875 0.53125 -1.140625q0.203125 -0.671875 0.203125 -1.515625q0 -0.734375 -0.140625 -1.34375q-0.125 -0.625 -0.421875 -1.0625q-0.28125 -0.4375 -0.734375 -0.671875q-0.453125 -0.25 -1.09375 -0.25q-0.578125 0 -1.171875 0.3125q-0.578125 0.3125 -1.25 0.921875l0 4.75q0.609375 0.515625 1.1875 0.734375q0.578125 0.21875 1.03125 0.21875zm8.43663 1.28125q-1.140625 0 -1.90625 -0.671875q-0.75 -0.671875 -0.75 -1.890625q0 -1.5 1.328125 -2.28125q1.328125 -0.796875 4.234375 -1.125q0 -0.421875 -0.09375 -0.828125q-0.078125 -0.421875 -0.28125 -0.734375q-0.203125 -0.3125 -0.578125 -0.5q-0.359375 -0.203125 -0.90625 -0.203125q-0.796875 0 -1.484375 0.296875q-0.6875 0.296875 -1.234375 0.671875l-0.59375 -1.0625q0.640625 -0.421875 1.546875 -0.796875q0.921875 -0.390625 2.015625 -0.390625q1.65625 0 2.40625 1.03125q0.75 1.015625 0.75 2.703125l0 5.5625l-1.265625 0l-0.140625 -1.078125l-0.046875 0q-0.65625 0.53125 -1.40625 0.921875q-0.734375 0.375 -1.59375 0.375zm0.4375 -1.21875q0.65625 0 1.234375 -0.3125q0.578125 -0.3125 1.234375 -0.90625l0 -2.515625q-1.140625 0.140625 -1.921875 0.359375q-0.765625 0.203125 -1.25 0.484375q-0.46875 0.265625 -0.6875 0.640625q-0.203125 0.359375 -0.203125 0.78125q0 0.796875 0.453125 1.140625q0.46875 0.328125 1.140625 0.328125zm10.4496155 1.21875q-0.890625 0 -1.671875 -0.3125q-0.78125 -0.3125 -1.359375 -0.921875q-0.5625 -0.609375 -0.890625 -1.484375q-0.328125 -0.890625 -0.328125 -2.015625q0 -1.140625 0.34375 -2.015625q0.359375 -0.890625 0.953125 -1.5q0.609375 -0.625 1.390625 -0.9375q0.796875 -0.328125 1.671875 -0.328125q0.90625 0 1.53125 0.328125q0.640625 0.3125 1.125 0.734375l-0.78125 1.015625q-0.390625 -0.359375 -0.828125 -0.578125q-0.4375 -0.21875 -0.984375 -0.21875q-0.609375 0 -1.140625 0.25q-0.515625 0.25 -0.890625 0.71875q-0.375 0.46875 -0.59375 1.109375q-0.21875 0.640625 -0.21875 1.421875q0 0.78125 0.203125 1.421875q0.21875 0.625 0.578125 1.09375q0.359375 0.453125 0.875 0.703125q0.53125 0.25 1.15625 0.25q0.625 0 1.15625 -0.265625q0.53125 -0.265625 0.96875 -0.640625l0.671875 1.015625q-0.625 0.546875 -1.375 0.859375q-0.734375 0.296875 -1.5625 0.296875zm4.929138 -0.21875l0 -13.28125l1.515625 0l0 8.984375l0.046875 0l3.859375 -4.765625l1.703125 0l-3.046875 3.640625l3.453125 5.421875l-1.671875 0l-2.65625 -4.359375l-1.6875 1.96875l0 2.390625l-1.515625 0zm12.184845 0l0 -0.921875q1.34375 -1.328125 2.375 -2.40625q1.046875 -1.09375 1.75 -2.015625q0.71875 -0.921875 1.09375 -1.6875q0.375 -0.78125 0.375 -1.515625q0 -1.03125 -0.5625 -1.671875q-0.5625 -0.65625 -1.703125 -0.65625q-0.734375 0 -1.375 0.421875q-0.625 0.421875 -1.15625 1.015625l-0.875 -0.875q0.75 -0.828125 1.578125 -1.3125q0.84375 -0.5 2.015625 -0.5q1.671875 0 2.609375 0.96875q0.953125 0.953125 0.953125 2.53125q0 0.84375 -0.359375 1.703125q-0.359375 0.84375 -1.0 1.75q-0.640625 0.90625 -1.53125 1.890625q-0.890625 0.96875 -1.953125 2.0625q0.484375 -0.03125 1.0 -0.0625q0.53125 -0.046875 1.0 -0.046875l3.453125 0l0 1.328125l-7.6875 0z" fill-rule="nonzero"/><path fill="#58619c" d="m70.47005 81.65732l226.8637 0l0 49.695877l-226.8637 0z" fill-rule="evenodd"/><path fill="#ffffff" d="m144.24475 113.644005q-0.640625 0 -1.328125 -0.296875q-0.671875 -0.3125 -1.265625 -0.859375l-0.0625 0l-0.125 0.9375l-1.234375 0l0 -13.28125l1.53125 0l0 3.625l-0.046875 1.640625q0.625 -0.546875 1.34375 -0.90625q0.734375 -0.375 1.5 -0.375q0.875 0 1.546875 0.328125q0.671875 0.328125 1.125 0.9375q0.46875 0.609375 0.6875 1.453125q0.234375 0.84375 0.234375 1.890625q0 1.15625 -0.3125 2.078125q-0.3125 0.90625 -0.859375 1.546875q-0.53125 0.640625 -1.25 0.96875q-0.703125 0.3125 -1.484375 0.3125zm-0.265625 -1.28125q0.5625 0 1.03125 -0.25q0.484375 -0.25 0.828125 -0.703125q0.34375 -0.46875 0.53125 -1.140625q0.203125 -0.671875 0.203125 -1.515625q0 -0.734375 -0.140625 -1.34375q-0.125 -0.625 -0.421875 -1.0625q-0.28125 -0.4375 -0.734375 -0.671875q-0.453125 -0.25 -1.09375 -0.25q-1.09375 0 -2.421875 1.234375l0 4.75q0.59375 0.515625 1.171875 0.734375q0.59375 0.21875 1.046875 0.21875zm9.207535 1.28125q-1.453125 0 -2.109375 -0.890625q-0.65625 -0.890625 -0.65625 -2.65625l0 -5.734375l1.546875 0l0 5.53125q0 1.296875 0.390625 1.875q0.40625 0.5625 1.296875 0.5625q0.71875 0 1.25 -0.359375q0.546875 -0.375 1.203125 -1.171875l0 -6.4375l1.53125 0l0 9.0625l-1.28125 0l-0.125 -1.421875l-0.0625 0q-0.625 0.75 -1.328125 1.203125q-0.703125 0.4375 -1.65625 0.4375zm7.508377 -0.21875l0 -9.0625l1.53125 0l0 9.0625l-1.53125 0zm0.78125 -10.9375q-0.453125 0 -0.765625 -0.28125q-0.296875 -0.28125 -0.296875 -0.703125q0 -0.453125 0.296875 -0.71875q0.3125 -0.265625 0.765625 -0.265625q0.453125 0 0.75 0.265625q0.3125 0.265625 0.3125 0.71875q0 0.421875 -0.3125 0.703125q-0.296875 0.28125 -0.75 0.28125zm5.433182 11.15625q-0.875 0 -1.25 -0.515625q-0.375 -0.53125 -0.375 -1.53125l0 -11.453125l1.53125 0l0 11.5625q0 0.375 0.125 0.53125q0.140625 0.140625 0.296875 0.140625q0.078125 0 0.140625 0q0.0625 0 0.203125 -0.03125l0.203125 1.15625q-0.15625 0.078125 -0.359375 0.109375q-0.203125 0.03125 -0.515625 0.03125zm6.2260895 0q-1.71875 0 -2.734375 -1.21875q-1.015625 -1.234375 -1.015625 -3.515625q0 -1.09375 0.328125 -1.984375q0.328125 -0.890625 0.859375 -1.5q0.546875 -0.625 1.25 -0.953125q0.71875 -0.34375 1.5 -0.34375q0.78125 0 1.359375 0.28125q0.578125 0.28125 1.171875 0.765625l-0.0625 -1.546875l0 -3.484375l1.546875 0l0 13.28125l-1.265625 0l-0.140625 -1.0625l-0.046875 0q-0.546875 0.515625 -1.25 0.90625q-0.703125 0.375 -1.5 0.375zm0.34375 -1.28125q0.625 0 1.1875 -0.296875q0.5625 -0.3125 1.125 -0.953125l0 -4.734375q-0.578125 -0.53125 -1.109375 -0.734375q-0.53125 -0.21875 -1.09375 -0.21875q-0.546875 0 -1.03125 0.25q-0.46875 0.25 -0.828125 0.71875q-0.34375 0.453125 -0.546875 1.09375q-0.203125 0.625 -0.203125 1.40625q0 1.640625 0.640625 2.5625q0.65625 0.90625 1.859375 0.90625zm6.9167175 4.890625l0 -12.890625l1.265625 0l0.125 1.046875l0.0625 0q0.609375 -0.53125 1.34375 -0.90625q0.75 -0.375 1.546875 -0.375q0.875 0 1.546875 0.328125q0.671875 0.328125 1.125 0.9375q0.453125 0.609375 0.671875 1.453125q0.234375 0.84375 0.234375 1.90625q0 1.171875 -0.3125 2.078125q-0.3125 0.890625 -0.859375 1.53125q-0.53125 0.640625 -1.25 0.96875q-0.703125 0.3125 -1.484375 0.3125q-0.640625 0 -1.265625 -0.265625q-0.625 -0.28125 -1.265625 -0.78125l0.046875 1.59375l0 3.0625l-1.53125 0zm3.75 -4.890625q0.5625 0 1.03125 -0.25q0.484375 -0.25 0.828125 -0.703125q0.34375 -0.46875 0.53125 -1.140625q0.203125 -0.671875 0.203125 -1.515625q0 -0.734375 -0.140625 -1.34375q-0.125 -0.625 -0.421875 -1.0625q-0.28125 -0.4375 -0.734375 -0.671875q-0.453125 -0.25 -1.09375 -0.25q-0.578125 0 -1.171875 0.3125q-0.578125 0.3125 -1.25 0.921875l0 4.75q0.609375 0.515625 1.1875 0.734375q0.578125 0.21875 1.03125 0.21875zm8.43663 1.28125q-1.140625 0 -1.90625 -0.671875q-0.75 -0.671875 -0.75 -1.890625q0 -1.5 1.328125 -2.28125q1.328125 -0.796875 4.234375 -1.125q0 -0.421875 -0.09375 -0.828125q-0.078125 -0.421875 -0.28125 -0.734375q-0.203125 -0.3125 -0.578125 -0.5q-0.359375 -0.203125 -0.90625 -0.203125q-0.796875 0 -1.484375 0.296875q-0.6875 0.296875 -1.234375 0.671875l-0.59375 -1.0625q0.640625 -0.421875 1.546875 -0.796875q0.921875 -0.390625 2.015625 -0.390625q1.65625 0 2.40625 1.03125q0.75 1.015625 0.75 2.703125l0 5.5625l-1.265625 0l-0.140625 -1.078125l-0.046875 0q-0.65625 0.53125 -1.40625 0.921875q-0.734375 0.375 -1.59375 0.375zm0.4375 -1.21875q0.65625 0 1.234375 -0.3125q0.578125 -0.3125 1.234375 -0.90625l0 -2.515625q-1.140625 0.140625 -1.921875 0.359375q-0.765625 0.203125 -1.25 0.484375q-0.46875 0.265625 -0.6875 0.640625q-0.203125 0.359375 -0.203125 0.78125q0 0.796875 0.453125 1.140625q0.46875 0.328125 1.140625 0.328125zm10.4496155 1.21875q-0.890625 0 -1.671875 -0.3125q-0.78125 -0.3125 -1.359375 -0.921875q-0.5625 -0.609375 -0.890625 -1.484375q-0.328125 -0.890625 -0.328125 -2.015625q0 -1.140625 0.34375 -2.015625q0.359375 -0.890625 0.953125 -1.5q0.609375 -0.625 1.390625 -0.9375q0.796875 -0.328125 1.671875 -0.328125q0.90625 0 1.53125 0.328125q0.640625 0.3125 1.125 0.734375l-0.78125 1.015625q-0.390625 -0.359375 -0.828125 -0.578125q-0.4375 -0.21875 -0.984375 -0.21875q-0.609375 0 -1.140625 0.25q-0.515625 0.25 -0.890625 0.71875q-0.375 0.46875 -0.59375 1.109375q-0.21875 0.640625 -0.21875 1.421875q0 0.78125 0.203125 1.421875q0.21875 0.625 0.578125 1.09375q0.359375 0.453125 0.875 0.703125q0.53125 0.25 1.15625 0.25q0.625 0 1.15625 -0.265625q0.53125 -0.265625 0.96875 -0.640625l0.671875 1.015625q-0.625 0.546875 -1.375 0.859375q-0.734375 0.296875 -1.5625 0.296875zm4.929138 -0.21875l0 -13.28125l1.515625 0l0 8.984375l0.046875 0l3.859375 -4.765625l1.703125 0l-3.046875 3.640625l3.453125 5.421875l-1.671875 0l-2.65625 -4.359375l-1.6875 1.96875l0 2.390625l-1.515625 0zm12.903595 0l0 -1.265625l2.734375 0l0 -8.765625l-2.171875 0l0 -1.0q0.828125 -0.140625 1.421875 -0.359375q0.609375 -0.21875 1.09375 -0.515625l1.1875 0l0 10.640625l2.453125 0l0 1.265625l-6.71875 0z" fill-rule="nonzero"/><path fill="#556d6b" d="m524.75635 230.74495l226.86365 0l0 49.695877l-226.86365 0z" fill-rule="evenodd"/><path fill="#ffffff" d="m600.51337 262.51288l0 -9.0625l1.265625 0l0.125 1.640625l0.0625 0q0.46875 -0.859375 1.125 -1.359375q0.671875 -0.515625 1.453125 -0.515625q0.53125 0 0.96875 0.1875l-0.296875 1.34375q-0.234375 -0.0625 -0.421875 -0.09375q-0.171875 -0.046875 -0.453125 -0.046875q-0.578125 0 -1.203125 0.46875q-0.625 0.453125 -1.09375 1.609375l0 5.828125l-1.53125 0zm9.11438 0.21875q-1.453125 0 -2.109375 -0.890625q-0.65625 -0.890625 -0.65625 -2.65625l0 -5.734375l1.546875 0l0 5.53125q0 1.296875 0.390625 1.875q0.40625 0.5625 1.296875 0.5625q0.71875 0 1.25 -0.359375q0.546875 -0.375 1.203125 -1.171875l0 -6.4375l1.53125 0l0 9.0625l-1.28125 0l-0.125 -1.421875l-0.0625 0q-0.625 0.75 -1.328125 1.203125q-0.703125 0.4375 -1.65625 0.4375zm7.508362 -0.21875l0 -9.0625l1.265625 0l0.125 1.296875l0.0625 0q0.65625 -0.640625 1.375 -1.078125q0.71875 -0.453125 1.671875 -0.453125q1.4375 0 2.09375 0.90625q0.65625 0.890625 0.65625 2.640625l0 5.75l-1.53125 0l0 -5.546875q0 -1.28125 -0.40625 -1.84375q-0.40625 -0.578125 -1.296875 -0.578125q-0.71875 0 -1.265625 0.359375q-0.53125 0.359375 -1.21875 1.046875l0 6.5625l-1.53125 0zm13.936218 0l0 -9.0625l1.53125 0l0 9.0625l-1.53125 0zm0.78125 -10.9375q-0.453125 0 -0.765625 -0.28125q-0.296875 -0.28125 -0.296875 -0.703125q0 -0.453125 0.296875 -0.71875q0.3125 -0.265625 0.765625 -0.265625q0.453125 0 0.75 0.265625q0.3125 0.265625 0.3125 0.71875q0 0.421875 -0.3125 0.703125q-0.296875 0.28125 -0.75 0.28125zm3.8081665 10.9375l0 -9.0625l1.265625 0l0.125 1.296875l0.0625 0q0.59375 -0.640625 1.296875 -1.078125q0.703125 -0.453125 1.515625 -0.453125q1.046875 0 1.625 0.46875q0.59375 0.453125 0.875 1.265625q0.71875 -0.78125 1.4375 -1.25q0.71875 -0.484375 1.546875 -0.484375q1.40625 0 2.078125 0.90625q0.6875 0.890625 0.6875 2.640625l0 5.75l-1.53125 0l0 -5.546875q0 -1.28125 -0.40625 -1.84375q-0.40625 -0.578125 -1.265625 -0.578125q-1.03125 0 -2.28125 1.40625l0 6.5625l-1.53125 0l0 -5.546875q0 -1.28125 -0.40625 -1.84375q-0.40625 -0.578125 -1.296875 -0.578125q-1.015625 0 -2.265625 1.40625l0 6.5625l-1.53125 0zm17.559814 0.21875q-1.140625 0 -1.90625 -0.671875q-0.75 -0.671875 -0.75 -1.890625q0 -1.5 1.328125 -2.28125q1.328125 -0.796875 4.234375 -1.125q0 -0.421875 -0.09375 -0.828125q-0.078125 -0.421875 -0.28125 -0.734375q-0.203125 -0.3125 -0.578125 -0.5q-0.359375 -0.203125 -0.90625 -0.203125q-0.796875 0 -1.484375 0.296875q-0.6875 0.296875 -1.234375 0.671875l-0.59375 -1.0625q0.640625 -0.421875 1.546875 -0.796875q0.921875 -0.390625 2.015625 -0.390625q1.65625 0 2.40625 1.03125q0.75 1.015625 0.75 2.703125l0 5.5625l-1.265625 0l-0.140625 -1.078125l-0.046875 0q-0.65625 0.53125 -1.40625 0.921875q-0.734375 0.375 -1.59375 0.375zm0.4375 -1.21875q0.65625 0 1.234375 -0.3125q0.578125 -0.3125 1.234375 -0.90625l0 -2.515625q-1.140625 0.140625 -1.921875 0.359375q-0.765625 0.203125 -1.25 0.484375q-0.46875 0.265625 -0.6875 0.640625q-0.203125 0.359375 -0.203125 0.78125q0 0.796875 0.453125 1.140625q0.46875 0.328125 1.140625 0.328125zm9.93396 5.171875q-0.84375 0 -1.53125 -0.15625q-0.6875 -0.15625 -1.1875 -0.46875q-0.5 -0.3125 -0.765625 -0.765625q-0.265625 -0.453125 -0.265625 -1.046875q0 -0.578125 0.34375 -1.109375q0.359375 -0.515625 0.984375 -0.9375l0 -0.078125q-0.34375 -0.203125 -0.578125 -0.5625q-0.234375 -0.375 -0.234375 -0.90625q0 -0.578125 0.3125 -1.0q0.328125 -0.4375 0.671875 -0.6875l0 -0.078125q-0.4375 -0.375 -0.8125 -1.0q-0.359375 -0.625 -0.359375 -1.4375q0 -0.75 0.265625 -1.34375q0.28125 -0.59375 0.75 -1.015625q0.46875 -0.421875 1.09375 -0.640625q0.625 -0.234375 1.3125 -0.234375q0.375 0 0.6875 0.078125q0.328125 0.0625 0.59375 0.15625l3.15625 0l0 1.171875l-1.875 0q0.328125 0.3125 0.53125 0.796875q0.21875 0.484375 0.21875 1.0625q0 0.734375 -0.265625 1.328125q-0.25 0.578125 -0.703125 0.984375q-0.4375 0.390625 -1.046875 0.625q-0.609375 0.21875 -1.296875 0.21875q-0.34375 0 -0.703125 -0.078125q-0.34375 -0.09375 -0.65625 -0.234375q-0.25 0.203125 -0.421875 0.453125q-0.15625 0.25 -0.15625 0.625q0 0.4375 0.328125 0.71875q0.34375 0.265625 1.265625 0.265625l1.75 0q1.59375 0 2.375 0.515625q0.796875 0.515625 0.796875 1.65625q0 0.625 -0.3125 1.1875q-0.3125 0.578125 -0.921875 1.0q-0.59375 0.4375 -1.4375 0.6875q-0.84375 0.25 -1.90625 0.25zm0 -8.078125q0.390625 0 0.734375 -0.140625q0.34375 -0.15625 0.609375 -0.421875q0.28125 -0.28125 0.421875 -0.6875q0.15625 -0.40625 0.15625 -0.90625q0 -1.015625 -0.5625 -1.5625q-0.5625 -0.546875 -1.359375 -0.546875q-0.8125 0 -1.375 0.546875q-0.546875 0.546875 -0.546875 1.5625q0 0.5 0.140625 0.90625q0.15625 0.40625 0.421875 0.6875q0.265625 0.265625 0.609375 0.421875q0.359375 0.140625 0.75 0.140625zm0.21875 7.015625q0.65625 0 1.1875 -0.15625q0.53125 -0.15625 0.90625 -0.40625q0.375 -0.25 0.578125 -0.59375q0.203125 -0.328125 0.203125 -0.6875q0 -0.625 -0.46875 -0.875q-0.46875 -0.234375 -1.359375 -0.234375l-1.5625 0q-0.265625 0 -0.578125 -0.03125q-0.296875 -0.03125 -0.609375 -0.125q-0.484375 0.359375 -0.703125 0.75q-0.21875 0.390625 -0.21875 0.78125q0 0.71875 0.6875 1.140625q0.703125 0.4375 1.9375 0.4375zm9.532043 -2.890625q-0.90625 0 -1.703125 -0.3125q-0.796875 -0.328125 -1.390625 -0.9375q-0.578125 -0.609375 -0.921875 -1.484375q-0.328125 -0.875 -0.328125 -2.0q0 -1.125 0.34375 -2.0q0.34375 -0.890625 0.90625 -1.5q0.578125 -0.625 1.296875 -0.953125q0.734375 -0.328125 1.515625 -0.328125q0.859375 0 1.53125 0.3125q0.6875 0.296875 1.140625 0.859375q0.46875 0.546875 0.703125 1.34375q0.25 0.78125 0.25 1.75q0 0.234375 -0.015625 0.46875q0 0.234375 -0.046875 0.40625l-6.109375 0q0.09375 1.453125 0.890625 2.3125q0.8125 0.84375 2.125 0.84375q0.65625 0 1.203125 -0.203125q0.546875 -0.203125 1.0625 -0.515625l0.53125 1.015625q-0.59375 0.375 -1.328125 0.65625q-0.71875 0.265625 -1.65625 0.265625zm-2.859375 -5.484375l4.859375 0q0 -1.375 -0.59375 -2.09375q-0.578125 -0.71875 -1.640625 -0.71875q-0.484375 0 -0.9375 0.1875q-0.4375 0.1875 -0.796875 0.546875q-0.34375 0.359375 -0.578125 0.890625q-0.234375 0.515625 -0.3125 1.1875z" fill-rule="nonzero"/><path fill="#02b5a3" d="m524.75635 181.04907l226.86365 0l0 49.695877l-226.86365 0z" fill-rule="evenodd"/><path fill="#ffffff" d="m601.75824 213.03575q-1.140625 0 -1.90625 -0.671875q-0.75 -0.671875 -0.75 -1.890625q0 -1.5 1.328125 -2.28125q1.328125 -0.796875 4.234375 -1.125q0 -0.421875 -0.09375 -0.828125q-0.078125 -0.421875 -0.28125 -0.734375q-0.203125 -0.3125 -0.578125 -0.5q-0.359375 -0.203125 -0.90625 -0.203125q-0.796875 0 -1.484375 0.296875q-0.6875 0.296875 -1.234375 0.671875l-0.59375 -1.0625q0.640625 -0.421875 1.546875 -0.796875q0.921875 -0.390625 2.015625 -0.390625q1.65625 0 2.40625 1.03125q0.75 1.015625 0.75 2.703125l0 5.5625l-1.265625 0l-0.140625 -1.078125l-0.046875 0q-0.65625 0.53125 -1.40625 0.921875q-0.734375 0.375 -1.59375 0.375zm0.4375 -1.21875q0.65625 0 1.234375 -0.3125q0.578125 -0.3125 1.234375 -0.90625l0 -2.515625q-1.140625 0.140625 -1.921875 0.359375q-0.765625 0.203125 -1.25 0.484375q-0.46875 0.265625 -0.6875 0.640625q-0.203125 0.359375 -0.203125 0.78125q0 0.796875 0.453125 1.140625q0.46875 0.328125 1.140625 0.328125zm6.871521 4.828125l0 -12.890625l1.265625 0l0.125 1.046875l0.0625 0q0.609375 -0.53125 1.34375 -0.90625q0.75 -0.375 1.546875 -0.375q0.875 0 1.546875 0.328125q0.671875 0.328125 1.125 0.9375q0.453125 0.609375 0.671875 1.453125q0.234375 0.84375 0.234375 1.90625q0 1.171875 -0.3125 2.078125q-0.3125 0.890625 -0.859375 1.53125q-0.53125 0.640625 -1.25 0.96875q-0.703125 0.3125 -1.484375 0.3125q-0.640625 0 -1.265625 -0.265625q-0.625 -0.28125 -1.265625 -0.78125l0.046875 1.59375l0 3.0625l-1.53125 0zm3.75 -4.890625q0.5625 0 1.03125 -0.25q0.484375 -0.25 0.828125 -0.703125q0.34375 -0.46875 0.53125 -1.140625q0.203125 -0.671875 0.203125 -1.515625q0 -0.734375 -0.140625 -1.34375q-0.125 -0.625 -0.421875 -1.0625q-0.28125 -0.4375 -0.734375 -0.671875q-0.453125 -0.25 -1.09375 -0.25q-0.578125 0 -1.171875 0.3125q-0.578125 0.3125 -1.25 0.921875l0 4.75q0.609375 0.515625 1.1875 0.734375q0.578125 0.21875 1.03125 0.21875zm6.604187 4.890625l0 -12.890625l1.265625 0l0.125 1.046875l0.0625 0q0.609375 -0.53125 1.34375 -0.90625q0.75 -0.375 1.546875 -0.375q0.875 0 1.546875 0.328125q0.671875 0.328125 1.125 0.9375q0.453125 0.609375 0.671875 1.453125q0.234375 0.84375 0.234375 1.90625q0 1.171875 -0.3125 2.078125q-0.3125 0.890625 -0.859375 1.53125q-0.53125 0.640625 -1.25 0.96875q-0.703125 0.3125 -1.484375 0.3125q-0.640625 0 -1.265625 -0.265625q-0.625 -0.28125 -1.265625 -0.78125l0.046875 1.59375l0 3.0625l-1.53125 0zm3.75 -4.890625q0.5625 0 1.03125 -0.25q0.484375 -0.25 0.828125 -0.703125q0.34375 -0.46875 0.53125 -1.140625q0.203125 -0.671875 0.203125 -1.515625q0 -0.734375 -0.140625 -1.34375q-0.125 -0.625 -0.421875 -1.0625q-0.28125 -0.4375 -0.734375 -0.671875q-0.453125 -0.25 -1.09375 -0.25q-0.578125 0 -1.171875 0.3125q-0.578125 0.3125 -1.25 0.921875l0 4.75q0.609375 0.515625 1.1875 0.734375q0.578125 0.21875 1.03125 0.21875zm11.960449 1.28125q-0.875 0 -1.25 -0.515625q-0.375 -0.53125 -0.375 -1.53125l0 -11.453125l1.53125 0l0 11.5625q0 0.375 0.125 0.53125q0.140625 0.140625 0.296875 0.140625q0.078125 0 0.140625 0q0.0625 0 0.203125 -0.03125l0.203125 1.15625q-0.15625 0.078125 -0.359375 0.109375q-0.203125 0.03125 -0.515625 0.03125zm5.2261353 0q-1.140625 0 -1.90625 -0.671875q-0.75 -0.671875 -0.75 -1.890625q0 -1.5 1.328125 -2.28125q1.328125 -0.796875 4.234375 -1.125q0 -0.421875 -0.09375 -0.828125q-0.078125 -0.421875 -0.28125 -0.734375q-0.203125 -0.3125 -0.578125 -0.5q-0.359375 -0.203125 -0.90625 -0.203125q-0.796875 0 -1.484375 0.296875q-0.6875 0.296875 -1.234375 0.671875l-0.59375 -1.0625q0.640625 -0.421875 1.546875 -0.796875q0.921875 -0.390625 2.015625 -0.390625q1.65625 0 2.40625 1.03125q0.75 1.015625 0.75 2.703125l0 5.5625l-1.265625 0l-0.140625 -1.078125l-0.046875 0q-0.65625 0.53125 -1.40625 0.921875q-0.734375 0.375 -1.59375 0.375zm0.4375 -1.21875q0.65625 0 1.234375 -0.3125q0.578125 -0.3125 1.234375 -0.90625l0 -2.515625q-1.140625 0.140625 -1.921875 0.359375q-0.765625 0.203125 -1.25 0.484375q-0.46875 0.265625 -0.6875 0.640625q-0.203125 0.359375 -0.203125 0.78125q0 0.796875 0.453125 1.140625q0.46875 0.328125 1.140625 0.328125zm7.012085 4.90625q-0.3125 0 -0.578125 -0.046875q-0.25 -0.046875 -0.484375 -0.140625l0.3125 -1.21875q0.140625 0.03125 0.328125 0.078125q0.1875 0.046875 0.359375 0.046875q0.78125 0 1.265625 -0.546875q0.5 -0.546875 0.78125 -1.390625l0.203125 -0.671875l-3.640625 -9.078125l1.59375 0l1.84375 5.015625q0.203125 0.59375 0.4375 1.265625q0.234375 0.65625 0.4375 1.28125l0.078125 0q0.203125 -0.609375 0.390625 -1.28125q0.1875 -0.671875 0.375 -1.265625l1.625 -5.015625l1.484375 0l-3.40625 9.8125q-0.25 0.671875 -0.546875 1.25q-0.296875 0.578125 -0.703125 1.0q-0.40625 0.421875 -0.9375 0.65625q-0.515625 0.25 -1.21875 0.25zm12.169067 -3.6875q-0.90625 0 -1.703125 -0.3125q-0.796875 -0.328125 -1.390625 -0.9375q-0.578125 -0.609375 -0.921875 -1.484375q-0.328125 -0.875 -0.328125 -2.0q0 -1.125 0.34375 -2.0q0.34375 -0.890625 0.90625 -1.5q0.578125 -0.625 1.296875 -0.953125q0.734375 -0.328125 1.515625 -0.328125q0.859375 0 1.53125 0.3125q0.6875 0.296875 1.140625 0.859375q0.46875 0.546875 0.703125 1.34375q0.25 0.78125 0.25 1.75q0 0.234375 -0.015625 0.46875q0 0.234375 -0.046875 0.40625l-6.109375 0q0.09375 1.453125 0.890625 2.3125q0.8125 0.84375 2.125 0.84375q0.65625 0 1.203125 -0.203125q0.546875 -0.203125 1.0625 -0.515625l0.53125 1.015625q-0.59375 0.375 -1.328125 0.65625q-0.71875 0.265625 -1.65625 0.265625zm-2.859375 -5.484375l4.859375 0q0 -1.375 -0.59375 -2.09375q-0.578125 -0.71875 -1.640625 -0.71875q-0.484375 0 -0.9375 0.1875q-0.4375 0.1875 -0.796875 0.546875q-0.34375 0.359375 -0.578125 0.890625q-0.234375 0.515625 -0.3125 1.1875zm8.44104 5.265625l0 -9.0625l1.265625 0l0.125 1.640625l0.0625 0q0.46875 -0.859375 1.125 -1.359375q0.671875 -0.515625 1.453125 -0.515625q0.53125 0 0.96875 0.1875l-0.296875 1.34375q-0.234375 -0.0625 -0.421875 -0.09375q-0.171875 -0.046875 -0.453125 -0.046875q-0.578125 0 -1.203125 0.46875q-0.625 0.453125 -1.09375 1.609375l0 5.828125l-1.53125 0zm8.774048 0.21875q-0.984375 0 -1.859375 -0.34375q-0.875 -0.359375 -1.53125 -0.90625l0.765625 -1.015625q0.609375 0.484375 1.234375 0.78125q0.625 0.296875 1.4375 0.296875q0.890625 0 1.34375 -0.40625q0.453125 -0.421875 0.453125 -1.015625q0 -0.359375 -0.1875 -0.609375q-0.1875 -0.265625 -0.484375 -0.453125q-0.28125 -0.203125 -0.65625 -0.34375q-0.375 -0.15625 -0.75 -0.3125q-0.484375 -0.15625 -0.96875 -0.375q-0.484375 -0.21875 -0.875 -0.515625q-0.375 -0.3125 -0.625 -0.71875q-0.234375 -0.421875 -0.234375 -1.0q0 -0.53125 0.21875 -1.0q0.21875 -0.484375 0.609375 -0.828125q0.40625 -0.359375 0.984375 -0.546875q0.578125 -0.203125 1.296875 -0.203125q0.859375 0 1.578125 0.3125q0.71875 0.296875 1.25 0.71875l-0.734375 0.96875q-0.46875 -0.359375 -0.96875 -0.578125q-0.5 -0.21875 -1.09375 -0.21875q-0.859375 0 -1.265625 0.390625q-0.40625 0.390625 -0.40625 0.90625q0 0.328125 0.171875 0.5625q0.171875 0.234375 0.453125 0.40625q0.28125 0.171875 0.640625 0.3125q0.359375 0.140625 0.75 0.296875q0.484375 0.1875 0.984375 0.390625q0.5 0.203125 0.890625 0.515625q0.390625 0.296875 0.640625 0.75q0.25 0.453125 0.25 1.078125q0 0.5625 -0.21875 1.046875q-0.203125 0.484375 -0.625 0.859375q-0.421875 0.375 -1.046875 0.578125q-0.625 0.21875 -1.421875 0.21875z" fill-rule="nonzero"/><path fill="#f0197b" d="m524.75635 131.3532l226.86365 0l0 49.695877l-226.86365 0z" fill-rule="evenodd"/><path fill="#ffffff" d="m565.8919 163.33987q-0.640625 0 -1.328125 -0.296875q-0.671875 -0.3125 -1.265625 -0.859375l-0.0625 0l-0.125 0.9375l-1.234375 0l0 -13.28125l1.53125 0l0 3.625l-0.046875 1.640625q0.625 -0.546875 1.34375 -0.90625q0.734375 -0.375 1.5 -0.375q0.875 0 1.546875 0.328125q0.671875 0.328125 1.125 0.9375q0.46875 0.609375 0.6875 1.453125q0.234375 0.84375 0.234375 1.890625q0 1.15625 -0.3125 2.078125q-0.3125 0.90625 -0.859375 1.546875q-0.53125 0.640625 -1.25 0.96875q-0.703125 0.3125 -1.484375 0.3125zm-0.265625 -1.28125q0.5625 0 1.03125 -0.25q0.484375 -0.25 0.828125 -0.703125q0.34375 -0.46875 0.53125 -1.140625q0.203125 -0.671875 0.203125 -1.515625q0 -0.734375 -0.140625 -1.34375q-0.125 -0.625 -0.421875 -1.0625q-0.28125 -0.4375 -0.734375 -0.671875q-0.453125 -0.25 -1.09375 -0.25q-1.09375 0 -2.421875 1.234375l0 4.75q0.59375 0.515625 1.171875 0.734375q0.59375 0.21875 1.046875 0.21875zm6.5669556 4.890625l0 -12.890625l1.265625 0l0.125 1.046875l0.0625 0q0.609375 -0.53125 1.34375 -0.90625q0.75 -0.375 1.546875 -0.375q0.875 0 1.546875 0.328125q0.671875 0.328125 1.125 0.9375q0.453125 0.609375 0.671875 1.453125q0.234375 0.84375 0.234375 1.90625q0 1.171875 -0.3125 2.078125q-0.3125 0.890625 -0.859375 1.53125q-0.53125 0.640625 -1.25 0.96875q-0.703125 0.3125 -1.484375 0.3125q-0.640625 0 -1.265625 -0.265625q-0.625 -0.28125 -1.265625 -0.78125l0.046875 1.59375l0 3.0625l-1.53125 0zm3.75 -4.890625q0.5625 0 1.03125 -0.25q0.484375 -0.25 0.828125 -0.703125q0.34375 -0.46875 0.53125 -1.140625q0.203125 -0.671875 0.203125 -1.515625q0 -0.734375 -0.140625 -1.34375q-0.125 -0.625 -0.421875 -1.0625q-0.28125 -0.4375 -0.734375 -0.671875q-0.453125 -0.25 -1.09375 -0.25q-0.578125 0 -1.171875 0.3125q-0.578125 0.3125 -1.25 0.921875l0 4.75q0.609375 0.515625 1.1875 0.734375q0.578125 0.21875 1.03125 0.21875zm5.822937 1.0625l0 -0.921875q1.34375 -1.328125 2.375 -2.40625q1.046875 -1.09375 1.75 -2.015625q0.71875 -0.921875 1.09375 -1.6875q0.375 -0.78125 0.375 -1.515625q0 -1.03125 -0.5625 -1.671875q-0.5625 -0.65625 -1.703125 -0.65625q-0.734375 0 -1.375 0.421875q-0.625 0.421875 -1.15625 1.015625l-0.875 -0.875q0.75 -0.828125 1.578125 -1.3125q0.84375 -0.5 2.015625 -0.5q1.671875 0 2.609375 0.96875q0.953125 0.953125 0.953125 2.53125q0 0.84375 -0.359375 1.703125q-0.359375 0.84375 -1.0 1.75q-0.640625 0.90625 -1.53125 1.890625q-0.890625 0.96875 -1.953125 2.0625q0.484375 -0.03125 1.0 -0.0625q0.53125 -0.046875 1.0 -0.046875l3.453125 0l0 1.328125l-7.6875 0zm9.287781 -4.078125l0 -1.1875l4.296875 0l0 1.1875l-4.296875 0zm6.567749 7.90625l0 -12.890625l1.265625 0l0.125 1.046875l0.0625 0q0.609375 -0.53125 1.34375 -0.90625q0.75 -0.375 1.546875 -0.375q0.875 0 1.546875 0.328125q0.671875 0.328125 1.125 0.9375q0.453125 0.609375 0.671875 1.453125q0.234375 0.84375 0.234375 1.90625q0 1.171875 -0.3125 2.078125q-0.3125 0.890625 -0.859375 1.53125q-0.53125 0.640625 -1.25 0.96875q-0.703125 0.3125 -1.484375 0.3125q-0.640625 0 -1.265625 -0.265625q-0.625 -0.28125 -1.265625 -0.78125l0.046875 1.59375l0 3.0625l-1.53125 0zm3.75 -4.890625q0.5625 0 1.03125 -0.25q0.484375 -0.25 0.828125 -0.703125q0.34375 -0.46875 0.53125 -1.140625q0.203125 -0.671875 0.203125 -1.515625q0 -0.734375 -0.140625 -1.34375q-0.125 -0.625 -0.421875 -1.0625q-0.28125 -0.4375 -0.734375 -0.671875q-0.453125 -0.25 -1.09375 -0.25q-0.578125 0 -1.171875 0.3125q-0.578125 0.3125 -1.25 0.921875l0 4.75q0.609375 0.515625 1.1875 0.734375q0.578125 0.21875 1.03125 0.21875zm6.604187 1.0625l0 -9.0625l1.265625 0l0.125 1.640625l0.0625 0q0.46875 -0.859375 1.125 -1.359375q0.671875 -0.515625 1.453125 -0.515625q0.53125 0 0.96875 0.1875l-0.296875 1.34375q-0.234375 -0.0625 -0.421875 -0.09375q-0.171875 -0.046875 -0.453125 -0.046875q-0.578125 0 -1.203125 0.46875q-0.625 0.453125 -1.09375 1.609375l0 5.828125l-1.53125 0zm9.818298 0.21875q-0.84375 0 -1.609375 -0.3125q-0.75 -0.3125 -1.328125 -0.921875q-0.578125 -0.609375 -0.921875 -1.484375q-0.34375 -0.890625 -0.34375 -2.015625q0 -1.140625 0.34375 -2.015625q0.34375 -0.890625 0.921875 -1.5q0.578125 -0.625 1.328125 -0.9375q0.765625 -0.328125 1.609375 -0.328125q0.828125 0 1.578125 0.328125q0.765625 0.3125 1.34375 0.9375q0.578125 0.609375 0.921875 1.5q0.34375 0.875 0.34375 2.015625q0 1.125 -0.34375 2.015625q-0.34375 0.875 -0.921875 1.484375q-0.578125 0.609375 -1.34375 0.921875q-0.75 0.3125 -1.578125 0.3125zm0 -1.265625q0.578125 0 1.0625 -0.25q0.484375 -0.25 0.828125 -0.703125q0.34375 -0.46875 0.53125 -1.09375q0.1875 -0.640625 0.1875 -1.421875q0 -0.78125 -0.1875 -1.421875q-0.1875 -0.640625 -0.53125 -1.109375q-0.34375 -0.46875 -0.828125 -0.71875q-0.484375 -0.25 -1.0625 -0.25q-0.578125 0 -1.078125 0.25q-0.484375 0.25 -0.828125 0.71875q-0.34375 0.46875 -0.53125 1.109375q-0.1875 0.640625 -0.1875 1.421875q0 0.78125 0.1875 1.421875q0.1875 0.625 0.53125 1.09375q0.34375 0.453125 0.828125 0.703125q0.5 0.25 1.078125 0.25zm8.458923 1.046875l-3.265625 -9.0625l1.59375 0l1.71875 5.140625q0.203125 0.671875 0.40625 1.34375q0.21875 0.671875 0.421875 1.328125l0.078125 0q0.203125 -0.65625 0.40625 -1.328125q0.21875 -0.671875 0.421875 -1.34375l1.71875 -5.140625l1.5 0l-3.203125 9.0625l-1.796875 0zm6.7593384 0l0 -9.0625l1.53125 0l0 9.0625l-1.53125 0zm0.78125 -10.9375q-0.453125 0 -0.765625 -0.28125q-0.296875 -0.28125 -0.296875 -0.703125q0 -0.453125 0.296875 -0.71875q0.3125 -0.265625 0.765625 -0.265625q0.453125 0 0.75 0.265625q0.3125 0.265625 0.3125 0.71875q0 0.421875 -0.3125 0.703125q-0.296875 0.28125 -0.75 0.28125zm6.9019165 11.15625q-1.71875 0 -2.734375 -1.21875q-1.015625 -1.234375 -1.015625 -3.515625q0 -1.09375 0.328125 -1.984375q0.328125 -0.890625 0.859375 -1.5q0.546875 -0.625 1.25 -0.953125q0.71875 -0.34375 1.5 -0.34375q0.78125 0 1.359375 0.28125q0.578125 0.28125 1.171875 0.765625l-0.0625 -1.546875l0 -3.484375l1.546875 0l0 13.28125l-1.265625 0l-0.140625 -1.0625l-0.046875 0q-0.546875 0.515625 -1.25 0.90625q-0.703125 0.375 -1.5 0.375zm0.34375 -1.28125q0.625 0 1.1875 -0.296875q0.5625 -0.3125 1.125 -0.953125l0 -4.734375q-0.578125 -0.53125 -1.109375 -0.734375q-0.53125 -0.21875 -1.09375 -0.21875q-0.546875 0 -1.03125 0.25q-0.46875 0.25 -0.828125 0.71875q-0.34375 0.453125 -0.546875 1.09375q-0.203125 0.625 -0.203125 1.40625q0 1.640625 0.640625 2.5625q0.65625 0.90625 1.859375 0.90625zm10.588623 1.28125q-0.90625 0 -1.703125 -0.3125q-0.796875 -0.328125 -1.390625 -0.9375q-0.578125 -0.609375 -0.921875 -1.484375q-0.328125 -0.875 -0.328125 -2.0q0 -1.125 0.34375 -2.0q0.34375 -0.890625 0.90625 -1.5q0.578125 -0.625 1.296875 -0.953125q0.734375 -0.328125 1.515625 -0.328125q0.859375 0 1.53125 0.3125q0.6875 0.296875 1.140625 0.859375q0.46875 0.546875 0.703125 1.34375q0.25 0.78125 0.25 1.75q0 0.234375 -0.015625 0.46875q0 0.234375 -0.046875 0.40625l-6.109375 0q0.09375 1.453125 0.890625 2.3125q0.8125 0.84375 2.125 0.84375q0.65625 0 1.203125 -0.203125q0.546875 -0.203125 1.0625 -0.515625l0.53125 1.015625q-0.59375 0.375 -1.328125 0.65625q-0.71875 0.265625 -1.65625 0.265625zm-2.859375 -5.484375l4.859375 0q0 -1.375 -0.59375 -2.09375q-0.578125 -0.71875 -1.640625 -0.71875q-0.484375 0 -0.9375 0.1875q-0.4375 0.1875 -0.796875 0.546875q-0.34375 0.359375 -0.578125 0.890625q-0.234375 0.515625 -0.3125 1.1875zm11.534729 5.484375q-1.71875 0 -2.734375 -1.21875q-1.015625 -1.234375 -1.015625 -3.515625q0 -1.09375 0.328125 -1.984375q0.328125 -0.890625 0.859375 -1.5q0.546875 -0.625 1.25 -0.953125q0.71875 -0.34375 1.5 -0.34375q0.78125 0 1.359375 0.28125q0.578125 0.28125 1.171875 0.765625l-0.0625 -1.546875l0 -3.484375l1.546875 0l0 13.28125l-1.265625 0l-0.140625 -1.0625l-0.046875 0q-0.546875 0.515625 -1.25 0.90625q-0.703125 0.375 -1.5 0.375zm0.34375 -1.28125q0.625 0 1.1875 -0.296875q0.5625 -0.3125 1.125 -0.953125l0 -4.734375q-0.578125 -0.53125 -1.109375 -0.734375q-0.53125 -0.21875 -1.09375 -0.21875q-0.546875 0 -1.03125 0.25q-0.46875 0.25 -0.828125 0.71875q-0.34375 0.453125 -0.546875 1.09375q-0.203125 0.625 -0.203125 1.40625q0 1.640625 0.640625 2.5625q0.65625 0.90625 1.859375 0.90625zm12.27301 1.28125q-0.875 0 -1.25 -0.515625q-0.375 -0.53125 -0.375 -1.53125l0 -11.453125l1.53125 0l0 11.5625q0 0.375 0.125 0.53125q0.140625 0.140625 0.296875 0.140625q0.078125 0 0.140625 0q0.0625 0 0.203125 -0.03125l0.203125 1.15625q-0.15625 0.078125 -0.359375 0.109375q-0.203125 0.03125 -0.515625 0.03125zm5.226074 0q-1.140625 0 -1.90625 -0.671875q-0.75 -0.671875 -0.75 -1.890625q0 -1.5 1.328125 -2.28125q1.328125 -0.796875 4.234375 -1.125q0 -0.421875 -0.09375 -0.828125q-0.078125 -0.421875 -0.28125 -0.734375q-0.203125 -0.3125 -0.578125 -0.5q-0.359375 -0.203125 -0.90625 -0.203125q-0.796875 0 -1.484375 0.296875q-0.6875 0.296875 -1.234375 0.671875l-0.59375 -1.0625q0.640625 -0.421875 1.546875 -0.796875q0.921875 -0.390625 2.015625 -0.390625q1.65625 0 2.40625 1.03125q0.75 1.015625 0.75 2.703125l0 5.5625l-1.265625 0l-0.140625 -1.078125l-0.046875 0q-0.65625 0.53125 -1.40625 0.921875q-0.734375 0.375 -1.59375 0.375zm0.4375 -1.21875q0.65625 0 1.234375 -0.3125q0.578125 -0.3125 1.234375 -0.90625l0 -2.515625q-1.140625 0.140625 -1.921875 0.359375q-0.765625 0.203125 -1.25 0.484375q-0.46875 0.265625 -0.6875 0.640625q-0.203125 0.359375 -0.203125 0.78125q0 0.796875 0.453125 1.140625q0.46875 0.328125 1.140625 0.328125zm7.012146 4.90625q-0.3125 0 -0.578125 -0.046875q-0.25 -0.046875 -0.484375 -0.140625l0.3125 -1.21875q0.140625 0.03125 0.328125 0.078125q0.1875 0.046875 0.359375 0.046875q0.78125 0 1.265625 -0.546875q0.5 -0.546875 0.78125 -1.390625l0.203125 -0.671875l-3.640625 -9.078125l1.59375 0l1.84375 5.015625q0.203125 0.59375 0.4375 1.265625q0.234375 0.65625 0.4375 1.28125l0.078125 0q0.203125 -0.609375 0.390625 -1.28125q0.1875 -0.671875 0.375 -1.265625l1.625 -5.015625l1.484375 0l-3.40625 9.8125q-0.25 0.671875 -0.546875 1.25q-0.296875 0.578125 -0.703125 1.0q-0.40625 0.421875 -0.9375 0.65625q-0.515625 0.25 -1.21875 0.25zm12.169006 -3.6875q-0.90625 0 -1.703125 -0.3125q-0.796875 -0.328125 -1.390625 -0.9375q-0.578125 -0.609375 -0.921875 -1.484375q-0.328125 -0.875 -0.328125 -2.0q0 -1.125 0.34375 -2.0q0.34375 -0.890625 0.90625 -1.5q0.578125 -0.625 1.296875 -0.953125q0.734375 -0.328125 1.515625 -0.328125q0.859375 0 1.53125 0.3125q0.6875 0.296875 1.140625 0.859375q0.46875 0.546875 0.703125 1.34375q0.25 0.78125 0.25 1.75q0 0.234375 -0.015625 0.46875q0 0.234375 -0.046875 0.40625l-6.109375 0q0.09375 1.453125 0.890625 2.3125q0.8125 0.84375 2.125 0.84375q0.65625 0 1.203125 -0.203125q0.546875 -0.203125 1.0625 -0.515625l0.53125 1.015625q-0.59375 0.375 -1.328125 0.65625q-0.71875 0.265625 -1.65625 0.265625zm-2.859375 -5.484375l4.859375 0q0 -1.375 -0.59375 -2.09375q-0.578125 -0.71875 -1.640625 -0.71875q-0.484375 0 -0.9375 0.1875q-0.4375 0.1875 -0.796875 0.546875q-0.34375 0.359375 -0.578125 0.890625q-0.234375 0.515625 -0.3125 1.1875zm8.44104 5.265625l0 -9.0625l1.265625 0l0.125 1.640625l0.0625 0q0.46875 -0.859375 1.125 -1.359375q0.671875 -0.515625 1.453125 -0.515625q0.53125 0 0.96875 0.1875l-0.296875 1.34375q-0.234375 -0.0625 -0.421875 -0.09375q-0.171875 -0.046875 -0.453125 -0.046875q-0.578125 0 -1.203125 0.46875q-0.625 0.453125 -1.09375 1.609375l0 5.828125l-1.53125 0zm8.774048 0.21875q-0.984375 0 -1.859375 -0.34375q-0.875 -0.359375 -1.53125 -0.90625l0.765625 -1.015625q0.609375 0.484375 1.234375 0.78125q0.625 0.296875 1.4375 0.296875q0.890625 0 1.34375 -0.40625q0.453125 -0.421875 0.453125 -1.015625q0 -0.359375 -0.1875 -0.609375q-0.1875 -0.265625 -0.484375 -0.453125q-0.28125 -0.203125 -0.65625 -0.34375q-0.375 -0.15625 -0.75 -0.3125q-0.484375 -0.15625 -0.96875 -0.375q-0.484375 -0.21875 -0.875 -0.515625q-0.375 -0.3125 -0.625 -0.71875q-0.234375 -0.421875 -0.234375 -1.0q0 -0.53125 0.21875 -1.0q0.21875 -0.484375 0.609375 -0.828125q0.40625 -0.359375 0.984375 -0.546875q0.578125 -0.203125 1.296875 -0.203125q0.859375 0 1.578125 0.3125q0.71875 0.296875 1.25 0.71875l-0.734375 0.96875q-0.46875 -0.359375 -0.96875 -0.578125q-0.5 -0.21875 -1.09375 -0.21875q-0.859375 0 -1.265625 0.390625q-0.40625 0.390625 -0.40625 0.90625q0 0.328125 0.171875 0.5625q0.171875 0.234375 0.453125 0.40625q0.28125 0.171875 0.640625 0.3125q0.359375 0.140625 0.75 0.296875q0.484375 0.1875 0.984375 0.390625q0.5 0.203125 0.890625 0.515625q0.390625 0.296875 0.640625 0.75q0.25 0.453125 0.25 1.078125q0 0.5625 -0.21875 1.046875q-0.203125 0.484375 -0.625 0.859375q-0.421875 0.375 -1.046875 0.578125q-0.625 0.21875 -1.421875 0.21875z" fill-rule="nonzero"/><path fill="#58619c" d="m524.75635 81.65732l226.86365 0l0 49.695877l-226.86365 0z" fill-rule="evenodd"/><path fill="#ffffff" d="m565.8919 113.644005q-0.640625 0 -1.328125 -0.296875q-0.671875 -0.3125 -1.265625 -0.859375l-0.0625 0l-0.125 0.9375l-1.234375 0l0 -13.28125l1.53125 0l0 3.625l-0.046875 1.640625q0.625 -0.546875 1.34375 -0.90625q0.734375 -0.375 1.5 -0.375q0.875 0 1.546875 0.328125q0.671875 0.328125 1.125 0.9375q0.46875 0.609375 0.6875 1.453125q0.234375 0.84375 0.234375 1.890625q0 1.15625 -0.3125 2.078125q-0.3125 0.90625 -0.859375 1.546875q-0.53125 0.640625 -1.25 0.96875q-0.703125 0.3125 -1.484375 0.3125zm-0.265625 -1.28125q0.5625 0 1.03125 -0.25q0.484375 -0.25 0.828125 -0.703125q0.34375 -0.46875 0.53125 -1.140625q0.203125 -0.671875 0.203125 -1.515625q0 -0.734375 -0.140625 -1.34375q-0.125 -0.625 -0.421875 -1.0625q-0.28125 -0.4375 -0.734375 -0.671875q-0.453125 -0.25 -1.09375 -0.25q-1.09375 0 -2.421875 1.234375l0 4.75q0.59375 0.515625 1.171875 0.734375q0.59375 0.21875 1.046875 0.21875zm6.5669556 4.890625l0 -12.890625l1.265625 0l0.125 1.046875l0.0625 0q0.609375 -0.53125 1.34375 -0.90625q0.75 -0.375 1.546875 -0.375q0.875 0 1.546875 0.328125q0.671875 0.328125 1.125 0.9375q0.453125 0.609375 0.671875 1.453125q0.234375 0.84375 0.234375 1.90625q0 1.171875 -0.3125 2.078125q-0.3125 0.890625 -0.859375 1.53125q-0.53125 0.640625 -1.25 0.96875q-0.703125 0.3125 -1.484375 0.3125q-0.640625 0 -1.265625 -0.265625q-0.625 -0.28125 -1.265625 -0.78125l0.046875 1.59375l0 3.0625l-1.53125 0zm3.75 -4.890625q0.5625 0 1.03125 -0.25q0.484375 -0.25 0.828125 -0.703125q0.34375 -0.46875 0.53125 -1.140625q0.203125 -0.671875 0.203125 -1.515625q0 -0.734375 -0.140625 -1.34375q-0.125 -0.625 -0.421875 -1.0625q-0.28125 -0.4375 -0.734375 -0.671875q-0.453125 -0.25 -1.09375 -0.25q-0.578125 0 -1.171875 0.3125q-0.578125 0.3125 -1.25 0.921875l0 4.75q0.609375 0.515625 1.1875 0.734375q0.578125 0.21875 1.03125 0.21875zm6.541687 1.0625l0 -1.265625l2.734375 0l0 -8.765625l-2.171875 0l0 -1.0q0.828125 -0.140625 1.421875 -0.359375q0.609375 -0.21875 1.09375 -0.515625l1.1875 0l0 10.640625l2.453125 0l0 1.265625l-6.71875 0zm8.569031 -4.078125l0 -1.1875l4.296875 0l0 1.1875l-4.296875 0zm6.567749 7.90625l0 -12.890625l1.265625 0l0.125 1.046875l0.0625 0q0.609375 -0.53125 1.34375 -0.90625q0.75 -0.375 1.546875 -0.375q0.875 0 1.546875 0.328125q0.671875 0.328125 1.125 0.9375q0.453125 0.609375 0.671875 1.453125q0.234375 0.84375 0.234375 1.90625q0 1.171875 -0.3125 2.078125q-0.3125 0.890625 -0.859375 1.53125q-0.53125 0.640625 -1.25 0.96875q-0.703125 0.3125 -1.484375 0.3125q-0.640625 0 -1.265625 -0.265625q-0.625 -0.28125 -1.265625 -0.78125l0.046875 1.59375l0 3.0625l-1.53125 0zm3.75 -4.890625q0.5625 0 1.03125 -0.25q0.484375 -0.25 0.828125 -0.703125q0.34375 -0.46875 0.53125 -1.140625q0.203125 -0.671875 0.203125 -1.515625q0 -0.734375 -0.140625 -1.34375q-0.125 -0.625 -0.421875 -1.0625q-0.28125 -0.4375 -0.734375 -0.671875q-0.453125 -0.25 -1.09375 -0.25q-0.578125 0 -1.171875 0.3125q-0.578125 0.3125 -1.25 0.921875l0 4.75q0.609375 0.515625 1.1875 0.734375q0.578125 0.21875 1.03125 0.21875zm6.604187 1.0625l0 -9.0625l1.265625 0l0.125 1.640625l0.0625 0q0.46875 -0.859375 1.125 -1.359375q0.671875 -0.515625 1.453125 -0.515625q0.53125 0 0.96875 0.1875l-0.296875 1.34375q-0.234375 -0.0625 -0.421875 -0.09375q-0.171875 -0.046875 -0.453125 -0.046875q-0.578125 0 -1.203125 0.46875q-0.625 0.453125 -1.09375 1.609375l0 5.828125l-1.53125 0zm9.818298 0.21875q-0.84375 0 -1.609375 -0.3125q-0.75 -0.3125 -1.328125 -0.921875q-0.578125 -0.609375 -0.921875 -1.484375q-0.34375 -0.890625 -0.34375 -2.015625q0 -1.140625 0.34375 -2.015625q0.34375 -0.890625 0.921875 -1.5q0.578125 -0.625 1.328125 -0.9375q0.765625 -0.328125 1.609375 -0.328125q0.828125 0 1.578125 0.328125q0.765625 0.3125 1.34375 0.9375q0.578125 0.609375 0.921875 1.5q0.34375 0.875 0.34375 2.015625q0 1.125 -0.34375 2.015625q-0.34375 0.875 -0.921875 1.484375q-0.578125 0.609375 -1.34375 0.921875q-0.75 0.3125 -1.578125 0.3125zm0 -1.265625q0.578125 0 1.0625 -0.25q0.484375 -0.25 0.828125 -0.703125q0.34375 -0.46875 0.53125 -1.09375q0.1875 -0.640625 0.1875 -1.421875q0 -0.78125 -0.1875 -1.421875q-0.1875 -0.640625 -0.53125 -1.109375q-0.34375 -0.46875 -0.828125 -0.71875q-0.484375 -0.25 -1.0625 -0.25q-0.578125 0 -1.078125 0.25q-0.484375 0.25 -0.828125 0.71875q-0.34375 0.46875 -0.53125 1.109375q-0.1875 0.640625 -0.1875 1.421875q0 0.78125 0.1875 1.421875q0.1875 0.625 0.53125 1.09375q0.34375 0.453125 0.828125 0.703125q0.5 0.25 1.078125 0.25zm8.458923 1.046875l-3.265625 -9.0625l1.59375 0l1.71875 5.140625q0.203125 0.671875 0.40625 1.34375q0.21875 0.671875 0.421875 1.328125l0.078125 0q0.203125 -0.65625 0.40625 -1.328125q0.21875 -0.671875 0.421875 -1.34375l1.71875 -5.140625l1.5 0l-3.203125 9.0625l-1.796875 0zm6.7593384 0l0 -9.0625l1.53125 0l0 9.0625l-1.53125 0zm0.78125 -10.9375q-0.453125 0 -0.765625 -0.28125q-0.296875 -0.28125 -0.296875 -0.703125q0 -0.453125 0.296875 -0.71875q0.3125 -0.265625 0.765625 -0.265625q0.453125 0 0.75 0.265625q0.3125 0.265625 0.3125 0.71875q0 0.421875 -0.3125 0.703125q-0.296875 0.28125 -0.75 0.28125zm6.9019165 11.15625q-1.71875 0 -2.734375 -1.21875q-1.015625 -1.234375 -1.015625 -3.515625q0 -1.09375 0.328125 -1.984375q0.328125 -0.890625 0.859375 -1.5q0.546875 -0.625 1.25 -0.953125q0.71875 -0.34375 1.5 -0.34375q0.78125 0 1.359375 0.28125q0.578125 0.28125 1.171875 0.765625l-0.0625 -1.546875l0 -3.484375l1.546875 0l0 13.28125l-1.265625 0l-0.140625 -1.0625l-0.046875 0q-0.546875 0.515625 -1.25 0.90625q-0.703125 0.375 -1.5 0.375zm0.34375 -1.28125q0.625 0 1.1875 -0.296875q0.5625 -0.3125 1.125 -0.953125l0 -4.734375q-0.578125 -0.53125 -1.109375 -0.734375q-0.53125 -0.21875 -1.09375 -0.21875q-0.546875 0 -1.03125 0.25q-0.46875 0.25 -0.828125 0.71875q-0.34375 0.453125 -0.546875 1.09375q-0.203125 0.625 -0.203125 1.40625q0 1.640625 0.640625 2.5625q0.65625 0.90625 1.859375 0.90625zm10.588623 1.28125q-0.90625 0 -1.703125 -0.3125q-0.796875 -0.328125 -1.390625 -0.9375q-0.578125 -0.609375 -0.921875 -1.484375q-0.328125 -0.875 -0.328125 -2.0q0 -1.125 0.34375 -2.0q0.34375 -0.890625 0.90625 -1.5q0.578125 -0.625 1.296875 -0.953125q0.734375 -0.328125 1.515625 -0.328125q0.859375 0 1.53125 0.3125q0.6875 0.296875 1.140625 0.859375q0.46875 0.546875 0.703125 1.34375q0.25 0.78125 0.25 1.75q0 0.234375 -0.015625 0.46875q0 0.234375 -0.046875 0.40625l-6.109375 0q0.09375 1.453125 0.890625 2.3125q0.8125 0.84375 2.125 0.84375q0.65625 0 1.203125 -0.203125q0.546875 -0.203125 1.0625 -0.515625l0.53125 1.015625q-0.59375 0.375 -1.328125 0.65625q-0.71875 0.265625 -1.65625 0.265625zm-2.859375 -5.484375l4.859375 0q0 -1.375 -0.59375 -2.09375q-0.578125 -0.71875 -1.640625 -0.71875q-0.484375 0 -0.9375 0.1875q-0.4375 0.1875 -0.796875 0.546875q-0.34375 0.359375 -0.578125 0.890625q-0.234375 0.515625 -0.3125 1.1875zm11.534729 5.484375q-1.71875 0 -2.734375 -1.21875q-1.015625 -1.234375 -1.015625 -3.515625q0 -1.09375 0.328125 -1.984375q0.328125 -0.890625 0.859375 -1.5q0.546875 -0.625 1.25 -0.953125q0.71875 -0.34375 1.5 -0.34375q0.78125 0 1.359375 0.28125q0.578125 0.28125 1.171875 0.765625l-0.0625 -1.546875l0 -3.484375l1.546875 0l0 13.28125l-1.265625 0l-0.140625 -1.0625l-0.046875 0q-0.546875 0.515625 -1.25 0.90625q-0.703125 0.375 -1.5 0.375zm0.34375 -1.28125q0.625 0 1.1875 -0.296875q0.5625 -0.3125 1.125 -0.953125l0 -4.734375q-0.578125 -0.53125 -1.109375 -0.734375q-0.53125 -0.21875 -1.09375 -0.21875q-0.546875 0 -1.03125 0.25q-0.46875 0.25 -0.828125 0.71875q-0.34375 0.453125 -0.546875 1.09375q-0.203125 0.625 -0.203125 1.40625q0 1.640625 0.640625 2.5625q0.65625 0.90625 1.859375 0.90625zm12.27301 1.28125q-0.875 0 -1.25 -0.515625q-0.375 -0.53125 -0.375 -1.53125l0 -11.453125l1.53125 0l0 11.5625q0 0.375 0.125 0.53125q0.140625 0.140625 0.296875 0.140625q0.078125 0 0.140625 0q0.0625 0 0.203125 -0.03125l0.203125 1.15625q-0.15625 0.078125 -0.359375 0.109375q-0.203125 0.03125 -0.515625 0.03125zm5.226074 0q-1.140625 0 -1.90625 -0.671875q-0.75 -0.671875 -0.75 -1.890625q0 -1.5 1.328125 -2.28125q1.328125 -0.796875 4.234375 -1.125q0 -0.421875 -0.09375 -0.828125q-0.078125 -0.421875 -0.28125 -0.734375q-0.203125 -0.3125 -0.578125 -0.5q-0.359375 -0.203125 -0.90625 -0.203125q-0.796875 0 -1.484375 0.296875q-0.6875 0.296875 -1.234375 0.671875l-0.59375 -1.0625q0.640625 -0.421875 1.546875 -0.796875q0.921875 -0.390625 2.015625 -0.390625q1.65625 0 2.40625 1.03125q0.75 1.015625 0.75 2.703125l0 5.5625l-1.265625 0l-0.140625 -1.078125l-0.046875 0q-0.65625 0.53125 -1.40625 0.921875q-0.734375 0.375 -1.59375 0.375zm0.4375 -1.21875q0.65625 0 1.234375 -0.3125q0.578125 -0.3125 1.234375 -0.90625l0 -2.515625q-1.140625 0.140625 -1.921875 0.359375q-0.765625 0.203125 -1.25 0.484375q-0.46875 0.265625 -0.6875 0.640625q-0.203125 0.359375 -0.203125 0.78125q0 0.796875 0.453125 1.140625q0.46875 0.328125 1.140625 0.328125zm7.012146 4.90625q-0.3125 0 -0.578125 -0.046875q-0.25 -0.046875 -0.484375 -0.140625l0.3125 -1.21875q0.140625 0.03125 0.328125 0.078125q0.1875 0.046875 0.359375 0.046875q0.78125 0 1.265625 -0.546875q0.5 -0.546875 0.78125 -1.390625l0.203125 -0.671875l-3.640625 -9.078125l1.59375 0l1.84375 5.015625q0.203125 0.59375 0.4375 1.265625q0.234375 0.65625 0.4375 1.28125l0.078125 0q0.203125 -0.609375 0.390625 -1.28125q0.1875 -0.671875 0.375 -1.265625l1.625 -5.015625l1.484375 0l-3.40625 9.8125q-0.25 0.671875 -0.546875 1.25q-0.296875 0.578125 -0.703125 1.0q-0.40625 0.421875 -0.9375 0.65625q-0.515625 0.25 -1.21875 0.25zm12.169006 -3.6875q-0.90625 0 -1.703125 -0.3125q-0.796875 -0.328125 -1.390625 -0.9375q-0.578125 -0.609375 -0.921875 -1.484375q-0.328125 -0.875 -0.328125 -2.0q0 -1.125 0.34375 -2.0q0.34375 -0.890625 0.90625 -1.5q0.578125 -0.625 1.296875 -0.953125q0.734375 -0.328125 1.515625 -0.328125q0.859375 0 1.53125 0.3125q0.6875 0.296875 1.140625 0.859375q0.46875 0.546875 0.703125 1.34375q0.25 0.78125 0.25 1.75q0 0.234375 -0.015625 0.46875q0 0.234375 -0.046875 0.40625l-6.109375 0q0.09375 1.453125 0.890625 2.3125q0.8125 0.84375 2.125 0.84375q0.65625 0 1.203125 -0.203125q0.546875 -0.203125 1.0625 -0.515625l0.53125 1.015625q-0.59375 0.375 -1.328125 0.65625q-0.71875 0.265625 -1.65625 0.265625zm-2.859375 -5.484375l4.859375 0q0 -1.375 -0.59375 -2.09375q-0.578125 -0.71875 -1.640625 -0.71875q-0.484375 0 -0.9375 0.1875q-0.4375 0.1875 -0.796875 0.546875q-0.34375 0.359375 -0.578125 0.890625q-0.234375 0.515625 -0.3125 1.1875zm8.44104 5.265625l0 -9.0625l1.265625 0l0.125 1.640625l0.0625 0q0.46875 -0.859375 1.125 -1.359375q0.671875 -0.515625 1.453125 -0.515625q0.53125 0 0.96875 0.1875l-0.296875 1.34375q-0.234375 -0.0625 -0.421875 -0.09375q-0.171875 -0.046875 -0.453125 -0.046875q-0.578125 0 -1.203125 0.46875q-0.625 0.453125 -1.09375 1.609375l0 5.828125l-1.53125 0zm8.774048 0.21875q-0.984375 0 -1.859375 -0.34375q-0.875 -0.359375 -1.53125 -0.90625l0.765625 -1.015625q0.609375 0.484375 1.234375 0.78125q0.625 0.296875 1.4375 0.296875q0.890625 0 1.34375 -0.40625q0.453125 -0.421875 0.453125 -1.015625q0 -0.359375 -0.1875 -0.609375q-0.1875 -0.265625 -0.484375 -0.453125q-0.28125 -0.203125 -0.65625 -0.34375q-0.375 -0.15625 -0.75 -0.3125q-0.484375 -0.15625 -0.96875 -0.375q-0.484375 -0.21875 -0.875 -0.515625q-0.375 -0.3125 -0.625 -0.71875q-0.234375 -0.421875 -0.234375 -1.0q0 -0.53125 0.21875 -1.0q0.21875 -0.484375 0.609375 -0.828125q0.40625 -0.359375 0.984375 -0.546875q0.578125 -0.203125 1.296875 -0.203125q0.859375 0 1.578125 0.3125q0.71875 0.296875 1.25 0.71875l-0.734375 0.96875q-0.46875 -0.359375 -0.96875 -0.578125q-0.5 -0.21875 -1.09375 -0.21875q-0.859375 0 -1.265625 0.390625q-0.40625 0.390625 -0.40625 0.90625q0 0.328125 0.171875 0.5625q0.171875 0.234375 0.453125 0.40625q0.28125 0.171875 0.640625 0.3125q0.359375 0.140625 0.75 0.296875q0.484375 0.1875 0.984375 0.390625q0.5 0.203125 0.890625 0.515625q0.390625 0.296875 0.640625 0.75q0.25 0.453125 0.25 1.078125q0 0.5625 -0.21875 1.046875q-0.203125 0.484375 -0.625 0.859375q-0.421875 0.375 -1.046875 0.578125q-0.625 0.21875 -1.421875 0.21875z" fill-rule="nonzero"/><path fill="#000000" d="m173.77682 304.46237l6.884613 0l0 -6.8845825l6.4809113 0l0 6.8845825l6.884613 0l0 6.4809265l-6.884613 0l0 6.884613l-6.4809113 0l0 -6.884613l-6.884613 0z" fill-rule="evenodd"/><path stroke="#000000" stroke-width="1.0" stroke-linejoin="round" stroke-linecap="butt" d="m173.77682 304.46237l6.884613 0l0 -6.8845825l6.4809113 0l0 6.8845825l6.884613 0l0 6.4809265l-6.884613 0l0 6.884613l-6.4809113 0l0 -6.884613l-6.884613 0z" fill-rule="evenodd"/><path fill="#f0197b" d="m418.77213 130.69765l26.539337 0l24.007233 24.007263l-24.007233 24.007248l-26.539337 0l24.007263 -24.007248z" fill-rule="evenodd"/><path fill="#6570b2" d="m382.77597 130.69765l26.539307 0l24.007263 24.007263l-24.007263 24.007248l-26.539307 0l24.007263 -24.007248z" fill-rule="evenodd"/><path fill="#40457a" d="m346.4415 130.69765l26.539307 0l24.007263 24.007263l-24.007263 24.007248l-26.539307 0l24.007233 -24.007248z" fill-rule="evenodd"/><path fill="#000000" fill-opacity="0.0" d="m291.00287 160.45625l233.75421 0l0 70.94505l-233.75421 0z" fill-rule="evenodd"/><path fill="#00253e" d="m390.61206 200.41129q0.375 0.59375 1.109375 1.0q0.734375 0.40625 1.578125 0.40625q1.328125 0 2.109375 -0.953125q0.796875 -0.96875 0.796875 -2.515625q0 -1.5625 -0.78125 -2.515625q-0.78125 -0.96875 -2.125 -0.96875q-0.84375 0 -1.578125 0.4375q-0.734375 0.421875 -1.109375 1.015625l0 4.09375zm-1.390625 2.4375l0 -12.4375l1.390625 0l0 4.78125q1.15625 -1.578125 3.046875 -1.578125q1.78125 0 2.890625 1.3125q1.109375 1.296875 1.109375 3.421875q0 2.171875 -1.109375 3.453125q-1.109375 1.265625 -2.890625 1.265625q-0.953125 0 -1.75 -0.4375q-0.796875 -0.4375 -1.296875 -1.125l0 1.34375l-1.390625 0zm16.80545 0l0 -1.265625q-0.53125 0.59375 -1.375 1.046875q-0.828125 0.4375 -1.84375 0.4375q-2.859375 0 -2.859375 -2.875l0 -6.359375l1.390625 0l0 5.9375q0 1.0625 0.484375 1.5625q0.484375 0.484375 1.53125 0.484375q0.828125 0 1.546875 -0.40625q0.734375 -0.40625 1.125 -0.953125l0 -6.625l1.390625 0l0 9.015625l-1.390625 0zm4.888977 -10.296875q-0.375 0 -0.65625 -0.265625q-0.28125 -0.28125 -0.28125 -0.671875q0 -0.390625 0.28125 -0.671875q0.28125 -0.28125 0.65625 -0.28125q0.390625 0 0.671875 0.28125q0.28125 0.28125 0.28125 0.671875q0 0.390625 -0.28125 0.671875q-0.28125 0.265625 -0.671875 0.265625zm-0.6875 10.296875l0 -9.015625l1.390625 0l0 9.015625l-1.390625 0zm4.1976624 0l0 -12.4375l1.390625 0l0 12.4375l-1.390625 0zm10.713287 0l0 -1.34375q-0.5 0.6875 -1.296875 1.125q-0.78125 0.4375 -1.734375 0.4375q-1.8125 0 -2.921875 -1.28125q-1.09375 -1.28125 -1.09375 -3.4375q0 -2.15625 1.109375 -3.4375q1.109375 -1.296875 2.90625 -1.296875q0.90625 0 1.703125 0.421875q0.796875 0.421875 1.328125 1.15625l0 -4.78125l1.40625 0l0 12.4375l-1.40625 0zm-2.703125 -1.03125q0.84375 0 1.59375 -0.40625q0.75 -0.40625 1.109375 -1.0l0 -4.09375q-0.359375 -0.59375 -1.109375 -1.015625q-0.75 -0.4375 -1.59375 -0.4375q-1.296875 0 -2.09375 0.953125q-0.796875 0.953125 -0.796875 2.53125q0 1.546875 0.78125 2.515625q0.796875 0.953125 2.109375 0.953125z" fill-rule="nonzero"/><path fill="#000000" fill-opacity="0.0" d="m70.468414 10.709973l226.86368 0l0 70.94793l-226.86368 0z" fill-rule="evenodd"/><path fill="#00253e" d="m130.73769 50.666435q0.375 0.59375 1.109375 1.0q0.734375 0.40625 1.578125 0.40625q1.328125 0 2.109375 -0.953125q0.796875 -0.96875 0.796875 -2.515625q0 -1.5625 -0.78125 -2.515625q-0.78125 -0.96875 -2.125 -0.96875q-0.84375 0 -1.578125 0.4375q-0.734375 0.421875 -1.109375 1.015625l0 4.09375zm-1.390625 2.4375l0 -12.4375l1.390625 0l0 4.78125q1.15625 -1.578125 3.046875 -1.578125q1.78125 0 2.890625 1.3125q1.109375 1.296875 1.109375 3.421875q0 2.171875 -1.109375 3.453125q-1.109375 1.265625 -2.890625 1.265625q-0.953125 0 -1.75 -0.4375q-0.796875 -0.4375 -1.296875 -1.125l0 1.34375l-1.390625 0zm16.805466 0l0 -1.265625q-0.53125 0.59375 -1.375 1.046875q-0.828125 0.4375 -1.84375 0.4375q-2.859375 0 -2.859375 -2.875l0 -6.359375l1.390625 0l0 5.9375q0 1.0625 0.484375 1.5625q0.484375 0.484375 1.53125 0.484375q0.828125 0 1.546875 -0.40625q0.734375 -0.40625 1.125 -0.953125l0 -6.625l1.390625 0l0 9.015625l-1.390625 0zm4.888977 -10.296875q-0.375 0 -0.65625 -0.265625q-0.28125 -0.28125 -0.28125 -0.671875q0 -0.390625 0.28125 -0.671875q0.28125 -0.28125 0.65625 -0.28125q0.390625 0 0.671875 0.28125q0.28125 0.28125 0.28125 0.671875q0 0.390625 -0.28125 0.671875q-0.28125 0.265625 -0.671875 0.265625zm-0.6875 10.296875l0 -9.015625l1.390625 0l0 9.015625l-1.390625 0zm4.1976624 0l0 -12.4375l1.390625 0l0 12.4375l-1.390625 0zm10.713287 0l0 -1.34375q-0.5 0.6875 -1.296875 1.125q-0.78125 0.4375 -1.734375 0.4375q-1.8125 0 -2.921875 -1.28125q-1.09375 -1.28125 -1.09375 -3.4375q0 -2.15625 1.109375 -3.4375q1.109375 -1.296875 2.90625 -1.296875q0.90625 0 1.703125 0.421875q0.796875 0.421875 1.328125 1.15625l0 -4.78125l1.40625 0l0 12.4375l-1.40625 0zm-2.703125 -1.03125q0.84375 0 1.59375 -0.40625q0.75 -0.40625 1.109375 -1.0l0 -4.09375q-0.359375 -0.59375 -1.109375 -1.015625q-0.75 -0.4375 -1.59375 -0.4375q-1.296875 0 -2.09375 0.953125q-0.796875 0.953125 -0.796875 2.53125q0 1.546875 0.78125 2.515625q0.796875 0.953125 2.109375 0.953125zm10.977341 1.25q-2.03125 0 -3.3125 -1.3125q-1.28125 -1.328125 -1.28125 -3.421875q0 -2.0 1.265625 -3.359375q1.28125 -1.359375 3.171875 -1.359375q1.9375 0 3.125 1.34375q1.203125 1.34375 1.203125 3.484375l0 0.359375l-7.296875 0q0.078125 1.375 1.0 2.25q0.921875 0.859375 2.25 0.859375q1.640625 0 2.78125 -1.140625l0.671875 0.921875q-1.375 1.375 -3.578125 1.375zm2.796875 -5.296875q0 -1.25 -0.828125 -2.125q-0.8125 -0.875 -2.140625 -0.875q-1.25 0 -2.078125 0.875q-0.828125 0.875 -0.875 2.125l5.921875 0zm3.6440887 5.078125l0 -9.015625l1.390625 0l0 1.453125q1.25 -1.640625 3.0 -1.640625l0 1.4375l-0.546875 -0.046875q-0.640625 0 -1.40625 0.453125q-0.765625 0.453125 -1.046875 0.984375l0 6.375l-1.390625 0zm11.657379 -10.296875q-0.375 0 -0.65625 -0.265625q-0.28125 -0.28125 -0.28125 -0.671875q0 -0.390625 0.28125 -0.671875q0.28125 -0.28125 0.65625 -0.28125q0.390625 0 0.671875 0.28125q0.28125 0.28125 0.28125 0.671875q0 0.390625 -0.28125 0.671875q-0.28125 0.265625 -0.671875 0.265625zm-0.6875 10.296875l0 -9.015625l1.390625 0l0 9.015625l-1.390625 0zm15.072662 0l0 -6.125q0 -1.859375 -1.671875 -1.859375q-0.703125 0 -1.375 0.421875q-0.65625 0.421875 -1.0 0.953125l0 6.609375l-1.40625 0l0 -6.125q0 -1.859375 -1.65625 -1.859375q-0.6875 0 -1.34375 0.4375q-0.65625 0.421875 -1.03125 0.96875l0 6.578125l-1.390625 0l0 -9.015625l1.390625 0l0 1.3125q0.3125 -0.546875 1.1875 -1.03125q0.890625 -0.5 1.71875 -0.5q1.046875 0 1.625 0.484375q0.59375 0.484375 0.8125 1.1875q0.453125 -0.71875 1.3125 -1.1875q0.859375 -0.484375 1.703125 -0.484375q2.515625 0 2.515625 2.71875l0 6.515625l-1.390625 0zm9.824249 0l0 -1.03125q-1.140625 1.25 -2.984375 1.25q-1.359375 0 -2.265625 -0.859375q-0.890625 -0.859375 -0.890625 -2.125q0 -1.296875 0.890625 -2.125q0.890625 -0.84375 2.265625 -0.84375q1.9375 0 2.984375 1.234375l0 -1.625q0 -0.90625 -0.640625 -1.390625q-0.640625 -0.5 -1.640625 -0.5q-1.578125 0 -2.75 1.25l-0.65625 -0.984375q1.4375 -1.484375 3.59375 -1.484375q1.671875 0 2.578125 0.8125q0.921875 0.796875 0.921875 2.234375l0 6.1875l-1.40625 0zm-2.484375 -0.78125q1.671875 0 2.484375 -1.125l0 -1.6875q-0.8125 -1.125 -2.484375 -1.125q-0.984375 0 -1.609375 0.546875q-0.609375 0.546875 -0.609375 1.421875q0 0.859375 0.609375 1.421875q0.625 0.546875 1.609375 0.546875zm10.300598 4.4375q-1.15625 0 -2.0 -0.28125q-0.828125 -0.28125 -1.640625 -1.0625l0.71875 -1.046875q0.5625 0.671875 1.25 0.953125q0.703125 0.28125 1.671875 0.28125q1.390625 0 2.140625 -0.71875q0.75 -0.71875 0.75 -1.984375l0 -1.296875q-0.484375 0.703125 -1.28125 1.15625q-0.78125 0.453125 -1.734375 0.453125q-1.828125 0 -2.921875 -1.28125q-1.09375 -1.296875 -1.09375 -3.375q0 -2.171875 1.109375 -3.421875q1.109375 -1.265625 2.90625 -1.265625q1.859375 0 3.015625 1.578125l0 -1.359375l1.40625 0l0 8.75q0 1.90625 -1.125 2.90625q-1.109375 1.015625 -3.171875 1.015625zm0.203125 -4.78125q0.765625 0 1.515625 -0.40625q0.765625 -0.40625 1.171875 -1.0625l0 -3.9375q-0.40625 -0.65625 -1.171875 -1.046875q-0.765625 -0.40625 -1.515625 -0.40625q-1.3125 0 -2.109375 0.953125q-0.78125 0.953125 -0.78125 2.484375q0 1.546875 0.796875 2.484375q0.8125 0.9375 2.09375 0.9375zm10.95871 1.34375q-2.03125 0 -3.3125 -1.3125q-1.28125 -1.328125 -1.28125 -3.421875q0 -2.0 1.265625 -3.359375q1.28125 -1.359375 3.171875 -1.359375q1.9375 0 3.125 1.34375q1.203125 1.34375 1.203125 3.484375l0 0.359375l-7.296875 0q0.078125 1.375 1.0 2.25q0.921875 0.859375 2.25 0.859375q1.640625 0 2.78125 -1.140625l0.671875 0.921875q-1.375 1.375 -3.578125 1.375zm2.796875 -5.296875q0 -1.25 -0.828125 -2.125q-0.8125 -0.875 -2.140625 -0.875q-1.25 0 -2.078125 0.875q-0.828125 0.875 -0.875 2.125l5.921875 0z" fill-rule="nonzero"/><path fill="#000000" fill-opacity="0.0" d="m524.75714 10.709973l226.86371 0l0 70.94793l-226.86371 0z" fill-rule="evenodd"/><path fill="#00253e" d="m602.0683 53.103935l0 -1.03125q-1.140625 1.25 -2.984375 1.25q-1.359375 0 -2.265625 -0.859375q-0.890625 -0.859375 -0.890625 -2.125q0 -1.296875 0.890625 -2.125q0.890625 -0.84375 2.265625 -0.84375q1.9375 0 2.984375 1.234375l0 -1.625q0 -0.90625 -0.640625 -1.390625q-0.640625 -0.5 -1.640625 -0.5q-1.578125 0 -2.75 1.25l-0.65625 -0.984375q1.4375 -1.484375 3.59375 -1.484375q1.671875 0 2.578125 0.8125q0.921875 0.796875 0.921875 2.234375l0 6.1875l-1.40625 0zm-2.484375 -0.78125q1.671875 0 2.484375 -1.125l0 -1.6875q-0.8125 -1.125 -2.484375 -1.125q-0.984375 0 -1.609375 0.546875q-0.609375 0.546875 -0.609375 1.421875q0 0.859375 0.609375 1.421875q0.625 0.546875 1.609375 0.546875zm11.128723 1.0q-1.921875 0 -3.046875 -1.578125l0 4.796875l-1.390625 0l0 -12.453125l1.390625 0l0 1.34375q0.484375 -0.6875 1.28125 -1.125q0.8125 -0.4375 1.765625 -0.4375q1.8125 0 2.90625 1.265625q1.09375 1.265625 1.09375 3.453125q0 2.171875 -1.09375 3.453125q-1.078125 1.28125 -2.90625 1.28125zm-0.359375 -1.25q1.3125 0 2.09375 -0.9375q0.796875 -0.953125 0.796875 -2.546875q0 -1.546875 -0.78125 -2.5q-0.78125 -0.96875 -2.109375 -0.96875q-0.84375 0 -1.578125 0.421875q-0.734375 0.421875 -1.109375 1.015625l0 4.0625q0.375 0.59375 1.109375 1.03125q0.734375 0.421875 1.578125 0.421875zm11.030762 1.25q-1.921875 0 -3.046875 -1.578125l0 4.796875l-1.390625 0l0 -12.453125l1.390625 0l0 1.34375q0.484375 -0.6875 1.28125 -1.125q0.8125 -0.4375 1.765625 -0.4375q1.8125 0 2.90625 1.265625q1.09375 1.265625 1.09375 3.453125q0 2.171875 -1.09375 3.453125q-1.078125 1.28125 -2.90625 1.28125zm-0.359375 -1.25q1.3125 0 2.09375 -0.9375q0.796875 -0.953125 0.796875 -2.546875q0 -1.546875 -0.78125 -2.5q-0.78125 -0.96875 -2.109375 -0.96875q-0.84375 0 -1.578125 0.421875q-0.734375 0.421875 -1.109375 1.015625l0 4.0625q0.375 0.59375 1.109375 1.03125q0.734375 0.421875 1.578125 0.421875zm12.094055 -9.265625q-0.375 0 -0.65625 -0.265625q-0.28125 -0.28125 -0.28125 -0.671875q0 -0.390625 0.28125 -0.671875q0.28125 -0.28125 0.65625 -0.28125q0.390625 0 0.671875 0.28125q0.28125 0.28125 0.28125 0.671875q0 0.390625 -0.28125 0.671875q-0.28125 0.265625 -0.671875 0.265625zm-0.6875 10.296875l0 -9.015625l1.390625 0l0 9.015625l-1.390625 0zm15.072693 0l0 -6.125q0 -1.859375 -1.671875 -1.859375q-0.703125 0 -1.375 0.421875q-0.65625 0.421875 -1.0 0.953125l0 6.609375l-1.40625 0l0 -6.125q0 -1.859375 -1.65625 -1.859375q-0.6875 0 -1.34375 0.4375q-0.65625 0.421875 -1.03125 0.96875l0 6.578125l-1.390625 0l0 -9.015625l1.390625 0l0 1.3125q0.3125 -0.546875 1.1875 -1.03125q0.890625 -0.5 1.71875 -0.5q1.046875 0 1.625 0.484375q0.59375 0.484375 0.8125 1.1875q0.453125 -0.71875 1.3125 -1.1875q0.859375 -0.484375 1.703125 -0.484375q2.515625 0 2.515625 2.71875l0 6.515625l-1.390625 0zm9.824219 0l0 -1.03125q-1.140625 1.25 -2.984375 1.25q-1.359375 0 -2.265625 -0.859375q-0.890625 -0.859375 -0.890625 -2.125q0 -1.296875 0.890625 -2.125q0.890625 -0.84375 2.265625 -0.84375q1.9375 0 2.984375 1.234375l0 -1.625q0 -0.90625 -0.640625 -1.390625q-0.640625 -0.5 -1.640625 -0.5q-1.578125 0 -2.75 1.25l-0.65625 -0.984375q1.4375 -1.484375 3.59375 -1.484375q1.671875 0 2.578125 0.8125q0.921875 0.796875 0.921875 2.234375l0 6.1875l-1.40625 0zm-2.484375 -0.78125q1.671875 0 2.484375 -1.125l0 -1.6875q-0.8125 -1.125 -2.484375 -1.125q-0.984375 0 -1.609375 0.546875q-0.609375 0.546875 -0.609375 1.421875q0 0.859375 0.609375 1.421875q0.625 0.546875 1.609375 0.546875zm10.300598 4.4375q-1.15625 0 -2.0 -0.28125q-0.828125 -0.28125 -1.640625 -1.0625l0.71875 -1.046875q0.5625 0.671875 1.25 0.953125q0.703125 0.28125 1.671875 0.28125q1.390625 0 2.140625 -0.71875q0.75 -0.71875 0.75 -1.984375l0 -1.296875q-0.484375 0.703125 -1.28125 1.15625q-0.78125 0.453125 -1.734375 0.453125q-1.828125 0 -2.921875 -1.28125q-1.09375 -1.296875 -1.09375 -3.375q0 -2.171875 1.109375 -3.421875q1.109375 -1.265625 2.90625 -1.265625q1.859375 0 3.015625 1.578125l0 -1.359375l1.40625 0l0 8.75q0 1.90625 -1.125 2.90625q-1.109375 1.015625 -3.171875 1.015625zm0.203125 -4.78125q0.765625 0 1.515625 -0.40625q0.765625 -0.40625 1.171875 -1.0625l0 -3.9375q-0.40625 -0.65625 -1.171875 -1.046875q-0.765625 -0.40625 -1.515625 -0.40625q-1.3125 0 -2.109375 0.953125q-0.78125 0.953125 -0.78125 2.484375q0 1.546875 0.796875 2.484375q0.8125 0.9375 2.09375 0.9375zm10.958679 1.34375q-2.03125 0 -3.3125 -1.3125q-1.28125 -1.328125 -1.28125 -3.421875q0 -2.0 1.265625 -3.359375q1.28125 -1.359375 3.171875 -1.359375q1.9375 0 3.125 1.34375q1.203125 1.34375 1.203125 3.484375l0 0.359375l-7.296875 0q0.078125 1.375 1.0 2.25q0.921875 0.859375 2.25 0.859375q1.640625 0 2.78125 -1.140625l0.671875 0.921875q-1.375 1.375 -3.578125 1.375zm2.796875 -5.296875q0 -1.25 -0.828125 -2.125q-0.8125 -0.875 -2.140625 -0.875q-1.25 0 -2.078125 0.875q-0.828125 0.875 -0.875 2.125l5.921875 0z" fill-rule="nonzero"/><path fill="#f3f3f3" d="m223.11925 454.07202l-81.79527 0l0 -81.829834l27.556015 -27.556l54.239258 0z" fill-rule="evenodd"/><path fill="#c2c2c2" d="m168.87999 344.6862l-5.5112 22.0448l-22.044815 5.5112z" fill-rule="evenodd"/><path fill="#000000" fill-opacity="0.0" d="m168.87999 344.6862l-5.5112 22.0448l-22.044815 5.5112l27.556015 -27.556l54.239258 0l0 109.38583l-81.79527 0l0 -81.829834" fill-rule="evenodd"/><path stroke="#cccccc" stroke-width="1.0" stroke-linejoin="round" stroke-linecap="butt" d="m168.87999 344.6862l-5.5112 22.0448l-22.044815 5.5112l27.556015 -27.556l54.239258 0l0 109.38583l-81.79527 0l0 -81.829834" fill-rule="evenodd"/><path fill="#666666" d="m190.23138 406.91397l11.8125 5.765625l0 1.828125l-11.8125 5.765625l0 -2.984375l7.71875 -3.703125l-7.71875 -3.6875l0 -2.984375zm-13.980469 15.84375l7.78125 -18.140625l3.1875 0l-7.796875 18.140625l-3.171875 0zm-3.0117188 -12.859375l-7.71875 3.6875l7.71875 3.703125l0 2.984375l-11.8125 -5.765625l0 -1.828125l11.8125 -5.765625l0 2.984375z" fill-rule="nonzero"/><path fill="#000000" fill-opacity="0.0" d="m105.78074 454.07217l152.8819 0l0 38.740173l-152.8819 0z" fill-rule="evenodd"/><path fill="#000000" d="m143.49847 480.36224l0 -1.03125q-1.140625 1.25 -2.984375 1.25q-1.359375 0 -2.265625 -0.859375q-0.890625 -0.859375 -0.890625 -2.125q0 -1.296875 0.890625 -2.125q0.890625 -0.84375 2.265625 -0.84375q1.9375 0 2.984375 1.234375l0 -1.625q0 -0.90625 -0.640625 -1.390625q-0.640625 -0.5 -1.640625 -0.5q-1.578125 0 -2.75 1.25l-0.65625 -0.984375q1.4375 -1.484375 3.59375 -1.484375q1.671875 0 2.578125 0.8125q0.921875 0.796875 0.921875 2.234375l0 6.1875l-1.40625 0zm-2.484375 -0.78125q1.671875 0 2.484375 -1.125l0 -1.6875q-0.8125 -1.125 -2.484375 -1.125q-0.984375 0 -1.609375 0.546875q-0.609375 0.546875 -0.609375 1.421875q0 0.859375 0.609375 1.421875q0.625 0.546875 1.609375 0.546875zm11.128723 1.0q-1.921875 0 -3.046875 -1.578125l0 4.796875l-1.390625 0l0 -12.453125l1.390625 0l0 1.34375q0.484375 -0.6875 1.28125 -1.125q0.8125 -0.4375 1.765625 -0.4375q1.8125 0 2.90625 1.265625q1.09375 1.265625 1.09375 3.453125q0 2.171875 -1.09375 3.453125q-1.078125 1.28125 -2.90625 1.28125zm-0.359375 -1.25q1.3125 0 2.09375 -0.9375q0.796875 -0.953125 0.796875 -2.546875q0 -1.546875 -0.78125 -2.5q-0.78125 -0.96875 -2.109375 -0.96875q-0.84375 0 -1.578125 0.421875q-0.734375 0.421875 -1.109375 1.015625l0 4.0625q0.375 0.59375 1.109375 1.03125q0.734375 0.421875 1.578125 0.421875zm11.030746 1.25q-1.921875 0 -3.046875 -1.578125l0 4.796875l-1.390625 0l0 -12.453125l1.390625 0l0 1.34375q0.484375 -0.6875 1.28125 -1.125q0.8125 -0.4375 1.765625 -0.4375q1.8125 0 2.90625 1.265625q1.09375 1.265625 1.09375 3.453125q0 2.171875 -1.09375 3.453125q-1.078125 1.28125 -2.90625 1.28125zm-0.359375 -1.25q1.3125 0 2.09375 -0.9375q0.796875 -0.953125 0.796875 -2.546875q0 -1.546875 -0.78125 -2.5q-0.78125 -0.96875 -2.109375 -0.96875q-0.84375 0 -1.578125 0.421875q-0.734375 0.421875 -1.109375 1.015625l0 4.0625q0.375 0.59375 1.109375 1.03125q0.734375 0.421875 1.578125 0.421875zm14.250305 1.25q-2.296875 0 -3.640625 -1.40625l0.734375 -1.015625q0.453125 0.53125 1.234375 0.90625q0.796875 0.375 1.734375 0.375q1.046875 0 1.578125 -0.4375q0.546875 -0.4375 0.546875 -1.109375q0 -0.59375 -0.59375 -0.9375q-0.578125 -0.34375 -2.1875 -0.71875q-1.359375 -0.28125 -2.078125 -0.875q-0.71875 -0.609375 -0.71875 -1.640625q0 -1.140625 0.90625 -1.859375q0.921875 -0.734375 2.453125 -0.734375q2.03125 0 3.34375 1.3125l-0.65625 0.96875q-0.40625 -0.484375 -1.109375 -0.8125q-0.703125 -0.328125 -1.578125 -0.328125q-0.9375 0 -1.46875 0.40625q-0.53125 0.40625 -0.53125 1.015625q0 0.53125 0.59375 0.859375q0.609375 0.3125 2.203125 0.640625q1.359375 0.328125 2.0625 0.96875q0.71875 0.640625 0.71875 1.703125q0 1.25 -0.96875 1.984375q-0.96875 0.734375 -2.578125 0.734375zm9.753281 0q-1.953125 0 -3.203125 -1.328125q-1.25 -1.328125 -1.25 -3.40625q0 -2.09375 1.25 -3.40625q1.25 -1.3125 3.203125 -1.3125q1.96875 0 3.21875 1.3125q1.25 1.3125 1.25 3.40625q0 2.078125 -1.25 3.40625q-1.25 1.328125 -3.21875 1.328125zm0 -1.25q1.3125 0 2.15625 -0.96875q0.84375 -0.984375 0.84375 -2.515625q0 -1.515625 -0.84375 -2.484375q-0.84375 -0.984375 -2.15625 -0.984375q-1.296875 0 -2.15625 0.96875q-0.84375 0.96875 -0.84375 2.5q0 1.546875 0.84375 2.515625q0.84375 0.96875 2.15625 0.96875zm12.827621 1.03125l0 -1.265625q-0.53125 0.59375 -1.375 1.046875q-0.828125 0.4375 -1.84375 0.4375q-2.859375 0 -2.859375 -2.875l0 -6.359375l1.390625 0l0 5.9375q0 1.0625 0.484375 1.5625q0.484375 0.484375 1.53125 0.484375q0.828125 0 1.546875 -0.40625q0.734375 -0.40625 1.125 -0.953125l0 -6.625l1.390625 0l0 9.015625l-1.390625 0zm4.201477 0l0 -9.015625l1.390625 0l0 1.453125q1.25 -1.640625 3.0 -1.640625l0 1.4375l-0.546875 -0.046875q-0.640625 0 -1.40625 0.453125q-0.765625 0.453125 -1.046875 0.984375l0 6.375l-1.390625 0zm10.12532 0.21875q-1.984375 0 -3.25 -1.34375q-1.25 -1.34375 -1.25 -3.390625q0 -2.03125 1.25 -3.375q1.265625 -1.34375 3.25 -1.34375q2.09375 0 3.296875 1.5625l-0.921875 0.859375q-0.859375 -1.171875 -2.296875 -1.171875q-1.390625 0 -2.265625 0.96875q-0.859375 0.953125 -0.859375 2.5q0 1.5625 0.859375 2.53125q0.859375 0.953125 2.265625 0.953125q1.40625 0 2.296875 -1.171875l0.921875 0.859375q-1.203125 1.5625 -3.296875 1.5625zm9.328598 0q-2.03125 0 -3.3125 -1.3125q-1.28125 -1.328125 -1.28125 -3.421875q0 -2.0 1.265625 -3.359375q1.28125 -1.359375 3.171875 -1.359375q1.9375 0 3.125 1.34375q1.203125 1.34375 1.203125 3.484375l0 0.359375l-7.296875 0q0.078125 1.375 1.0 2.25q0.921875 0.859375 2.25 0.859375q1.640625 0 2.78125 -1.140625l0.671875 0.921875q-1.375 1.375 -3.578125 1.375zm2.796875 -5.296875q0 -1.25 -0.828125 -2.125q-0.8125 -0.875 -2.140625 -0.875q-1.25 0 -2.078125 0.875q-0.828125 0.875 -0.875 2.125l5.921875 0z" fill-rule="nonzero"/></g></svg>